<?xml version="1.0" encoding="utf-8" standalone="no"?>
<!DOCTYPE svg PUBLIC "-//W3C//DTD SVG 1.1//EN"
  "http://www.w3.org/Graphics/SVG/1.1/DTD/svg11.dtd">
<svg xmlns:xlink="http://www.w3.org/1999/xlink" width="710.372031pt" height="422.45pt" viewBox="0 0 710.372031 422.45" xmlns="http://www.w3.org/2000/svg" version="1.1">
 <metadata>
  <rdf:RDF xmlns:dc="http://purl.org/dc/elements/1.1/" xmlns:cc="http://creativecommons.org/ns#" xmlns:rdf="http://www.w3.org/1999/02/22-rdf-syntax-ns#">
   <cc:Work>
    <dc:type rdf:resource="http://purl.org/dc/dcmitype/StillImage"/>
    <dc:date>2026-02-07T21:28:37.717391</dc:date>
    <dc:format>image/svg+xml</dc:format>
    <dc:creator>
     <cc:Agent>
      <dc:title>Matplotlib v3.10.0, https://matplotlib.org/</dc:title>
     </cc:Agent>
    </dc:creator>
   </cc:Work>
  </rdf:RDF>
 </metadata>
 <defs>
  <style type="text/css">*{stroke-linejoin: round; stroke-linecap: butt}</style>
 </defs>
 <g id="figure_1">
  <g id="patch_1">
   <path d="M 0 422.45 
L 710.372031 422.45 
L 710.372031 0 
L 0 0 
z
" style="fill: #ffffff"/>
  </g>
  <g id="axes_1">
   <g id="patch_2">
    <path d="M 49.842188 382.958125 
L 504.307187 382.958125 
L 504.307187 22.318125 
L 49.842188 22.318125 
z
" style="fill: #ffffff"/>
   </g>
   <g id="matplotlib.axis_1">
    <g id="xtick_1">
     <g id="line2d_1">
      <path d="M 69.677009 382.958125 
L 69.677009 22.318125 
" clip-path="url(#p2697a73ab4)" style="fill: none; stroke-dasharray: 2.96,1.28; stroke-dashoffset: 0; stroke: #b0b0b0; stroke-opacity: 0.25; stroke-width: 0.8"/>
     </g>
     <g id="line2d_2">
      <defs>
       <path id="mc318c981cf" d="M 0 0 
L 0 3.5 
" style="stroke: #000000; stroke-width: 0.8"/>
      </defs>
      <g>
       <use xlink:href="#mc318c981cf" x="69.677009" y="382.958125" style="stroke: #000000; stroke-width: 0.8"/>
      </g>
     </g>
     <g id="text_1">
      <!-- 0 -->
      <g transform="translate(66.177634 398.316406) scale(0.11 -0.11)">
       <defs>
        <path id="DejaVuSerif-30" d="M 2034 219 
Q 2513 219 2750 744 
Q 2988 1269 2988 2328 
Q 2988 3391 2750 3916 
Q 2513 4441 2034 4441 
Q 1556 4441 1318 3916 
Q 1081 3391 1081 2328 
Q 1081 1269 1318 744 
Q 1556 219 2034 219 
z
M 2034 -91 
Q 1275 -91 848 546 
Q 422 1184 422 2328 
Q 422 3475 848 4112 
Q 1275 4750 2034 4750 
Q 2797 4750 3222 4112 
Q 3647 3475 3647 2328 
Q 3647 1184 3222 546 
Q 2797 -91 2034 -91 
z
" transform="scale(0.015625)"/>
       </defs>
       <use xlink:href="#DejaVuSerif-30"/>
      </g>
     </g>
    </g>
    <g id="xtick_2">
     <g id="line2d_3">
      <path d="M 121.439065 382.958125 
L 121.439065 22.318125 
" clip-path="url(#p2697a73ab4)" style="fill: none; stroke-dasharray: 2.96,1.28; stroke-dashoffset: 0; stroke: #b0b0b0; stroke-opacity: 0.25; stroke-width: 0.8"/>
     </g>
     <g id="line2d_4">
      <g>
       <use xlink:href="#mc318c981cf" x="121.439065" y="382.958125" style="stroke: #000000; stroke-width: 0.8"/>
      </g>
     </g>
     <g id="text_2">
      <!-- 500 -->
      <g transform="translate(110.94094 398.316406) scale(0.11 -0.11)">
       <defs>
        <path id="DejaVuSerif-35" d="M 3219 4666 
L 3219 4153 
L 1081 4153 
L 1081 2816 
Q 1244 2928 1461 2984 
Q 1678 3041 1947 3041 
Q 2703 3041 3140 2622 
Q 3578 2203 3578 1478 
Q 3578 738 3136 323 
Q 2694 -91 1894 -91 
Q 1572 -91 1234 -12 
Q 897 66 544 225 
L 544 1131 
L 897 1131 
Q 925 688 1179 453 
Q 1434 219 1894 219 
Q 2388 219 2653 544 
Q 2919 869 2919 1478 
Q 2919 2084 2655 2407 
Q 2391 2731 1894 2731 
Q 1613 2731 1398 2631 
Q 1184 2531 1019 2322 
L 750 2322 
L 750 4666 
L 3219 4666 
z
" transform="scale(0.015625)"/>
       </defs>
       <use xlink:href="#DejaVuSerif-35"/>
       <use xlink:href="#DejaVuSerif-30" transform="translate(63.623047 0)"/>
       <use xlink:href="#DejaVuSerif-30" transform="translate(127.246094 0)"/>
      </g>
     </g>
    </g>
    <g id="xtick_3">
     <g id="line2d_5">
      <path d="M 173.201121 382.958125 
L 173.201121 22.318125 
" clip-path="url(#p2697a73ab4)" style="fill: none; stroke-dasharray: 2.96,1.28; stroke-dashoffset: 0; stroke: #b0b0b0; stroke-opacity: 0.25; stroke-width: 0.8"/>
     </g>
     <g id="line2d_6">
      <g>
       <use xlink:href="#mc318c981cf" x="173.201121" y="382.958125" style="stroke: #000000; stroke-width: 0.8"/>
      </g>
     </g>
     <g id="text_3">
      <!-- 1000 -->
      <g transform="translate(159.203621 398.316406) scale(0.11 -0.11)">
       <defs>
        <path id="DejaVuSerif-31" d="M 909 0 
L 909 331 
L 1722 331 
L 1722 4213 
L 781 3603 
L 781 4013 
L 1919 4750 
L 2350 4750 
L 2350 331 
L 3163 331 
L 3163 0 
L 909 0 
z
" transform="scale(0.015625)"/>
       </defs>
       <use xlink:href="#DejaVuSerif-31"/>
       <use xlink:href="#DejaVuSerif-30" transform="translate(63.623047 0)"/>
       <use xlink:href="#DejaVuSerif-30" transform="translate(127.246094 0)"/>
       <use xlink:href="#DejaVuSerif-30" transform="translate(190.869141 0)"/>
      </g>
     </g>
    </g>
    <g id="xtick_4">
     <g id="line2d_7">
      <path d="M 224.963178 382.958125 
L 224.963178 22.318125 
" clip-path="url(#p2697a73ab4)" style="fill: none; stroke-dasharray: 2.96,1.28; stroke-dashoffset: 0; stroke: #b0b0b0; stroke-opacity: 0.25; stroke-width: 0.8"/>
     </g>
     <g id="line2d_8">
      <g>
       <use xlink:href="#mc318c981cf" x="224.963178" y="382.958125" style="stroke: #000000; stroke-width: 0.8"/>
      </g>
     </g>
     <g id="text_4">
      <!-- 1500 -->
      <g transform="translate(210.965678 398.316406) scale(0.11 -0.11)">
       <use xlink:href="#DejaVuSerif-31"/>
       <use xlink:href="#DejaVuSerif-35" transform="translate(63.623047 0)"/>
       <use xlink:href="#DejaVuSerif-30" transform="translate(127.246094 0)"/>
       <use xlink:href="#DejaVuSerif-30" transform="translate(190.869141 0)"/>
      </g>
     </g>
    </g>
    <g id="xtick_5">
     <g id="line2d_9">
      <path d="M 276.725234 382.958125 
L 276.725234 22.318125 
" clip-path="url(#p2697a73ab4)" style="fill: none; stroke-dasharray: 2.96,1.28; stroke-dashoffset: 0; stroke: #b0b0b0; stroke-opacity: 0.25; stroke-width: 0.8"/>
     </g>
     <g id="line2d_10">
      <g>
       <use xlink:href="#mc318c981cf" x="276.725234" y="382.958125" style="stroke: #000000; stroke-width: 0.8"/>
      </g>
     </g>
     <g id="text_5">
      <!-- 2000 -->
      <g transform="translate(262.727734 398.316406) scale(0.11 -0.11)">
       <defs>
        <path id="DejaVuSerif-32" d="M 819 3553 
L 469 3553 
L 469 4384 
Q 803 4563 1142 4656 
Q 1481 4750 1806 4750 
Q 2534 4750 2956 4397 
Q 3378 4044 3378 3438 
Q 3378 2753 2422 1800 
Q 2347 1728 2309 1691 
L 1131 513 
L 3078 513 
L 3078 1088 
L 3444 1088 
L 3444 0 
L 434 0 
L 434 341 
L 1850 1753 
Q 2319 2222 2519 2614 
Q 2719 3006 2719 3438 
Q 2719 3909 2473 4175 
Q 2228 4441 1797 4441 
Q 1350 4441 1106 4219 
Q 863 3997 819 3553 
z
" transform="scale(0.015625)"/>
       </defs>
       <use xlink:href="#DejaVuSerif-32"/>
       <use xlink:href="#DejaVuSerif-30" transform="translate(63.623047 0)"/>
       <use xlink:href="#DejaVuSerif-30" transform="translate(127.246094 0)"/>
       <use xlink:href="#DejaVuSerif-30" transform="translate(190.869141 0)"/>
      </g>
     </g>
    </g>
    <g id="xtick_6">
     <g id="line2d_11">
      <path d="M 328.48729 382.958125 
L 328.48729 22.318125 
" clip-path="url(#p2697a73ab4)" style="fill: none; stroke-dasharray: 2.96,1.28; stroke-dashoffset: 0; stroke: #b0b0b0; stroke-opacity: 0.25; stroke-width: 0.8"/>
     </g>
     <g id="line2d_12">
      <g>
       <use xlink:href="#mc318c981cf" x="328.48729" y="382.958125" style="stroke: #000000; stroke-width: 0.8"/>
      </g>
     </g>
     <g id="text_6">
      <!-- 2500 -->
      <g transform="translate(314.48979 398.316406) scale(0.11 -0.11)">
       <use xlink:href="#DejaVuSerif-32"/>
       <use xlink:href="#DejaVuSerif-35" transform="translate(63.623047 0)"/>
       <use xlink:href="#DejaVuSerif-30" transform="translate(127.246094 0)"/>
       <use xlink:href="#DejaVuSerif-30" transform="translate(190.869141 0)"/>
      </g>
     </g>
    </g>
    <g id="xtick_7">
     <g id="line2d_13">
      <path d="M 380.249346 382.958125 
L 380.249346 22.318125 
" clip-path="url(#p2697a73ab4)" style="fill: none; stroke-dasharray: 2.96,1.28; stroke-dashoffset: 0; stroke: #b0b0b0; stroke-opacity: 0.25; stroke-width: 0.8"/>
     </g>
     <g id="line2d_14">
      <g>
       <use xlink:href="#mc318c981cf" x="380.249346" y="382.958125" style="stroke: #000000; stroke-width: 0.8"/>
      </g>
     </g>
     <g id="text_7">
      <!-- 3000 -->
      <g transform="translate(366.251846 398.316406) scale(0.11 -0.11)">
       <defs>
        <path id="DejaVuSerif-33" d="M 622 4469 
Q 988 4606 1323 4678 
Q 1659 4750 1953 4750 
Q 2638 4750 3022 4454 
Q 3406 4159 3406 3634 
Q 3406 3213 3140 2930 
Q 2875 2647 2388 2547 
Q 2963 2466 3280 2130 
Q 3597 1794 3597 1259 
Q 3597 606 3158 257 
Q 2719 -91 1894 -91 
Q 1528 -91 1179 -12 
Q 831 66 488 225 
L 488 1131 
L 838 1131 
Q 869 681 1141 450 
Q 1413 219 1906 219 
Q 2384 219 2661 495 
Q 2938 772 2938 1253 
Q 2938 1803 2653 2086 
Q 2369 2369 1819 2369 
L 1522 2369 
L 1522 2688 
L 1678 2688 
Q 2225 2688 2498 2914 
Q 2772 3141 2772 3597 
Q 2772 4006 2547 4223 
Q 2322 4441 1900 4441 
Q 1478 4441 1245 4241 
Q 1013 4041 972 3647 
L 622 3647 
L 622 4469 
z
" transform="scale(0.015625)"/>
       </defs>
       <use xlink:href="#DejaVuSerif-33"/>
       <use xlink:href="#DejaVuSerif-30" transform="translate(63.623047 0)"/>
       <use xlink:href="#DejaVuSerif-30" transform="translate(127.246094 0)"/>
       <use xlink:href="#DejaVuSerif-30" transform="translate(190.869141 0)"/>
      </g>
     </g>
    </g>
    <g id="xtick_8">
     <g id="line2d_15">
      <path d="M 432.011402 382.958125 
L 432.011402 22.318125 
" clip-path="url(#p2697a73ab4)" style="fill: none; stroke-dasharray: 2.96,1.28; stroke-dashoffset: 0; stroke: #b0b0b0; stroke-opacity: 0.25; stroke-width: 0.8"/>
     </g>
     <g id="line2d_16">
      <g>
       <use xlink:href="#mc318c981cf" x="432.011402" y="382.958125" style="stroke: #000000; stroke-width: 0.8"/>
      </g>
     </g>
     <g id="text_8">
      <!-- 3500 -->
      <g transform="translate(418.013902 398.316406) scale(0.11 -0.11)">
       <use xlink:href="#DejaVuSerif-33"/>
       <use xlink:href="#DejaVuSerif-35" transform="translate(63.623047 0)"/>
       <use xlink:href="#DejaVuSerif-30" transform="translate(127.246094 0)"/>
       <use xlink:href="#DejaVuSerif-30" transform="translate(190.869141 0)"/>
      </g>
     </g>
    </g>
    <g id="xtick_9">
     <g id="line2d_17">
      <path d="M 483.773458 382.958125 
L 483.773458 22.318125 
" clip-path="url(#p2697a73ab4)" style="fill: none; stroke-dasharray: 2.96,1.28; stroke-dashoffset: 0; stroke: #b0b0b0; stroke-opacity: 0.25; stroke-width: 0.8"/>
     </g>
     <g id="line2d_18">
      <g>
       <use xlink:href="#mc318c981cf" x="483.773458" y="382.958125" style="stroke: #000000; stroke-width: 0.8"/>
      </g>
     </g>
     <g id="text_9">
      <!-- 4000 -->
      <g transform="translate(469.775958 398.316406) scale(0.11 -0.11)">
       <defs>
        <path id="DejaVuSerif-34" d="M 2234 1581 
L 2234 4063 
L 641 1581 
L 2234 1581 
z
M 3609 0 
L 1484 0 
L 1484 331 
L 2234 331 
L 2234 1247 
L 197 1247 
L 197 1588 
L 2241 4750 
L 2859 4750 
L 2859 1581 
L 3750 1581 
L 3750 1247 
L 2859 1247 
L 2859 331 
L 3609 331 
L 3609 0 
z
" transform="scale(0.015625)"/>
       </defs>
       <use xlink:href="#DejaVuSerif-34"/>
       <use xlink:href="#DejaVuSerif-30" transform="translate(63.623047 0)"/>
       <use xlink:href="#DejaVuSerif-30" transform="translate(127.246094 0)"/>
       <use xlink:href="#DejaVuSerif-30" transform="translate(190.869141 0)"/>
      </g>
     </g>
    </g>
    <g id="text_10">
     <!-- Cumulative time (s) -->
     <g transform="translate(222.145156 412.962344) scale(0.11 -0.11)">
      <defs>
       <path id="DejaVuSerif-43" d="M 4513 1234 
Q 4306 581 3820 245 
Q 3334 -91 2591 -91 
Q 2134 -91 1743 65 
Q 1353 222 1050 525 
Q 700 875 529 1320 
Q 359 1766 359 2328 
Q 359 3416 987 4083 
Q 1616 4750 2644 4750 
Q 3025 4750 3456 4650 
Q 3888 4550 4384 4347 
L 4384 3272 
L 4031 3272 
Q 3916 3859 3567 4137 
Q 3219 4416 2591 4416 
Q 1844 4416 1459 3886 
Q 1075 3356 1075 2328 
Q 1075 1303 1459 773 
Q 1844 244 2591 244 
Q 3113 244 3450 492 
Q 3788 741 3938 1234 
L 4513 1234 
z
" transform="scale(0.015625)"/>
       <path id="DejaVuSerif-75" d="M 2266 3322 
L 3341 3322 
L 3341 331 
L 3884 331 
L 3884 0 
L 2766 0 
L 2766 588 
Q 2606 256 2353 82 
Q 2100 -91 1766 -91 
Q 1213 -91 952 223 
Q 691 538 691 1209 
L 691 2988 
L 172 2988 
L 172 3322 
L 1269 3322 
L 1269 1388 
Q 1269 781 1417 556 
Q 1566 331 1947 331 
Q 2347 331 2556 625 
Q 2766 919 2766 1478 
L 2766 2988 
L 2266 2988 
L 2266 3322 
z
" transform="scale(0.015625)"/>
       <path id="DejaVuSerif-6d" d="M 3316 2675 
Q 3481 3041 3739 3227 
Q 3997 3413 4341 3413 
Q 4863 3413 5119 3089 
Q 5375 2766 5375 2113 
L 5375 331 
L 5894 331 
L 5894 0 
L 4300 0 
L 4300 331 
L 4800 331 
L 4800 2047 
Q 4800 2556 4650 2772 
Q 4500 2988 4153 2988 
Q 3769 2988 3567 2697 
Q 3366 2406 3366 1850 
L 3366 331 
L 3866 331 
L 3866 0 
L 2291 0 
L 2291 331 
L 2791 331 
L 2791 2069 
Q 2791 2566 2641 2777 
Q 2491 2988 2144 2988 
Q 1759 2988 1557 2697 
Q 1356 2406 1356 1850 
L 1356 331 
L 1856 331 
L 1856 0 
L 263 0 
L 263 331 
L 781 331 
L 781 2994 
L 231 2994 
L 231 3322 
L 1356 3322 
L 1356 2731 
Q 1516 3063 1762 3238 
Q 2009 3413 2322 3413 
Q 2709 3413 2968 3220 
Q 3228 3028 3316 2675 
z
" transform="scale(0.015625)"/>
       <path id="DejaVuSerif-6c" d="M 1313 331 
L 1856 331 
L 1856 0 
L 184 0 
L 184 331 
L 738 331 
L 738 4531 
L 184 4531 
L 184 4863 
L 1313 4863 
L 1313 331 
z
" transform="scale(0.015625)"/>
       <path id="DejaVuSerif-61" d="M 2547 1044 
L 2547 1747 
L 1806 1747 
Q 1378 1747 1168 1562 
Q 959 1378 959 997 
Q 959 650 1171 447 
Q 1384 244 1747 244 
Q 2106 244 2326 466 
Q 2547 688 2547 1044 
z
M 3122 2075 
L 3122 331 
L 3634 331 
L 3634 0 
L 2547 0 
L 2547 359 
Q 2356 128 2106 18 
Q 1856 -91 1522 -91 
Q 969 -91 644 203 
Q 319 497 319 997 
Q 319 1513 691 1797 
Q 1063 2081 1741 2081 
L 2547 2081 
L 2547 2309 
Q 2547 2688 2317 2895 
Q 2088 3103 1672 3103 
Q 1328 3103 1125 2947 
Q 922 2791 872 2484 
L 575 2484 
L 575 3156 
Q 875 3284 1158 3348 
Q 1441 3413 1709 3413 
Q 2400 3413 2761 3070 
Q 3122 2728 3122 2075 
z
" transform="scale(0.015625)"/>
       <path id="DejaVuSerif-74" d="M 691 2988 
L 184 2988 
L 184 3322 
L 691 3322 
L 691 4353 
L 1269 4353 
L 1269 3322 
L 2350 3322 
L 2350 2988 
L 1269 2988 
L 1269 878 
Q 1269 456 1350 337 
Q 1431 219 1650 219 
Q 1875 219 1978 351 
Q 2081 484 2088 781 
L 2522 781 
Q 2497 328 2275 118 
Q 2053 -91 1600 -91 
Q 1103 -91 897 129 
Q 691 350 691 878 
L 691 2988 
z
" transform="scale(0.015625)"/>
       <path id="DejaVuSerif-69" d="M 622 4353 
Q 622 4497 726 4603 
Q 831 4709 978 4709 
Q 1122 4709 1226 4603 
Q 1331 4497 1331 4353 
Q 1331 4206 1228 4103 
Q 1125 4000 978 4000 
Q 831 4000 726 4103 
Q 622 4206 622 4353 
z
M 1356 331 
L 1900 331 
L 1900 0 
L 231 0 
L 231 331 
L 781 331 
L 781 2988 
L 231 2988 
L 231 3322 
L 1356 3322 
L 1356 331 
z
" transform="scale(0.015625)"/>
       <path id="DejaVuSerif-76" d="M 1581 0 
L 359 2988 
L -19 2988 
L -19 3322 
L 1509 3322 
L 1509 2988 
L 978 2988 
L 1913 703 
L 2847 2988 
L 2350 2988 
L 2350 3322 
L 3597 3322 
L 3597 2988 
L 3225 2988 
L 2003 0 
L 1581 0 
z
" transform="scale(0.015625)"/>
       <path id="DejaVuSerif-65" d="M 3469 1600 
L 991 1600 
L 991 1575 
Q 991 903 1244 561 
Q 1497 219 1991 219 
Q 2369 219 2611 417 
Q 2853 616 2950 1006 
L 3413 1006 
Q 3275 459 2904 184 
Q 2534 -91 1931 -91 
Q 1203 -91 761 389 
Q 319 869 319 1663 
Q 319 2450 753 2931 
Q 1188 3413 1894 3413 
Q 2647 3413 3050 2948 
Q 3453 2484 3469 1600 
z
M 2791 1931 
Q 2772 2513 2545 2808 
Q 2319 3103 1894 3103 
Q 1497 3103 1269 2806 
Q 1041 2509 991 1931 
L 2791 1931 
z
" transform="scale(0.015625)"/>
       <path id="DejaVuSerif-20" transform="scale(0.015625)"/>
       <path id="DejaVuSerif-28" d="M 2041 -997 
Q 1281 -656 893 83 
Q 506 822 506 1931 
Q 506 3044 893 3783 
Q 1281 4522 2041 4863 
L 2041 4556 
Q 1559 4225 1350 3623 
Q 1141 3022 1141 1931 
Q 1141 844 1350 242 
Q 1559 -359 2041 -691 
L 2041 -997 
z
" transform="scale(0.015625)"/>
       <path id="DejaVuSerif-73" d="M 359 184 
L 359 959 
L 691 959 
Q 703 588 923 403 
Q 1144 219 1575 219 
Q 1963 219 2166 364 
Q 2369 509 2369 788 
Q 2369 1006 2220 1140 
Q 2072 1275 1594 1428 
L 1178 1569 
Q 750 1706 558 1912 
Q 366 2119 366 2438 
Q 366 2894 700 3153 
Q 1034 3413 1625 3413 
Q 1888 3413 2178 3344 
Q 2469 3275 2778 3144 
L 2778 2419 
L 2447 2419 
Q 2434 2741 2221 2922 
Q 2009 3103 1644 3103 
Q 1281 3103 1095 2975 
Q 909 2847 909 2591 
Q 909 2381 1050 2254 
Q 1191 2128 1613 1997 
L 2069 1856 
Q 2541 1709 2748 1489 
Q 2956 1269 2956 922 
Q 2956 450 2595 179 
Q 2234 -91 1600 -91 
Q 1278 -91 972 -22 
Q 666 47 359 184 
z
" transform="scale(0.015625)"/>
       <path id="DejaVuSerif-29" d="M 453 -997 
L 453 -691 
Q 934 -359 1145 242 
Q 1356 844 1356 1931 
Q 1356 3022 1145 3623 
Q 934 4225 453 4556 
L 453 4863 
Q 1216 4522 1603 3783 
Q 1991 3044 1991 1931 
Q 1991 822 1603 83 
Q 1216 -656 453 -997 
z
" transform="scale(0.015625)"/>
      </defs>
      <use xlink:href="#DejaVuSerif-43"/>
      <use xlink:href="#DejaVuSerif-75" transform="translate(76.513672 0)"/>
      <use xlink:href="#DejaVuSerif-6d" transform="translate(140.917969 0)"/>
      <use xlink:href="#DejaVuSerif-75" transform="translate(235.742188 0)"/>
      <use xlink:href="#DejaVuSerif-6c" transform="translate(300.146484 0)"/>
      <use xlink:href="#DejaVuSerif-61" transform="translate(332.128906 0)"/>
      <use xlink:href="#DejaVuSerif-74" transform="translate(391.748047 0)"/>
      <use xlink:href="#DejaVuSerif-69" transform="translate(431.933594 0)"/>
      <use xlink:href="#DejaVuSerif-76" transform="translate(463.916016 0)"/>
      <use xlink:href="#DejaVuSerif-65" transform="translate(520.410156 0)"/>
      <use xlink:href="#DejaVuSerif-20" transform="translate(579.589844 0)"/>
      <use xlink:href="#DejaVuSerif-74" transform="translate(611.376953 0)"/>
      <use xlink:href="#DejaVuSerif-69" transform="translate(651.5625 0)"/>
      <use xlink:href="#DejaVuSerif-6d" transform="translate(683.544922 0)"/>
      <use xlink:href="#DejaVuSerif-65" transform="translate(778.369141 0)"/>
      <use xlink:href="#DejaVuSerif-20" transform="translate(837.548828 0)"/>
      <use xlink:href="#DejaVuSerif-28" transform="translate(869.335938 0)"/>
      <use xlink:href="#DejaVuSerif-73" transform="translate(908.349609 0)"/>
      <use xlink:href="#DejaVuSerif-29" transform="translate(959.667969 0)"/>
     </g>
    </g>
   </g>
   <g id="matplotlib.axis_2">
    <g id="ytick_1">
     <g id="line2d_19">
      <path d="M 49.842188 366.565398 
L 504.307187 366.565398 
" clip-path="url(#p2697a73ab4)" style="fill: none; stroke-dasharray: 2.96,1.28; stroke-dashoffset: 0; stroke: #b0b0b0; stroke-opacity: 0.25; stroke-width: 0.8"/>
     </g>
     <g id="line2d_20">
      <defs>
       <path id="m01c38294bd" d="M 0 0 
L -3.5 0 
" style="stroke: #000000; stroke-width: 0.8"/>
      </defs>
      <g>
       <use xlink:href="#m01c38294bd" x="49.842188" y="366.565398" style="stroke: #000000; stroke-width: 0.8"/>
      </g>
     </g>
     <g id="text_11">
      <!-- 0 -->
      <g transform="translate(35.843438 370.744538) scale(0.11 -0.11)">
       <use xlink:href="#DejaVuSerif-30"/>
      </g>
     </g>
    </g>
    <g id="ytick_2">
     <g id="line2d_21">
      <path d="M 49.842188 319.729034 
L 504.307187 319.729034 
" clip-path="url(#p2697a73ab4)" style="fill: none; stroke-dasharray: 2.96,1.28; stroke-dashoffset: 0; stroke: #b0b0b0; stroke-opacity: 0.25; stroke-width: 0.8"/>
     </g>
     <g id="line2d_22">
      <g>
       <use xlink:href="#m01c38294bd" x="49.842188" y="319.729034" style="stroke: #000000; stroke-width: 0.8"/>
      </g>
     </g>
     <g id="text_12">
      <!-- 20 -->
      <g transform="translate(28.844687 323.908175) scale(0.11 -0.11)">
       <use xlink:href="#DejaVuSerif-32"/>
       <use xlink:href="#DejaVuSerif-30" transform="translate(63.623047 0)"/>
      </g>
     </g>
    </g>
    <g id="ytick_3">
     <g id="line2d_23">
      <path d="M 49.842188 272.89267 
L 504.307187 272.89267 
" clip-path="url(#p2697a73ab4)" style="fill: none; stroke-dasharray: 2.96,1.28; stroke-dashoffset: 0; stroke: #b0b0b0; stroke-opacity: 0.25; stroke-width: 0.8"/>
     </g>
     <g id="line2d_24">
      <g>
       <use xlink:href="#m01c38294bd" x="49.842188" y="272.89267" style="stroke: #000000; stroke-width: 0.8"/>
      </g>
     </g>
     <g id="text_13">
      <!-- 40 -->
      <g transform="translate(28.844687 277.071811) scale(0.11 -0.11)">
       <use xlink:href="#DejaVuSerif-34"/>
       <use xlink:href="#DejaVuSerif-30" transform="translate(63.623047 0)"/>
      </g>
     </g>
    </g>
    <g id="ytick_4">
     <g id="line2d_25">
      <path d="M 49.842188 226.056307 
L 504.307187 226.056307 
" clip-path="url(#p2697a73ab4)" style="fill: none; stroke-dasharray: 2.96,1.28; stroke-dashoffset: 0; stroke: #b0b0b0; stroke-opacity: 0.25; stroke-width: 0.8"/>
     </g>
     <g id="line2d_26">
      <g>
       <use xlink:href="#m01c38294bd" x="49.842188" y="226.056307" style="stroke: #000000; stroke-width: 0.8"/>
      </g>
     </g>
     <g id="text_14">
      <!-- 60 -->
      <g transform="translate(28.844687 230.235447) scale(0.11 -0.11)">
       <defs>
        <path id="DejaVuSerif-36" d="M 2094 219 
Q 2534 219 2771 542 
Q 3009 866 3009 1472 
Q 3009 2078 2771 2401 
Q 2534 2725 2094 2725 
Q 1647 2725 1412 2412 
Q 1178 2100 1178 1509 
Q 1178 888 1415 553 
Q 1653 219 2094 219 
z
M 1075 2569 
Q 1288 2803 1556 2918 
Q 1825 3034 2163 3034 
Q 2859 3034 3264 2615 
Q 3669 2197 3669 1472 
Q 3669 763 3233 336 
Q 2797 -91 2069 -91 
Q 1278 -91 853 498 
Q 428 1088 428 2181 
Q 428 3406 931 4078 
Q 1434 4750 2350 4750 
Q 2597 4750 2869 4703 
Q 3141 4656 3425 4563 
L 3425 3794 
L 3072 3794 
Q 3034 4109 2831 4275 
Q 2628 4441 2284 4441 
Q 1678 4441 1381 3981 
Q 1084 3522 1075 2569 
z
" transform="scale(0.015625)"/>
       </defs>
       <use xlink:href="#DejaVuSerif-36"/>
       <use xlink:href="#DejaVuSerif-30" transform="translate(63.623047 0)"/>
      </g>
     </g>
    </g>
    <g id="ytick_5">
     <g id="line2d_27">
      <path d="M 49.842188 179.219943 
L 504.307187 179.219943 
" clip-path="url(#p2697a73ab4)" style="fill: none; stroke-dasharray: 2.96,1.28; stroke-dashoffset: 0; stroke: #b0b0b0; stroke-opacity: 0.25; stroke-width: 0.8"/>
     </g>
     <g id="line2d_28">
      <g>
       <use xlink:href="#m01c38294bd" x="49.842188" y="179.219943" style="stroke: #000000; stroke-width: 0.8"/>
      </g>
     </g>
     <g id="text_15">
      <!-- 80 -->
      <g transform="translate(28.844687 183.399084) scale(0.11 -0.11)">
       <defs>
        <path id="DejaVuSerif-38" d="M 2981 1275 
Q 2981 1775 2732 2051 
Q 2484 2328 2034 2328 
Q 1584 2328 1336 2051 
Q 1088 1775 1088 1275 
Q 1088 772 1336 495 
Q 1584 219 2034 219 
Q 2484 219 2732 495 
Q 2981 772 2981 1275 
z
M 2853 3541 
Q 2853 3966 2637 4203 
Q 2422 4441 2034 4441 
Q 1650 4441 1433 4203 
Q 1216 3966 1216 3541 
Q 1216 3113 1433 2875 
Q 1650 2638 2034 2638 
Q 2422 2638 2637 2875 
Q 2853 3113 2853 3541 
z
M 2516 2484 
Q 3047 2413 3344 2092 
Q 3641 1772 3641 1275 
Q 3641 619 3225 264 
Q 2809 -91 2034 -91 
Q 1263 -91 845 264 
Q 428 619 428 1275 
Q 428 1772 725 2092 
Q 1022 2413 1556 2484 
Q 1084 2569 832 2842 
Q 581 3116 581 3541 
Q 581 4103 968 4426 
Q 1356 4750 2034 4750 
Q 2713 4750 3100 4426 
Q 3488 4103 3488 3541 
Q 3488 3116 3236 2842 
Q 2984 2569 2516 2484 
z
" transform="scale(0.015625)"/>
       </defs>
       <use xlink:href="#DejaVuSerif-38"/>
       <use xlink:href="#DejaVuSerif-30" transform="translate(63.623047 0)"/>
      </g>
     </g>
    </g>
    <g id="ytick_6">
     <g id="line2d_29">
      <path d="M 49.842188 132.38358 
L 504.307187 132.38358 
" clip-path="url(#p2697a73ab4)" style="fill: none; stroke-dasharray: 2.96,1.28; stroke-dashoffset: 0; stroke: #b0b0b0; stroke-opacity: 0.25; stroke-width: 0.8"/>
     </g>
     <g id="line2d_30">
      <g>
       <use xlink:href="#m01c38294bd" x="49.842188" y="132.38358" style="stroke: #000000; stroke-width: 0.8"/>
      </g>
     </g>
     <g id="text_16">
      <!-- 100 -->
      <g transform="translate(21.845938 136.56272) scale(0.11 -0.11)">
       <use xlink:href="#DejaVuSerif-31"/>
       <use xlink:href="#DejaVuSerif-30" transform="translate(63.623047 0)"/>
       <use xlink:href="#DejaVuSerif-30" transform="translate(127.246094 0)"/>
      </g>
     </g>
    </g>
    <g id="ytick_7">
     <g id="line2d_31">
      <path d="M 49.842188 85.547216 
L 504.307187 85.547216 
" clip-path="url(#p2697a73ab4)" style="fill: none; stroke-dasharray: 2.96,1.28; stroke-dashoffset: 0; stroke: #b0b0b0; stroke-opacity: 0.25; stroke-width: 0.8"/>
     </g>
     <g id="line2d_32">
      <g>
       <use xlink:href="#m01c38294bd" x="49.842188" y="85.547216" style="stroke: #000000; stroke-width: 0.8"/>
      </g>
     </g>
     <g id="text_17">
      <!-- 120 -->
      <g transform="translate(21.845938 89.726357) scale(0.11 -0.11)">
       <use xlink:href="#DejaVuSerif-31"/>
       <use xlink:href="#DejaVuSerif-32" transform="translate(63.623047 0)"/>
       <use xlink:href="#DejaVuSerif-30" transform="translate(127.246094 0)"/>
      </g>
     </g>
    </g>
    <g id="ytick_8">
     <g id="line2d_33">
      <path d="M 49.842188 38.710852 
L 504.307187 38.710852 
" clip-path="url(#p2697a73ab4)" style="fill: none; stroke-dasharray: 2.96,1.28; stroke-dashoffset: 0; stroke: #b0b0b0; stroke-opacity: 0.25; stroke-width: 0.8"/>
     </g>
     <g id="line2d_34">
      <g>
       <use xlink:href="#m01c38294bd" x="49.842188" y="38.710852" style="stroke: #000000; stroke-width: 0.8"/>
      </g>
     </g>
     <g id="text_18">
      <!-- 140 -->
      <g transform="translate(21.845938 42.889993) scale(0.11 -0.11)">
       <use xlink:href="#DejaVuSerif-31"/>
       <use xlink:href="#DejaVuSerif-34" transform="translate(63.623047 0)"/>
       <use xlink:href="#DejaVuSerif-30" transform="translate(127.246094 0)"/>
      </g>
     </g>
    </g>
    <g id="text_19">
     <!-- Cumulative failures -->
     <g transform="translate(15.558281 257.347656) rotate(-90) scale(0.11 -0.11)">
      <defs>
       <path id="DejaVuSerif-66" d="M 2753 4078 
L 2450 4078 
Q 2447 4313 2317 4434 
Q 2188 4556 1941 4556 
Q 1619 4556 1487 4379 
Q 1356 4203 1356 3750 
L 1356 3322 
L 2284 3322 
L 2284 2988 
L 1356 2988 
L 1356 331 
L 2094 331 
L 2094 0 
L 231 0 
L 231 331 
L 781 331 
L 781 2988 
L 231 2988 
L 231 3322 
L 781 3322 
L 781 3738 
Q 781 4294 1070 4578 
Q 1359 4863 1919 4863 
Q 2128 4863 2337 4825 
Q 2547 4788 2753 4709 
L 2753 4078 
z
" transform="scale(0.015625)"/>
       <path id="DejaVuSerif-72" d="M 3059 3328 
L 3059 2497 
L 2728 2497 
Q 2713 2744 2591 2866 
Q 2469 2988 2234 2988 
Q 1809 2988 1582 2694 
Q 1356 2400 1356 1850 
L 1356 331 
L 2022 331 
L 2022 0 
L 263 0 
L 263 331 
L 781 331 
L 781 2994 
L 231 2994 
L 231 3322 
L 1356 3322 
L 1356 2731 
Q 1525 3078 1790 3245 
Q 2056 3413 2438 3413 
Q 2578 3413 2733 3391 
Q 2888 3369 3059 3328 
z
" transform="scale(0.015625)"/>
      </defs>
      <use xlink:href="#DejaVuSerif-43"/>
      <use xlink:href="#DejaVuSerif-75" transform="translate(76.513672 0)"/>
      <use xlink:href="#DejaVuSerif-6d" transform="translate(140.917969 0)"/>
      <use xlink:href="#DejaVuSerif-75" transform="translate(235.742188 0)"/>
      <use xlink:href="#DejaVuSerif-6c" transform="translate(300.146484 0)"/>
      <use xlink:href="#DejaVuSerif-61" transform="translate(332.128906 0)"/>
      <use xlink:href="#DejaVuSerif-74" transform="translate(391.748047 0)"/>
      <use xlink:href="#DejaVuSerif-69" transform="translate(431.933594 0)"/>
      <use xlink:href="#DejaVuSerif-76" transform="translate(463.916016 0)"/>
      <use xlink:href="#DejaVuSerif-65" transform="translate(520.410156 0)"/>
      <use xlink:href="#DejaVuSerif-20" transform="translate(579.589844 0)"/>
      <use xlink:href="#DejaVuSerif-66" transform="translate(611.376953 0)"/>
      <use xlink:href="#DejaVuSerif-61" transform="translate(648.388672 0)"/>
      <use xlink:href="#DejaVuSerif-69" transform="translate(708.007812 0)"/>
      <use xlink:href="#DejaVuSerif-6c" transform="translate(739.990234 0)"/>
      <use xlink:href="#DejaVuSerif-75" transform="translate(771.972656 0)"/>
      <use xlink:href="#DejaVuSerif-72" transform="translate(836.376953 0)"/>
      <use xlink:href="#DejaVuSerif-65" transform="translate(884.179688 0)"/>
      <use xlink:href="#DejaVuSerif-73" transform="translate(943.359375 0)"/>
     </g>
    </g>
   </g>
   <g id="line2d_35">
    <path d="M 70.557691 366.565398 
L 75.524886 366.565398 
L 77.992887 359.539943 
L 78.814801 359.539943 
L 80.465695 354.856307 
L 84.533896 354.856307 
L 85.364265 352.514489 
L 87.831009 352.514489 
L 88.652603 350.17267 
L 91.136514 350.17267 
L 91.962983 347.830852 
L 92.787111 347.830852 
L 93.611859 345.489034 
L 96.078183 345.489034 
L 96.898426 343.147216 
L 97.716469 343.147216 
L 101.828436 331.438125 
L 104.296595 331.438125 
L 105.118229 329.096307 
L 107.583896 329.096307 
L 108.406474 326.754489 
L 110.876848 326.754489 
L 111.698636 324.41267 
L 114.17885 324.41267 
L 115.007714 322.070852 
L 116.657345 322.070852 
L 117.485071 319.729034 
L 122.446052 319.729034 
L 123.273479 317.387216 
L 125.748957 317.387216 
L 126.573391 315.045398 
L 127.400051 315.045398 
L 130.704327 305.678125 
L 132.357417 305.678125 
L 134.012101 300.994489 
L 138.142058 300.994489 
L 139.801633 296.310852 
L 142.28022 296.310852 
L 143.108103 293.969034 
L 144.759009 293.969034 
L 145.591716 291.627216 
L 151.386396 291.627216 
L 152.216386 289.285398 
L 154.692707 289.285398 
L 155.521199 286.94358 
L 157.997835 286.94358 
L 158.823744 284.601761 
L 160.452764 284.601761 
L 161.278033 282.259943 
L 164.589521 282.259943 
L 166.246852 277.576307 
L 167.894075 277.576307 
L 169.54358 272.89267 
L 175.320548 272.89267 
L 176.144515 270.550852 
L 181.91283 270.550852 
L 182.735713 268.209034 
L 184.390439 268.209034 
L 186.867262 261.18358 
L 191.812285 261.18358 
L 193.464236 256.499943 
L 199.192547 256.499943 
L 200.010779 254.158125 
L 206.6208 254.158125 
L 207.447761 251.816307 
L 209.097826 251.816307 
L 210.743946 247.13267 
L 216.513439 247.13267 
L 217.342802 244.790852 
L 218.172407 244.790852 
L 218.995366 242.449034 
L 223.133131 242.449034 
L 225.62005 235.42358 
L 228.093764 235.42358 
L 230.566612 228.398125 
L 235.507622 228.398125 
L 236.329502 226.056307 
L 237.984507 226.056307 
L 238.807713 223.714489 
L 247.049101 223.714489 
L 247.873444 221.37267 
L 251.99707 221.37267 
L 252.82127 219.030852 
L 256.119868 219.030852 
L 257.774519 214.347216 
L 259.424539 214.347216 
L 260.24618 212.005398 
L 261.079383 212.005398 
L 261.903789 209.66358 
L 263.559554 209.66358 
L 265.216397 204.979943 
L 266.03875 204.979943 
L 266.869263 202.638125 
L 268.500645 202.638125 
L 269.325957 200.296307 
L 270.147447 200.296307 
L 270.979015 197.954489 
L 280.896704 197.954489 
L 281.725778 195.61267 
L 285.031055 195.61267 
L 285.854021 193.270852 
L 294.945401 193.270852 
L 299.077755 181.561761 
L 308.98694 181.561761 
L 309.812462 179.219943 
L 314.763779 179.219943 
L 317.241182 172.194489 
L 323.8547 172.194489 
L 324.682018 169.85267 
L 328.823771 169.85267 
L 329.654607 167.510852 
L 333.790404 167.510852 
L 334.617981 165.169034 
L 336.273031 165.169034 
L 337.103656 162.827216 
L 343.709077 162.827216 
L 344.538306 160.485398 
L 346.198257 160.485398 
L 347.025811 158.14358 
L 349.511078 158.14358 
L 350.338277 155.801761 
L 351.164519 155.801761 
L 351.993377 153.459943 
L 361.051927 153.459943 
L 362.703983 148.776307 
L 364.354653 148.776307 
L 365.178105 146.434489 
L 366.00304 146.434489 
L 366.832464 144.09267 
L 367.655899 144.09267 
L 368.485182 141.750852 
L 373.443369 141.750852 
L 375.929324 134.725398 
L 379.236874 134.725398 
L 380.880141 130.041761 
L 383.37099 130.041761 
L 384.194267 127.699943 
L 385.846518 127.699943 
L 386.669944 125.358125 
L 388.329443 125.358125 
L 389.971984 120.674489 
L 392.44122 120.674489 
L 393.271221 118.33267 
L 394.916571 118.33267 
L 397.397424 111.307216 
L 398.22726 111.307216 
L 399.055052 108.965398 
L 399.887942 108.965398 
L 400.719254 106.62358 
L 401.546011 106.62358 
L 402.374731 104.281761 
L 404.854 104.281761 
L 405.68241 101.939943 
L 406.509823 101.939943 
L 407.33424 99.598125 
L 410.634881 99.598125 
L 411.458354 97.256307 
L 415.593083 97.256307 
L 418.076173 90.230852 
L 418.900991 90.230852 
L 419.724929 87.889034 
L 423.858874 87.889034 
L 424.685406 85.547216 
L 434.595414 85.547216 
L 436.245564 80.86358 
L 437.898258 80.86358 
L 439.545887 76.179943 
L 443.661149 76.179943 
L 444.484957 73.838125 
L 446.956517 73.838125 
L 448.608013 69.154489 
L 451.082791 69.154489 
L 451.908832 66.81267 
L 453.559704 66.81267 
L 454.384279 64.470852 
L 460.153542 64.470852 
L 462.626168 57.445398 
L 465.107146 57.445398 
L 466.761259 52.761761 
L 467.588217 52.761761 
L 468.419194 50.419943 
L 470.07443 50.419943 
L 470.904405 48.078125 
L 473.38054 48.078125 
L 474.205635 45.736307 
L 475.032921 45.736307 
L 475.859637 43.394489 
L 477.504901 43.394489 
L 479.165713 38.710852 
L 482.480462 38.710852 
L 482.480462 38.710852 
" clip-path="url(#p2697a73ab4)" style="fill: none; stroke: #daa520; stroke-width: 1.6; stroke-linecap: square"/>
   </g>
   <g id="line2d_36">
    <path d="M 70.499687 364.22358 
L 71.315446 361.881761 
L 72.129796 361.881761 
L 72.943132 359.539943 
L 75.432599 359.539943 
L 76.257512 357.198125 
L 81.220548 357.198125 
L 82.052484 354.856307 
L 84.543123 354.856307 
L 85.377539 352.514489 
L 87.871485 352.514489 
L 88.700775 350.17267 
L 90.364306 350.17267 
L 92.855908 343.147216 
L 98.671865 343.147216 
L 101.175729 336.121761 
L 102.010788 336.121761 
L 102.845147 333.779943 
L 106.996221 333.779943 
L 107.829066 331.438125 
L 111.149585 331.438125 
L 111.985862 329.096307 
L 115.31151 329.096307 
L 116.137349 326.754489 
L 120.295602 326.754489 
L 122.789338 319.729034 
L 123.619286 319.729034 
L 124.449233 317.387216 
L 126.930916 317.387216 
L 127.762726 315.045398 
L 132.757022 315.045398 
L 133.578158 312.70358 
L 134.408678 312.70358 
L 135.240476 310.361761 
L 140.231375 310.361761 
L 141.058251 308.019943 
L 143.557976 308.019943 
L 144.391464 305.678125 
L 146.048303 305.678125 
L 146.881625 303.336307 
L 152.700438 303.336307 
L 155.194709 296.310852 
L 156.865015 296.310852 
L 157.697204 293.969034 
L 158.524288 293.969034 
L 159.356497 291.627216 
L 161.011074 291.627216 
L 163.50278 284.601761 
L 165.163951 284.601761 
L 165.988626 282.259943 
L 166.818994 282.259943 
L 167.649591 279.918125 
L 168.474058 279.918125 
L 169.305333 277.576307 
L 173.455103 277.576307 
L 175.121958 272.89267 
L 180.103943 272.89267 
L 180.932062 270.550852 
L 181.765771 270.550852 
L 183.422135 265.867216 
L 186.739689 265.867216 
L 187.573588 263.525398 
L 189.234459 263.525398 
L 190.061932 261.18358 
L 192.567301 261.18358 
L 194.235611 256.499943 
L 202.535814 256.499943 
L 203.359579 254.158125 
L 205.014418 254.158125 
L 205.843929 251.816307 
L 206.678261 251.816307 
L 207.506611 249.474489 
L 210.008307 249.474489 
L 210.83927 247.13267 
L 214.162489 247.13267 
L 214.991974 244.790852 
L 216.659207 244.790852 
L 218.319711 240.107216 
L 221.645094 240.107216 
L 223.307194 235.42358 
L 224.139175 235.42358 
L 224.969783 233.081761 
L 233.296911 233.081761 
L 234.128495 230.739943 
L 234.958248 230.739943 
L 235.791417 228.398125 
L 240.777943 228.398125 
L 241.603678 226.056307 
L 250.688062 226.056307 
L 251.519924 223.714489 
L 254.017213 223.714489 
L 254.840684 221.37267 
L 255.671256 221.37267 
L 256.503035 219.030852 
L 264.791037 219.030852 
L 266.451969 214.347216 
L 269.768687 214.347216 
L 270.600269 212.005398 
L 282.205515 212.005398 
L 283.039604 209.66358 
L 287.179424 209.66358 
L 288.00887 207.321761 
L 289.663863 207.321761 
L 290.496665 204.979943 
L 304.511092 204.979943 
L 306.158488 200.296307 
L 306.978812 200.296307 
L 307.802267 197.954489 
L 309.450908 197.954489 
L 310.276121 195.61267 
L 312.756304 195.61267 
L 313.578447 193.270852 
L 314.40061 193.270852 
L 316.043003 188.587216 
L 317.689542 188.587216 
L 318.507852 186.245398 
L 320.97298 186.245398 
L 321.799413 183.90358 
L 327.566867 183.90358 
L 328.390854 181.561761 
L 330.038059 181.561761 
L 330.863263 179.219943 
L 339.099922 179.219943 
L 339.926239 176.878125 
L 342.40083 176.878125 
L 343.224488 174.536307 
L 344.048209 174.536307 
L 345.69458 169.85267 
L 349.815323 169.85267 
L 350.640211 167.510852 
L 352.288959 167.510852 
L 353.113272 165.169034 
L 355.588151 165.169034 
L 356.410954 162.827216 
L 363.001279 162.827216 
L 364.653228 158.14358 
L 365.481735 158.14358 
L 368.786219 148.776307 
L 371.258639 148.776307 
L 372.085735 146.434489 
L 372.91165 146.434489 
L 374.56063 141.750852 
L 384.444886 141.750852 
L 385.269342 139.409034 
L 387.744969 139.409034 
L 388.565726 137.067216 
L 391.046927 137.067216 
L 391.872745 134.725398 
L 399.305193 134.725398 
L 400.131213 132.38358 
L 409.985255 132.38358 
L 410.808468 130.041761 
L 419.05649 130.041761 
L 419.873248 127.699943 
L 420.683538 127.699943 
L 421.501563 125.358125 
L 422.331976 125.358125 
L 423.982061 120.674489 
L 424.804321 120.674489 
L 425.629948 118.33267 
L 426.453843 118.33267 
L 427.27679 115.990852 
L 428.101674 115.990852 
L 428.925698 113.649034 
L 430.57738 113.649034 
L 433.056102 106.62358 
L 434.708977 106.62358 
L 435.532758 104.281761 
L 439.655913 104.281761 
L 440.48364 101.939943 
L 443.796774 101.939943 
L 444.622626 99.598125 
L 451.22466 99.598125 
L 452.060128 97.256307 
L 458.68562 97.256307 
L 460.351358 92.57267 
L 464.508393 92.57267 
L 465.340574 90.230852 
L 467.837215 90.230852 
L 468.665548 87.889034 
L 470.336042 87.889034 
L 471.163544 85.547216 
L 474.492246 85.547216 
L 475.327722 83.205398 
L 483.649687 83.205398 
L 483.649687 83.205398 
" clip-path="url(#p2697a73ab4)" style="fill: none; stroke: #3357a6; stroke-width: 1.6; stroke-linecap: square"/>
   </g>
   <g id="patch_3">
    <path d="M 49.842188 382.958125 
L 49.842188 22.318125 
" style="fill: none; stroke: #000000; stroke-width: 0.8; stroke-linejoin: miter; stroke-linecap: square"/>
   </g>
   <g id="patch_4">
    <path d="M 49.842188 382.958125 
L 504.307187 382.958125 
" style="fill: none; stroke: #000000; stroke-width: 0.8; stroke-linejoin: miter; stroke-linecap: square"/>
   </g>
   <g id="text_20">
    <!-- PETS–Pendulum — CF vs Time -->
    <g transform="translate(183.171875 16.318125) scale(0.12 -0.12)">
     <defs>
      <path id="DejaVuSerif-50" d="M 1581 2375 
L 2406 2375 
Q 2872 2375 3115 2626 
Q 3359 2878 3359 3353 
Q 3359 3831 3115 4081 
Q 2872 4331 2406 4331 
L 1581 4331 
L 1581 2375 
z
M 353 0 
L 353 331 
L 947 331 
L 947 4331 
L 353 4331 
L 353 4666 
L 2559 4666 
Q 3259 4666 3668 4311 
Q 4078 3956 4078 3353 
Q 4078 2753 3668 2397 
Q 3259 2041 2559 2041 
L 1581 2041 
L 1581 331 
L 2303 331 
L 2303 0 
L 353 0 
z
" transform="scale(0.015625)"/>
      <path id="DejaVuSerif-45" d="M 353 0 
L 353 331 
L 947 331 
L 947 4331 
L 353 4331 
L 353 4666 
L 4109 4666 
L 4109 3628 
L 3725 3628 
L 3725 4281 
L 1581 4281 
L 1581 2719 
L 3109 2719 
L 3109 3303 
L 3494 3303 
L 3494 1753 
L 3109 1753 
L 3109 2338 
L 1581 2338 
L 1581 384 
L 3775 384 
L 3775 1038 
L 4159 1038 
L 4159 0 
L 353 0 
z
" transform="scale(0.015625)"/>
      <path id="DejaVuSerif-54" d="M 1222 0 
L 1222 331 
L 1819 331 
L 1819 4294 
L 447 4294 
L 447 3566 
L 63 3566 
L 63 4666 
L 4206 4666 
L 4206 3566 
L 3822 3566 
L 3822 4294 
L 2450 4294 
L 2450 331 
L 3047 331 
L 3047 0 
L 1222 0 
z
" transform="scale(0.015625)"/>
      <path id="DejaVuSerif-53" d="M 594 225 
L 594 1288 
L 953 1284 
Q 969 753 1261 498 
Q 1553 244 2150 244 
Q 2706 244 2998 464 
Q 3291 684 3291 1106 
Q 3291 1444 3114 1625 
Q 2938 1806 2369 1978 
L 1753 2163 
Q 1084 2366 811 2669 
Q 538 2972 538 3500 
Q 538 4094 959 4422 
Q 1381 4750 2144 4750 
Q 2469 4750 2856 4679 
Q 3244 4609 3681 4475 
L 3681 3481 
L 3328 3481 
Q 3275 3975 2998 4195 
Q 2722 4416 2156 4416 
Q 1663 4416 1405 4214 
Q 1147 4013 1147 3628 
Q 1147 3294 1340 3103 
Q 1534 2913 2163 2725 
L 2741 2553 
Q 3375 2363 3645 2067 
Q 3916 1772 3916 1275 
Q 3916 597 3481 253 
Q 3047 -91 2188 -91 
Q 1803 -91 1404 -12 
Q 1006 66 594 225 
z
" transform="scale(0.015625)"/>
      <path id="DejaVuSerif-2013" d="M 281 1906 
L 2919 1906 
L 2919 1491 
L 281 1491 
L 281 1906 
z
" transform="scale(0.015625)"/>
      <path id="DejaVuSerif-6e" d="M 263 0 
L 263 331 
L 781 331 
L 781 2988 
L 231 2988 
L 231 3322 
L 1356 3322 
L 1356 2731 
Q 1516 3069 1770 3241 
Q 2025 3413 2363 3413 
Q 2913 3413 3172 3097 
Q 3431 2781 3431 2113 
L 3431 331 
L 3944 331 
L 3944 0 
L 2356 0 
L 2356 331 
L 2853 331 
L 2853 1931 
Q 2853 2541 2703 2767 
Q 2553 2994 2175 2994 
Q 1775 2994 1565 2701 
Q 1356 2409 1356 1850 
L 1356 331 
L 1856 331 
L 1856 0 
L 263 0 
z
" transform="scale(0.015625)"/>
      <path id="DejaVuSerif-64" d="M 3359 331 
L 3909 331 
L 3909 0 
L 2784 0 
L 2784 519 
Q 2616 206 2355 57 
Q 2094 -91 1709 -91 
Q 1097 -91 708 395 
Q 319 881 319 1663 
Q 319 2444 706 2928 
Q 1094 3413 1709 3413 
Q 2094 3413 2355 3264 
Q 2616 3116 2784 2803 
L 2784 4531 
L 2241 4531 
L 2241 4863 
L 3359 4863 
L 3359 331 
z
M 2784 1497 
L 2784 1825 
Q 2784 2422 2554 2737 
Q 2325 3053 1888 3053 
Q 1444 3053 1217 2703 
Q 991 2353 991 1663 
Q 991 975 1217 622 
Q 1444 269 1888 269 
Q 2325 269 2554 583 
Q 2784 897 2784 1497 
z
" transform="scale(0.015625)"/>
      <path id="DejaVuSerif-2014" d="M 281 1906 
L 6119 1906 
L 6119 1491 
L 281 1491 
L 281 1906 
z
" transform="scale(0.015625)"/>
      <path id="DejaVuSerif-46" d="M 353 0 
L 353 331 
L 947 331 
L 947 4331 
L 353 4331 
L 353 4666 
L 4172 4666 
L 4172 3628 
L 3788 3628 
L 3788 4281 
L 1581 4281 
L 1581 2719 
L 3175 2719 
L 3175 3303 
L 3559 3303 
L 3559 1753 
L 3175 1753 
L 3175 2338 
L 1581 2338 
L 1581 331 
L 2328 331 
L 2328 0 
L 353 0 
z
" transform="scale(0.015625)"/>
     </defs>
     <use xlink:href="#DejaVuSerif-50"/>
     <use xlink:href="#DejaVuSerif-45" transform="translate(67.285156 0)"/>
     <use xlink:href="#DejaVuSerif-54" transform="translate(140.283203 0)"/>
     <use xlink:href="#DejaVuSerif-53" transform="translate(206.982422 0)"/>
     <use xlink:href="#DejaVuSerif-2013" transform="translate(275.488281 0)"/>
     <use xlink:href="#DejaVuSerif-50" transform="translate(325.488281 0)"/>
     <use xlink:href="#DejaVuSerif-65" transform="translate(388.273438 0)"/>
     <use xlink:href="#DejaVuSerif-6e" transform="translate(447.453125 0)"/>
     <use xlink:href="#DejaVuSerif-64" transform="translate(511.857422 0)"/>
     <use xlink:href="#DejaVuSerif-75" transform="translate(575.871094 0)"/>
     <use xlink:href="#DejaVuSerif-6c" transform="translate(640.275391 0)"/>
     <use xlink:href="#DejaVuSerif-75" transform="translate(672.257812 0)"/>
     <use xlink:href="#DejaVuSerif-6d" transform="translate(736.662109 0)"/>
     <use xlink:href="#DejaVuSerif-20" transform="translate(831.486328 0)"/>
     <use xlink:href="#DejaVuSerif-2014" transform="translate(863.273438 0)"/>
     <use xlink:href="#DejaVuSerif-20" transform="translate(963.273438 0)"/>
     <use xlink:href="#DejaVuSerif-43" transform="translate(995.060547 0)"/>
     <use xlink:href="#DejaVuSerif-46" transform="translate(1071.574219 0)"/>
     <use xlink:href="#DejaVuSerif-20" transform="translate(1140.958984 0)"/>
     <use xlink:href="#DejaVuSerif-76" transform="translate(1172.746094 0)"/>
     <use xlink:href="#DejaVuSerif-73" transform="translate(1229.240234 0)"/>
     <use xlink:href="#DejaVuSerif-20" transform="translate(1280.558594 0)"/>
     <use xlink:href="#DejaVuSerif-54" transform="translate(1312.345703 0)"/>
     <use xlink:href="#DejaVuSerif-69" transform="translate(1379.044922 0)"/>
     <use xlink:href="#DejaVuSerif-6d" transform="translate(1411.027344 0)"/>
     <use xlink:href="#DejaVuSerif-65" transform="translate(1505.851562 0)"/>
    </g>
   </g>
   <g id="legend_1">
    <g id="line2d_37">
     <path d="M 512.407187 201.971562 
L 521.407187 201.971562 
L 530.407187 201.971562 
" style="fill: none; stroke: #daa520; stroke-width: 1.6; stroke-linecap: square"/>
    </g>
    <g id="text_21">
     <!-- FS (F=140) -->
     <g transform="translate(537.607188 205.121562) scale(0.09 -0.09)">
      <defs>
       <path id="DejaVuSerif-3d" d="M 678 2894 
L 4684 2894 
L 4684 2394 
L 678 2394 
L 678 2894 
z
M 678 1619 
L 4684 1619 
L 4684 1119 
L 678 1119 
L 678 1619 
z
" transform="scale(0.015625)"/>
      </defs>
      <use xlink:href="#DejaVuSerif-46"/>
      <use xlink:href="#DejaVuSerif-53" transform="translate(69.384766 0)"/>
      <use xlink:href="#DejaVuSerif-20" transform="translate(137.890625 0)"/>
      <use xlink:href="#DejaVuSerif-28" transform="translate(169.677734 0)"/>
      <use xlink:href="#DejaVuSerif-46" transform="translate(208.691406 0)"/>
      <use xlink:href="#DejaVuSerif-3d" transform="translate(278.076172 0)"/>
      <use xlink:href="#DejaVuSerif-31" transform="translate(361.865234 0)"/>
      <use xlink:href="#DejaVuSerif-34" transform="translate(425.488281 0)"/>
      <use xlink:href="#DejaVuSerif-30" transform="translate(489.111328 0)"/>
      <use xlink:href="#DejaVuSerif-29" transform="translate(552.734375 0)"/>
     </g>
    </g>
    <g id="line2d_38">
     <path d="M 608.866094 201.971562 
L 617.866094 201.971562 
L 626.866094 201.971562 
" style="fill: none; stroke: #3357a6; stroke-width: 1.6; stroke-linecap: square"/>
    </g>
    <g id="text_22">
     <!-- μPRL (F=121) -->
     <g transform="translate(634.066094 205.121562) scale(0.09 -0.09)">
      <defs>
       <path id="DejaVuSerif-3bc" d="M 2309 3322 
L 3384 3322 
L 3384 325 
L 3928 325 
L 3928 0 
L 2809 0 
L 2809 588 
Q 2647 256 2417 82 
Q 2188 -91 1906 -91 
Q 1728 -91 1581 -34 
Q 1434 22 1313 134 
L 1313 -1331 
L 738 -1331 
L 738 2988 
L 219 2988 
L 219 3322 
L 1313 3322 
L 1313 1388 
Q 1313 781 1463 556 
Q 1613 331 1991 331 
Q 2391 331 2600 625 
Q 2809 919 2809 1478 
L 2809 2988 
L 2309 2988 
L 2309 3322 
z
" transform="scale(0.015625)"/>
       <path id="DejaVuSerif-52" d="M 3066 2316 
Q 3284 2256 3442 2114 
Q 3600 1972 3725 1716 
L 4403 331 
L 4972 331 
L 4972 0 
L 3872 0 
L 3144 1484 
Q 2934 1916 2759 2042 
Q 2584 2169 2278 2169 
L 1581 2169 
L 1581 331 
L 2241 331 
L 2241 0 
L 353 0 
L 353 331 
L 947 331 
L 947 4331 
L 353 4331 
L 353 4666 
L 2719 4666 
Q 3400 4666 3770 4341 
Q 4141 4016 4141 3419 
Q 4141 2938 3870 2661 
Q 3600 2384 3066 2316 
z
M 1581 2503 
L 2503 2503 
Q 2975 2503 3200 2726 
Q 3425 2950 3425 3419 
Q 3425 3888 3200 4109 
Q 2975 4331 2503 4331 
L 1581 4331 
L 1581 2503 
z
" transform="scale(0.015625)"/>
       <path id="DejaVuSerif-4c" d="M 353 0 
L 353 331 
L 947 331 
L 947 4331 
L 353 4331 
L 353 4666 
L 2175 4666 
L 2175 4331 
L 1581 4331 
L 1581 384 
L 3713 384 
L 3713 1166 
L 4097 1166 
L 4097 0 
L 353 0 
z
" transform="scale(0.015625)"/>
      </defs>
      <use xlink:href="#DejaVuSerif-3bc"/>
      <use xlink:href="#DejaVuSerif-50" transform="translate(64.990234 0)"/>
      <use xlink:href="#DejaVuSerif-52" transform="translate(132.275391 0)"/>
      <use xlink:href="#DejaVuSerif-4c" transform="translate(207.568359 0)"/>
      <use xlink:href="#DejaVuSerif-20" transform="translate(273.974609 0)"/>
      <use xlink:href="#DejaVuSerif-28" transform="translate(305.761719 0)"/>
      <use xlink:href="#DejaVuSerif-46" transform="translate(344.775391 0)"/>
      <use xlink:href="#DejaVuSerif-3d" transform="translate(414.160156 0)"/>
      <use xlink:href="#DejaVuSerif-31" transform="translate(497.949219 0)"/>
      <use xlink:href="#DejaVuSerif-32" transform="translate(561.572266 0)"/>
      <use xlink:href="#DejaVuSerif-31" transform="translate(625.195312 0)"/>
      <use xlink:href="#DejaVuSerif-29" transform="translate(688.818359 0)"/>
     </g>
    </g>
   </g>
  </g>
 </g>
 <defs>
  <clipPath id="p2697a73ab4">
   <rect x="49.842188" y="22.318125" width="454.465" height="360.64"/>
  </clipPath>
 </defs>
</svg>
