<?xml version="1.0" encoding="utf-8" standalone="no"?>
<!DOCTYPE svg PUBLIC "-//W3C//DTD SVG 1.1//EN"
  "http://www.w3.org/Graphics/SVG/1.1/DTD/svg11.dtd">
<svg xmlns:xlink="http://www.w3.org/1999/xlink" width="744.811875pt" height="361.245469pt" viewBox="0 0 744.811875 361.245469" xmlns="http://www.w3.org/2000/svg" version="1.1">
 <metadata>
  <rdf:RDF xmlns:dc="http://purl.org/dc/elements/1.1/" xmlns:cc="http://creativecommons.org/ns#" xmlns:rdf="http://www.w3.org/1999/02/22-rdf-syntax-ns#">
   <cc:Work>
    <dc:type rdf:resource="http://purl.org/dc/dcmitype/StillImage"/>
    <dc:date>2026-02-08T07:46:59.965455</dc:date>
    <dc:format>image/svg+xml</dc:format>
    <dc:creator>
     <cc:Agent>
      <dc:title>Matplotlib v3.10.0, https://matplotlib.org/</dc:title>
     </cc:Agent>
    </dc:creator>
   </cc:Work>
  </rdf:RDF>
 </metadata>
 <defs>
  <style type="text/css">*{stroke-linejoin: round; stroke-linecap: butt}</style>
 </defs>
 <g id="figure_1">
  <g id="patch_1">
   <path d="M 0 361.245469 
L 744.811875 361.245469 
L 744.811875 0 
L 0 0 
z
" style="fill: #ffffff"/>
  </g>
  <g id="axes_1">
   <g id="patch_2">
    <path d="M 60.35375 319.817969 
L 389.04375 319.817969 
L 389.04375 23.077969 
L 60.35375 23.077969 
z
" style="fill: #ffffff"/>
   </g>
   <g id="matplotlib.axis_1">
    <g id="xtick_1">
     <g id="line2d_1">
      <path d="M 75.294197 319.817969 
L 75.294197 23.077969 
" clip-path="url(#pe8a6abf942)" style="fill: none; stroke-dasharray: 2.96,1.28; stroke-dashoffset: 0; stroke: #b0b0b0; stroke-opacity: 0.25; stroke-width: 0.8"/>
     </g>
     <g id="line2d_2">
      <defs>
       <path id="m4ce3bdc432" d="M 0 0 
L 0 3.5 
" style="stroke: #000000; stroke-width: 0.8"/>
      </defs>
      <g>
       <use xlink:href="#m4ce3bdc432" x="75.294197" y="319.817969" style="stroke: #000000; stroke-width: 0.8"/>
      </g>
     </g>
     <g id="text_1">
      <!-- 0 -->
      <g transform="translate(71.476697 335.936094) scale(0.12 -0.12)">
       <defs>
        <path id="DejaVuSerif-30" d="M 2034 219 
Q 2513 219 2750 744 
Q 2988 1269 2988 2328 
Q 2988 3391 2750 3916 
Q 2513 4441 2034 4441 
Q 1556 4441 1318 3916 
Q 1081 3391 1081 2328 
Q 1081 1269 1318 744 
Q 1556 219 2034 219 
z
M 2034 -91 
Q 1275 -91 848 546 
Q 422 1184 422 2328 
Q 422 3475 848 4112 
Q 1275 4750 2034 4750 
Q 2797 4750 3222 4112 
Q 3647 3475 3647 2328 
Q 3647 1184 3222 546 
Q 2797 -91 2034 -91 
z
" transform="scale(0.015625)"/>
       </defs>
       <use xlink:href="#DejaVuSerif-30"/>
      </g>
     </g>
    </g>
    <g id="xtick_2">
     <g id="line2d_3">
      <path d="M 146.43922 319.817969 
L 146.43922 23.077969 
" clip-path="url(#pe8a6abf942)" style="fill: none; stroke-dasharray: 2.96,1.28; stroke-dashoffset: 0; stroke: #b0b0b0; stroke-opacity: 0.25; stroke-width: 0.8"/>
     </g>
     <g id="line2d_4">
      <g>
       <use xlink:href="#m4ce3bdc432" x="146.43922" y="319.817969" style="stroke: #000000; stroke-width: 0.8"/>
      </g>
     </g>
     <g id="text_2">
      <!-- 20000 -->
      <g transform="translate(127.35172 335.936094) scale(0.12 -0.12)">
       <defs>
        <path id="DejaVuSerif-32" d="M 819 3553 
L 469 3553 
L 469 4384 
Q 803 4563 1142 4656 
Q 1481 4750 1806 4750 
Q 2534 4750 2956 4397 
Q 3378 4044 3378 3438 
Q 3378 2753 2422 1800 
Q 2347 1728 2309 1691 
L 1131 513 
L 3078 513 
L 3078 1088 
L 3444 1088 
L 3444 0 
L 434 0 
L 434 341 
L 1850 1753 
Q 2319 2222 2519 2614 
Q 2719 3006 2719 3438 
Q 2719 3909 2473 4175 
Q 2228 4441 1797 4441 
Q 1350 4441 1106 4219 
Q 863 3997 819 3553 
z
" transform="scale(0.015625)"/>
       </defs>
       <use xlink:href="#DejaVuSerif-32"/>
       <use xlink:href="#DejaVuSerif-30" transform="translate(63.623047 0)"/>
       <use xlink:href="#DejaVuSerif-30" transform="translate(127.246094 0)"/>
       <use xlink:href="#DejaVuSerif-30" transform="translate(190.869141 0)"/>
       <use xlink:href="#DejaVuSerif-30" transform="translate(254.492188 0)"/>
      </g>
     </g>
    </g>
    <g id="xtick_3">
     <g id="line2d_5">
      <path d="M 217.584244 319.817969 
L 217.584244 23.077969 
" clip-path="url(#pe8a6abf942)" style="fill: none; stroke-dasharray: 2.96,1.28; stroke-dashoffset: 0; stroke: #b0b0b0; stroke-opacity: 0.25; stroke-width: 0.8"/>
     </g>
     <g id="line2d_6">
      <g>
       <use xlink:href="#m4ce3bdc432" x="217.584244" y="319.817969" style="stroke: #000000; stroke-width: 0.8"/>
      </g>
     </g>
     <g id="text_3">
      <!-- 40000 -->
      <g transform="translate(198.496744 335.936094) scale(0.12 -0.12)">
       <defs>
        <path id="DejaVuSerif-34" d="M 2234 1581 
L 2234 4063 
L 641 1581 
L 2234 1581 
z
M 3609 0 
L 1484 0 
L 1484 331 
L 2234 331 
L 2234 1247 
L 197 1247 
L 197 1588 
L 2241 4750 
L 2859 4750 
L 2859 1581 
L 3750 1581 
L 3750 1247 
L 2859 1247 
L 2859 331 
L 3609 331 
L 3609 0 
z
" transform="scale(0.015625)"/>
       </defs>
       <use xlink:href="#DejaVuSerif-34"/>
       <use xlink:href="#DejaVuSerif-30" transform="translate(63.623047 0)"/>
       <use xlink:href="#DejaVuSerif-30" transform="translate(127.246094 0)"/>
       <use xlink:href="#DejaVuSerif-30" transform="translate(190.869141 0)"/>
       <use xlink:href="#DejaVuSerif-30" transform="translate(254.492188 0)"/>
      </g>
     </g>
    </g>
    <g id="xtick_4">
     <g id="line2d_7">
      <path d="M 288.729267 319.817969 
L 288.729267 23.077969 
" clip-path="url(#pe8a6abf942)" style="fill: none; stroke-dasharray: 2.96,1.28; stroke-dashoffset: 0; stroke: #b0b0b0; stroke-opacity: 0.25; stroke-width: 0.8"/>
     </g>
     <g id="line2d_8">
      <g>
       <use xlink:href="#m4ce3bdc432" x="288.729267" y="319.817969" style="stroke: #000000; stroke-width: 0.8"/>
      </g>
     </g>
     <g id="text_4">
      <!-- 60000 -->
      <g transform="translate(269.641767 335.936094) scale(0.12 -0.12)">
       <defs>
        <path id="DejaVuSerif-36" d="M 2094 219 
Q 2534 219 2771 542 
Q 3009 866 3009 1472 
Q 3009 2078 2771 2401 
Q 2534 2725 2094 2725 
Q 1647 2725 1412 2412 
Q 1178 2100 1178 1509 
Q 1178 888 1415 553 
Q 1653 219 2094 219 
z
M 1075 2569 
Q 1288 2803 1556 2918 
Q 1825 3034 2163 3034 
Q 2859 3034 3264 2615 
Q 3669 2197 3669 1472 
Q 3669 763 3233 336 
Q 2797 -91 2069 -91 
Q 1278 -91 853 498 
Q 428 1088 428 2181 
Q 428 3406 931 4078 
Q 1434 4750 2350 4750 
Q 2597 4750 2869 4703 
Q 3141 4656 3425 4563 
L 3425 3794 
L 3072 3794 
Q 3034 4109 2831 4275 
Q 2628 4441 2284 4441 
Q 1678 4441 1381 3981 
Q 1084 3522 1075 2569 
z
" transform="scale(0.015625)"/>
       </defs>
       <use xlink:href="#DejaVuSerif-36"/>
       <use xlink:href="#DejaVuSerif-30" transform="translate(63.623047 0)"/>
       <use xlink:href="#DejaVuSerif-30" transform="translate(127.246094 0)"/>
       <use xlink:href="#DejaVuSerif-30" transform="translate(190.869141 0)"/>
       <use xlink:href="#DejaVuSerif-30" transform="translate(254.492188 0)"/>
      </g>
     </g>
    </g>
    <g id="xtick_5">
     <g id="line2d_9">
      <path d="M 359.874291 319.817969 
L 359.874291 23.077969 
" clip-path="url(#pe8a6abf942)" style="fill: none; stroke-dasharray: 2.96,1.28; stroke-dashoffset: 0; stroke: #b0b0b0; stroke-opacity: 0.25; stroke-width: 0.8"/>
     </g>
     <g id="line2d_10">
      <g>
       <use xlink:href="#m4ce3bdc432" x="359.874291" y="319.817969" style="stroke: #000000; stroke-width: 0.8"/>
      </g>
     </g>
     <g id="text_5">
      <!-- 80000 -->
      <g transform="translate(340.786791 335.936094) scale(0.12 -0.12)">
       <defs>
        <path id="DejaVuSerif-38" d="M 2981 1275 
Q 2981 1775 2732 2051 
Q 2484 2328 2034 2328 
Q 1584 2328 1336 2051 
Q 1088 1775 1088 1275 
Q 1088 772 1336 495 
Q 1584 219 2034 219 
Q 2484 219 2732 495 
Q 2981 772 2981 1275 
z
M 2853 3541 
Q 2853 3966 2637 4203 
Q 2422 4441 2034 4441 
Q 1650 4441 1433 4203 
Q 1216 3966 1216 3541 
Q 1216 3113 1433 2875 
Q 1650 2638 2034 2638 
Q 2422 2638 2637 2875 
Q 2853 3113 2853 3541 
z
M 2516 2484 
Q 3047 2413 3344 2092 
Q 3641 1772 3641 1275 
Q 3641 619 3225 264 
Q 2809 -91 2034 -91 
Q 1263 -91 845 264 
Q 428 619 428 1275 
Q 428 1772 725 2092 
Q 1022 2413 1556 2484 
Q 1084 2569 832 2842 
Q 581 3116 581 3541 
Q 581 4103 968 4426 
Q 1356 4750 2034 4750 
Q 2713 4750 3100 4426 
Q 3488 4103 3488 3541 
Q 3488 3116 3236 2842 
Q 2984 2569 2516 2484 
z
" transform="scale(0.015625)"/>
       </defs>
       <use xlink:href="#DejaVuSerif-38"/>
       <use xlink:href="#DejaVuSerif-30" transform="translate(63.623047 0)"/>
       <use xlink:href="#DejaVuSerif-30" transform="translate(127.246094 0)"/>
       <use xlink:href="#DejaVuSerif-30" transform="translate(190.869141 0)"/>
       <use xlink:href="#DejaVuSerif-30" transform="translate(254.492188 0)"/>
      </g>
     </g>
    </g>
    <g id="text_6">
     <!-- Cumulative time (s) -->
     <g transform="translate(164.775625 351.549844) scale(0.12 -0.12)">
      <defs>
       <path id="DejaVuSerif-43" d="M 4513 1234 
Q 4306 581 3820 245 
Q 3334 -91 2591 -91 
Q 2134 -91 1743 65 
Q 1353 222 1050 525 
Q 700 875 529 1320 
Q 359 1766 359 2328 
Q 359 3416 987 4083 
Q 1616 4750 2644 4750 
Q 3025 4750 3456 4650 
Q 3888 4550 4384 4347 
L 4384 3272 
L 4031 3272 
Q 3916 3859 3567 4137 
Q 3219 4416 2591 4416 
Q 1844 4416 1459 3886 
Q 1075 3356 1075 2328 
Q 1075 1303 1459 773 
Q 1844 244 2591 244 
Q 3113 244 3450 492 
Q 3788 741 3938 1234 
L 4513 1234 
z
" transform="scale(0.015625)"/>
       <path id="DejaVuSerif-75" d="M 2266 3322 
L 3341 3322 
L 3341 331 
L 3884 331 
L 3884 0 
L 2766 0 
L 2766 588 
Q 2606 256 2353 82 
Q 2100 -91 1766 -91 
Q 1213 -91 952 223 
Q 691 538 691 1209 
L 691 2988 
L 172 2988 
L 172 3322 
L 1269 3322 
L 1269 1388 
Q 1269 781 1417 556 
Q 1566 331 1947 331 
Q 2347 331 2556 625 
Q 2766 919 2766 1478 
L 2766 2988 
L 2266 2988 
L 2266 3322 
z
" transform="scale(0.015625)"/>
       <path id="DejaVuSerif-6d" d="M 3316 2675 
Q 3481 3041 3739 3227 
Q 3997 3413 4341 3413 
Q 4863 3413 5119 3089 
Q 5375 2766 5375 2113 
L 5375 331 
L 5894 331 
L 5894 0 
L 4300 0 
L 4300 331 
L 4800 331 
L 4800 2047 
Q 4800 2556 4650 2772 
Q 4500 2988 4153 2988 
Q 3769 2988 3567 2697 
Q 3366 2406 3366 1850 
L 3366 331 
L 3866 331 
L 3866 0 
L 2291 0 
L 2291 331 
L 2791 331 
L 2791 2069 
Q 2791 2566 2641 2777 
Q 2491 2988 2144 2988 
Q 1759 2988 1557 2697 
Q 1356 2406 1356 1850 
L 1356 331 
L 1856 331 
L 1856 0 
L 263 0 
L 263 331 
L 781 331 
L 781 2994 
L 231 2994 
L 231 3322 
L 1356 3322 
L 1356 2731 
Q 1516 3063 1762 3238 
Q 2009 3413 2322 3413 
Q 2709 3413 2968 3220 
Q 3228 3028 3316 2675 
z
" transform="scale(0.015625)"/>
       <path id="DejaVuSerif-6c" d="M 1313 331 
L 1856 331 
L 1856 0 
L 184 0 
L 184 331 
L 738 331 
L 738 4531 
L 184 4531 
L 184 4863 
L 1313 4863 
L 1313 331 
z
" transform="scale(0.015625)"/>
       <path id="DejaVuSerif-61" d="M 2547 1044 
L 2547 1747 
L 1806 1747 
Q 1378 1747 1168 1562 
Q 959 1378 959 997 
Q 959 650 1171 447 
Q 1384 244 1747 244 
Q 2106 244 2326 466 
Q 2547 688 2547 1044 
z
M 3122 2075 
L 3122 331 
L 3634 331 
L 3634 0 
L 2547 0 
L 2547 359 
Q 2356 128 2106 18 
Q 1856 -91 1522 -91 
Q 969 -91 644 203 
Q 319 497 319 997 
Q 319 1513 691 1797 
Q 1063 2081 1741 2081 
L 2547 2081 
L 2547 2309 
Q 2547 2688 2317 2895 
Q 2088 3103 1672 3103 
Q 1328 3103 1125 2947 
Q 922 2791 872 2484 
L 575 2484 
L 575 3156 
Q 875 3284 1158 3348 
Q 1441 3413 1709 3413 
Q 2400 3413 2761 3070 
Q 3122 2728 3122 2075 
z
" transform="scale(0.015625)"/>
       <path id="DejaVuSerif-74" d="M 691 2988 
L 184 2988 
L 184 3322 
L 691 3322 
L 691 4353 
L 1269 4353 
L 1269 3322 
L 2350 3322 
L 2350 2988 
L 1269 2988 
L 1269 878 
Q 1269 456 1350 337 
Q 1431 219 1650 219 
Q 1875 219 1978 351 
Q 2081 484 2088 781 
L 2522 781 
Q 2497 328 2275 118 
Q 2053 -91 1600 -91 
Q 1103 -91 897 129 
Q 691 350 691 878 
L 691 2988 
z
" transform="scale(0.015625)"/>
       <path id="DejaVuSerif-69" d="M 622 4353 
Q 622 4497 726 4603 
Q 831 4709 978 4709 
Q 1122 4709 1226 4603 
Q 1331 4497 1331 4353 
Q 1331 4206 1228 4103 
Q 1125 4000 978 4000 
Q 831 4000 726 4103 
Q 622 4206 622 4353 
z
M 1356 331 
L 1900 331 
L 1900 0 
L 231 0 
L 231 331 
L 781 331 
L 781 2988 
L 231 2988 
L 231 3322 
L 1356 3322 
L 1356 331 
z
" transform="scale(0.015625)"/>
       <path id="DejaVuSerif-76" d="M 1581 0 
L 359 2988 
L -19 2988 
L -19 3322 
L 1509 3322 
L 1509 2988 
L 978 2988 
L 1913 703 
L 2847 2988 
L 2350 2988 
L 2350 3322 
L 3597 3322 
L 3597 2988 
L 3225 2988 
L 2003 0 
L 1581 0 
z
" transform="scale(0.015625)"/>
       <path id="DejaVuSerif-65" d="M 3469 1600 
L 991 1600 
L 991 1575 
Q 991 903 1244 561 
Q 1497 219 1991 219 
Q 2369 219 2611 417 
Q 2853 616 2950 1006 
L 3413 1006 
Q 3275 459 2904 184 
Q 2534 -91 1931 -91 
Q 1203 -91 761 389 
Q 319 869 319 1663 
Q 319 2450 753 2931 
Q 1188 3413 1894 3413 
Q 2647 3413 3050 2948 
Q 3453 2484 3469 1600 
z
M 2791 1931 
Q 2772 2513 2545 2808 
Q 2319 3103 1894 3103 
Q 1497 3103 1269 2806 
Q 1041 2509 991 1931 
L 2791 1931 
z
" transform="scale(0.015625)"/>
       <path id="DejaVuSerif-20" transform="scale(0.015625)"/>
       <path id="DejaVuSerif-28" d="M 2041 -997 
Q 1281 -656 893 83 
Q 506 822 506 1931 
Q 506 3044 893 3783 
Q 1281 4522 2041 4863 
L 2041 4556 
Q 1559 4225 1350 3623 
Q 1141 3022 1141 1931 
Q 1141 844 1350 242 
Q 1559 -359 2041 -691 
L 2041 -997 
z
" transform="scale(0.015625)"/>
       <path id="DejaVuSerif-73" d="M 359 184 
L 359 959 
L 691 959 
Q 703 588 923 403 
Q 1144 219 1575 219 
Q 1963 219 2166 364 
Q 2369 509 2369 788 
Q 2369 1006 2220 1140 
Q 2072 1275 1594 1428 
L 1178 1569 
Q 750 1706 558 1912 
Q 366 2119 366 2438 
Q 366 2894 700 3153 
Q 1034 3413 1625 3413 
Q 1888 3413 2178 3344 
Q 2469 3275 2778 3144 
L 2778 2419 
L 2447 2419 
Q 2434 2741 2221 2922 
Q 2009 3103 1644 3103 
Q 1281 3103 1095 2975 
Q 909 2847 909 2591 
Q 909 2381 1050 2254 
Q 1191 2128 1613 1997 
L 2069 1856 
Q 2541 1709 2748 1489 
Q 2956 1269 2956 922 
Q 2956 450 2595 179 
Q 2234 -91 1600 -91 
Q 1278 -91 972 -22 
Q 666 47 359 184 
z
" transform="scale(0.015625)"/>
       <path id="DejaVuSerif-29" d="M 453 -997 
L 453 -691 
Q 934 -359 1145 242 
Q 1356 844 1356 1931 
Q 1356 3022 1145 3623 
Q 934 4225 453 4556 
L 453 4863 
Q 1216 4522 1603 3783 
Q 1991 3044 1991 1931 
Q 1991 822 1603 83 
Q 1216 -656 453 -997 
z
" transform="scale(0.015625)"/>
      </defs>
      <use xlink:href="#DejaVuSerif-43"/>
      <use xlink:href="#DejaVuSerif-75" transform="translate(76.513672 0)"/>
      <use xlink:href="#DejaVuSerif-6d" transform="translate(140.917969 0)"/>
      <use xlink:href="#DejaVuSerif-75" transform="translate(235.742188 0)"/>
      <use xlink:href="#DejaVuSerif-6c" transform="translate(300.146484 0)"/>
      <use xlink:href="#DejaVuSerif-61" transform="translate(332.128906 0)"/>
      <use xlink:href="#DejaVuSerif-74" transform="translate(391.748047 0)"/>
      <use xlink:href="#DejaVuSerif-69" transform="translate(431.933594 0)"/>
      <use xlink:href="#DejaVuSerif-76" transform="translate(463.916016 0)"/>
      <use xlink:href="#DejaVuSerif-65" transform="translate(520.410156 0)"/>
      <use xlink:href="#DejaVuSerif-20" transform="translate(579.589844 0)"/>
      <use xlink:href="#DejaVuSerif-74" transform="translate(611.376953 0)"/>
      <use xlink:href="#DejaVuSerif-69" transform="translate(651.5625 0)"/>
      <use xlink:href="#DejaVuSerif-6d" transform="translate(683.544922 0)"/>
      <use xlink:href="#DejaVuSerif-65" transform="translate(778.369141 0)"/>
      <use xlink:href="#DejaVuSerif-20" transform="translate(837.548828 0)"/>
      <use xlink:href="#DejaVuSerif-28" transform="translate(869.335938 0)"/>
      <use xlink:href="#DejaVuSerif-73" transform="translate(908.349609 0)"/>
      <use xlink:href="#DejaVuSerif-29" transform="translate(959.667969 0)"/>
     </g>
    </g>
   </g>
   <g id="matplotlib.axis_2">
    <g id="ytick_1">
     <g id="line2d_11">
      <path d="M 60.35375 306.329787 
L 389.04375 306.329787 
" clip-path="url(#pe8a6abf942)" style="fill: none; stroke-dasharray: 2.96,1.28; stroke-dashoffset: 0; stroke: #b0b0b0; stroke-opacity: 0.25; stroke-width: 0.8"/>
     </g>
     <g id="line2d_12">
      <defs>
       <path id="m371de06dc3" d="M 0 0 
L -3.5 0 
" style="stroke: #000000; stroke-width: 0.8"/>
      </defs>
      <g>
       <use xlink:href="#m371de06dc3" x="60.35375" y="306.329787" style="stroke: #000000; stroke-width: 0.8"/>
      </g>
     </g>
     <g id="text_7">
      <!-- 0 -->
      <g transform="translate(45.71875 310.888849) scale(0.12 -0.12)">
       <use xlink:href="#DejaVuSerif-30"/>
      </g>
     </g>
    </g>
    <g id="ytick_2">
     <g id="line2d_13">
      <path d="M 60.35375 258.371807 
L 389.04375 258.371807 
" clip-path="url(#pe8a6abf942)" style="fill: none; stroke-dasharray: 2.96,1.28; stroke-dashoffset: 0; stroke: #b0b0b0; stroke-opacity: 0.25; stroke-width: 0.8"/>
     </g>
     <g id="line2d_14">
      <g>
       <use xlink:href="#m371de06dc3" x="60.35375" y="258.371807" style="stroke: #000000; stroke-width: 0.8"/>
      </g>
     </g>
     <g id="text_8">
      <!-- 200 -->
      <g transform="translate(30.44875 262.93087) scale(0.12 -0.12)">
       <use xlink:href="#DejaVuSerif-32"/>
       <use xlink:href="#DejaVuSerif-30" transform="translate(63.623047 0)"/>
       <use xlink:href="#DejaVuSerif-30" transform="translate(127.246094 0)"/>
      </g>
     </g>
    </g>
    <g id="ytick_3">
     <g id="line2d_15">
      <path d="M 60.35375 210.413827 
L 389.04375 210.413827 
" clip-path="url(#pe8a6abf942)" style="fill: none; stroke-dasharray: 2.96,1.28; stroke-dashoffset: 0; stroke: #b0b0b0; stroke-opacity: 0.25; stroke-width: 0.8"/>
     </g>
     <g id="line2d_16">
      <g>
       <use xlink:href="#m371de06dc3" x="60.35375" y="210.413827" style="stroke: #000000; stroke-width: 0.8"/>
      </g>
     </g>
     <g id="text_9">
      <!-- 400 -->
      <g transform="translate(30.44875 214.97289) scale(0.12 -0.12)">
       <use xlink:href="#DejaVuSerif-34"/>
       <use xlink:href="#DejaVuSerif-30" transform="translate(63.623047 0)"/>
       <use xlink:href="#DejaVuSerif-30" transform="translate(127.246094 0)"/>
      </g>
     </g>
    </g>
    <g id="ytick_4">
     <g id="line2d_17">
      <path d="M 60.35375 162.455848 
L 389.04375 162.455848 
" clip-path="url(#pe8a6abf942)" style="fill: none; stroke-dasharray: 2.96,1.28; stroke-dashoffset: 0; stroke: #b0b0b0; stroke-opacity: 0.25; stroke-width: 0.8"/>
     </g>
     <g id="line2d_18">
      <g>
       <use xlink:href="#m371de06dc3" x="60.35375" y="162.455848" style="stroke: #000000; stroke-width: 0.8"/>
      </g>
     </g>
     <g id="text_10">
      <!-- 600 -->
      <g transform="translate(30.44875 167.01491) scale(0.12 -0.12)">
       <use xlink:href="#DejaVuSerif-36"/>
       <use xlink:href="#DejaVuSerif-30" transform="translate(63.623047 0)"/>
       <use xlink:href="#DejaVuSerif-30" transform="translate(127.246094 0)"/>
      </g>
     </g>
    </g>
    <g id="ytick_5">
     <g id="line2d_19">
      <path d="M 60.35375 114.497868 
L 389.04375 114.497868 
" clip-path="url(#pe8a6abf942)" style="fill: none; stroke-dasharray: 2.96,1.28; stroke-dashoffset: 0; stroke: #b0b0b0; stroke-opacity: 0.25; stroke-width: 0.8"/>
     </g>
     <g id="line2d_20">
      <g>
       <use xlink:href="#m371de06dc3" x="60.35375" y="114.497868" style="stroke: #000000; stroke-width: 0.8"/>
      </g>
     </g>
     <g id="text_11">
      <!-- 800 -->
      <g transform="translate(30.44875 119.05693) scale(0.12 -0.12)">
       <use xlink:href="#DejaVuSerif-38"/>
       <use xlink:href="#DejaVuSerif-30" transform="translate(63.623047 0)"/>
       <use xlink:href="#DejaVuSerif-30" transform="translate(127.246094 0)"/>
      </g>
     </g>
    </g>
    <g id="ytick_6">
     <g id="line2d_21">
      <path d="M 60.35375 66.539888 
L 389.04375 66.539888 
" clip-path="url(#pe8a6abf942)" style="fill: none; stroke-dasharray: 2.96,1.28; stroke-dashoffset: 0; stroke: #b0b0b0; stroke-opacity: 0.25; stroke-width: 0.8"/>
     </g>
     <g id="line2d_22">
      <g>
       <use xlink:href="#m371de06dc3" x="60.35375" y="66.539888" style="stroke: #000000; stroke-width: 0.8"/>
      </g>
     </g>
     <g id="text_12">
      <!-- 1000 -->
      <g transform="translate(22.81375 71.09895) scale(0.12 -0.12)">
       <defs>
        <path id="DejaVuSerif-31" d="M 909 0 
L 909 331 
L 1722 331 
L 1722 4213 
L 781 3603 
L 781 4013 
L 1919 4750 
L 2350 4750 
L 2350 331 
L 3163 331 
L 3163 0 
L 909 0 
z
" transform="scale(0.015625)"/>
       </defs>
       <use xlink:href="#DejaVuSerif-31"/>
       <use xlink:href="#DejaVuSerif-30" transform="translate(63.623047 0)"/>
       <use xlink:href="#DejaVuSerif-30" transform="translate(127.246094 0)"/>
       <use xlink:href="#DejaVuSerif-30" transform="translate(190.869141 0)"/>
      </g>
     </g>
    </g>
    <g id="text_13">
     <!-- Cumulative failures -->
     <g transform="translate(16.318125 231.131094) rotate(-90) scale(0.12 -0.12)">
      <defs>
       <path id="DejaVuSerif-66" d="M 2753 4078 
L 2450 4078 
Q 2447 4313 2317 4434 
Q 2188 4556 1941 4556 
Q 1619 4556 1487 4379 
Q 1356 4203 1356 3750 
L 1356 3322 
L 2284 3322 
L 2284 2988 
L 1356 2988 
L 1356 331 
L 2094 331 
L 2094 0 
L 231 0 
L 231 331 
L 781 331 
L 781 2988 
L 231 2988 
L 231 3322 
L 781 3322 
L 781 3738 
Q 781 4294 1070 4578 
Q 1359 4863 1919 4863 
Q 2128 4863 2337 4825 
Q 2547 4788 2753 4709 
L 2753 4078 
z
" transform="scale(0.015625)"/>
       <path id="DejaVuSerif-72" d="M 3059 3328 
L 3059 2497 
L 2728 2497 
Q 2713 2744 2591 2866 
Q 2469 2988 2234 2988 
Q 1809 2988 1582 2694 
Q 1356 2400 1356 1850 
L 1356 331 
L 2022 331 
L 2022 0 
L 263 0 
L 263 331 
L 781 331 
L 781 2994 
L 231 2994 
L 231 3322 
L 1356 3322 
L 1356 2731 
Q 1525 3078 1790 3245 
Q 2056 3413 2438 3413 
Q 2578 3413 2733 3391 
Q 2888 3369 3059 3328 
z
" transform="scale(0.015625)"/>
      </defs>
      <use xlink:href="#DejaVuSerif-43"/>
      <use xlink:href="#DejaVuSerif-75" transform="translate(76.513672 0)"/>
      <use xlink:href="#DejaVuSerif-6d" transform="translate(140.917969 0)"/>
      <use xlink:href="#DejaVuSerif-75" transform="translate(235.742188 0)"/>
      <use xlink:href="#DejaVuSerif-6c" transform="translate(300.146484 0)"/>
      <use xlink:href="#DejaVuSerif-61" transform="translate(332.128906 0)"/>
      <use xlink:href="#DejaVuSerif-74" transform="translate(391.748047 0)"/>
      <use xlink:href="#DejaVuSerif-69" transform="translate(431.933594 0)"/>
      <use xlink:href="#DejaVuSerif-76" transform="translate(463.916016 0)"/>
      <use xlink:href="#DejaVuSerif-65" transform="translate(520.410156 0)"/>
      <use xlink:href="#DejaVuSerif-20" transform="translate(579.589844 0)"/>
      <use xlink:href="#DejaVuSerif-66" transform="translate(611.376953 0)"/>
      <use xlink:href="#DejaVuSerif-61" transform="translate(648.388672 0)"/>
      <use xlink:href="#DejaVuSerif-69" transform="translate(708.007812 0)"/>
      <use xlink:href="#DejaVuSerif-6c" transform="translate(739.990234 0)"/>
      <use xlink:href="#DejaVuSerif-75" transform="translate(771.972656 0)"/>
      <use xlink:href="#DejaVuSerif-72" transform="translate(836.376953 0)"/>
      <use xlink:href="#DejaVuSerif-65" transform="translate(884.179688 0)"/>
      <use xlink:href="#DejaVuSerif-73" transform="translate(943.359375 0)"/>
     </g>
    </g>
   </g>
   <g id="line2d_23">
    <path d="M 75.343998 306.329787 
L 75.3938 306.329787 
L 75.770868 305.130837 
L 75.82067 305.130837 
L 75.970074 304.651258 
L 76.18351 304.651258 
L 76.332914 304.411468 
L 76.432517 304.411468 
L 76.557021 304.171678 
L 76.606822 304.171678 
L 76.923418 303.452308 
L 76.973219 303.452308 
L 77.115509 303.212518 
L 77.264914 302.972728 
L 77.517479 302.972728 
L 77.681112 302.732938 
L 77.780715 302.732938 
L 77.972807 302.013569 
L 78.079524 302.013569 
L 78.292959 301.294199 
L 78.342761 301.294199 
L 78.506395 301.054409 
L 78.662914 301.054409 
L 78.812318 300.814619 
L 78.983066 300.574829 
L 79.196501 300.574829 
L 79.342349 300.335039 
L 79.498868 300.335039 
L 79.648272 300.09525 
L 79.747875 300.09525 
L 79.854593 299.61567 
L 80.267234 299.61567 
L 80.469997 299.13609 
L 80.573157 299.13609 
L 80.754577 298.41672 
L 81.160104 298.41672 
L 81.305951 298.17693 
L 81.469585 298.17693 
L 81.807524 296.977981 
L 81.857325 296.977981 
L 82.038745 296.738191 
L 82.29131 296.738191 
L 82.479844 296.258611 
L 82.675493 295.779031 
L 82.775096 295.779031 
L 82.988531 295.059662 
L 83.362042 295.059662 
L 83.525676 294.580082 
L 83.778241 294.580082 
L 83.920531 294.100502 
L 83.970332 294.100502 
L 84.194439 293.620922 
L 84.617752 293.620922 
L 84.784943 293.381132 
L 85.68137 293.381132 
L 86.054882 292.421973 
L 86.104683 292.421973 
L 86.513767 291.223023 
L 86.670286 291.223023 
L 86.865935 290.743443 
L 86.922851 290.743443 
L 87.161187 290.024074 
L 87.328377 289.784284 
L 87.42798 289.784284 
L 87.602286 289.304704 
L 87.837064 288.825124 
L 88.050499 288.825124 
L 88.246148 287.865965 
L 88.47737 287.386385 
L 88.527171 287.386385 
L 88.687247 286.906805 
L 88.737049 286.906805 
L 89.074988 286.187435 
L 89.174591 286.187435 
L 89.558774 284.988486 
L 89.658377 284.988486 
L 89.992759 284.029326 
L 90.099476 284.029326 
L 90.302239 283.549747 
L 90.558362 283.549747 
L 90.714881 283.070167 
L 90.814484 283.070167 
L 91.027919 281.871217 
L 91.273369 280.672268 
L 91.437003 280.432478 
L 92.102209 280.432478 
L 92.2943 279.952898 
L 92.650025 279.952898 
L 92.916819 279.473318 
L 93.26543 279.473318 
L 93.525109 278.514159 
L 93.631827 278.514159 
L 93.845262 277.794789 
L 93.951979 277.794789 
L 94.265017 276.595839 
L 94.371735 276.595839 
L 94.563826 276.11626 
L 94.663429 276.11626 
L 94.787933 275.63668 
L 94.837735 275.63668 
L 95.108086 274.43773 
L 95.431796 274.43773 
L 95.602544 274.19794 
L 95.812422 274.19794 
L 96.203719 273.238781 
L 96.260635 273.238781 
L 96.445612 272.998991 
L 96.595017 272.998991 
L 96.819124 272.519411 
L 96.925841 272.519411 
L 97.089475 272.039831 
L 97.139276 272.039831 
L 97.274452 271.800041 
L 97.374055 271.800041 
L 97.566146 271.320462 
L 97.679978 271.320462 
L 97.904085 270.840882 
L 98.110406 270.840882 
L 98.316726 270.121512 
L 98.366528 270.121512 
L 98.551505 269.881722 
L 98.601306 269.881722 
L 98.768497 269.641932 
L 98.818299 269.641932 
L 99.099322 268.922563 
L 99.149123 268.922563 
L 99.426589 267.963403 
L 99.526192 267.963403 
L 99.732512 267.483823 
L 99.789428 267.483823 
L 99.945947 267.004243 
L 99.999306 267.004243 
L 100.173611 266.764454 
L 100.273214 266.764454 
L 100.411947 266.524664 
L 100.468863 266.524664 
L 100.632497 266.045084 
L 100.689413 266.045084 
L 100.838817 265.805294 
L 101.148298 265.085924 
L 101.255016 265.085924 
L 101.671214 263.886975 
L 101.721016 263.886975 
L 101.930894 263.407395 
L 102.087413 263.407395 
L 102.47871 262.208446 
L 102.585428 262.208446 
L 102.752619 261.968656 
L 102.862893 261.968656 
L 103.097672 261.249286 
L 103.147473 261.249286 
L 103.432054 260.529916 
L 103.481855 260.529916 
L 103.720191 260.050336 
L 103.819794 260.050336 
L 103.94074 259.570757 
L 104.054572 259.570757 
L 104.268008 259.091177 
L 104.481443 259.091177 
L 104.630847 258.851387 
L 104.680649 258.851387 
L 104.822939 258.611597 
L 104.87274 258.611597 
L 105.032817 258.132017 
L 105.303168 257.412648 
L 105.360084 257.412648 
L 105.555732 256.693278 
L 105.762053 256.693278 
L 105.989717 255.973908 
L 106.213824 255.494328 
L 106.313427 255.494328 
L 106.964404 253.576009 
L 107.071121 253.576009 
L 107.355702 252.856639 
L 107.455305 252.856639 
L 107.618938 252.61685 
L 107.775457 252.61685 
L 107.971106 251.89748 
L 108.020908 251.89748 
L 108.230785 251.4179 
L 108.280587 251.4179 
L 108.440663 250.69853 
L 108.490465 250.69853 
L 108.639869 250.45874 
L 108.899549 249.739371 
L 109.006266 249.739371 
L 109.301518 249.020001 
L 109.351319 249.020001 
L 109.689258 248.060841 
L 109.795976 248.060841 
L 109.973838 247.821052 
L 110.076999 247.821052 
L 110.158816 247.581262 
L 110.322449 247.581262 
L 110.461182 247.341472 
L 110.63193 247.101682 
L 110.681731 247.101682 
L 111.037457 245.902732 
L 111.094373 245.902732 
L 111.339823 245.423153 
L 111.389624 245.423153 
L 111.916098 243.744623 
L 111.965899 243.744623 
L 112.193563 243.265043 
L 112.709365 243.265043 
L 112.848097 243.025254 
L 112.954815 243.025254 
L 113.189594 242.545674 
L 113.239395 242.545674 
L 113.431487 242.066094 
L 113.541761 242.066094 
L 113.81567 241.346724 
L 114.182067 241.346724 
L 114.370601 240.627355 
L 114.477318 240.627355 
L 114.644509 240.387565 
L 115.170982 240.387565 
L 115.299043 239.907985 
L 115.355959 239.907985 
L 116.344875 236.311136 
L 116.451593 236.311136 
L 116.629455 235.831557 
L 116.785974 235.831557 
L 116.931822 235.351977 
L 116.988738 235.351977 
L 117.155929 234.872397 
L 117.422722 234.872397 
L 117.56857 234.392817 
L 117.618371 234.392817 
L 117.931409 233.193868 
L 118.678432 233.193868 
L 118.913211 232.714288 
L 119.012814 232.714288 
L 119.258264 231.515338 
L 119.461027 231.515338 
L 119.830981 230.556179 
L 119.880783 230.556179 
L 120.112004 230.076599 
L 120.521088 230.076599 
L 120.681164 229.597019 
L 120.834126 229.597019 
L 121.008432 228.63786 
L 121.168508 228.63786 
L 121.374828 228.15828 
L 121.630951 228.15828 
L 121.865729 227.6787 
L 122.015134 227.6787 
L 122.424218 226.71954 
L 122.474019 226.71954 
L 122.626981 226.479751 
L 122.851088 226.479751 
L 122.993378 226.000171 
L 123.359775 226.000171 
L 123.512736 225.760381 
L 123.562538 225.760381 
L 123.825775 225.041011 
L 124.138813 225.041011 
L 124.306003 224.801221 
L 124.515881 224.801221 
L 124.690187 224.561431 
L 125.003225 224.561431 
L 125.508354 223.122692 
L 125.561713 223.122692 
L 125.753805 222.643112 
L 126.013484 222.643112 
L 126.244705 221.683953 
L 126.301621 221.683953 
L 126.539957 221.204373 
L 126.589759 221.204373 
L 126.877896 220.485003 
L 127.077102 220.485003 
L 127.226507 220.005423 
L 127.276308 220.005423 
L 127.4684 219.286054 
L 127.568003 219.286054 
L 127.717407 219.046264 
L 127.767209 219.046264 
L 127.927285 218.566684 
L 128.176293 218.566684 
L 128.325697 218.326894 
L 128.482216 218.326894 
L 128.713438 217.607524 
L 129.019361 217.607524 
L 129.140308 217.127945 
L 129.190109 217.127945 
L 129.311056 216.888155 
L 129.64188 215.928995 
L 129.755712 215.928995 
L 129.979819 215.449415 
L 130.129224 215.449415 
L 130.2893 215.209625 
L 130.71617 215.209625 
L 130.950949 214.730046 
L 131.007865 214.730046 
L 131.271101 213.531096 
L 131.370704 213.531096 
L 131.555681 213.051516 
L 131.605483 213.051516 
L 131.772674 212.571936 
L 131.886506 212.571936 
L 132.149742 211.852567 
L 132.469895 211.852567 
L 132.743803 211.133197 
L 132.900322 211.133197 
L 133.039055 210.893407 
L 133.344979 210.893407 
L 133.480154 210.653617 
L 133.533513 210.653617 
L 133.707818 210.413827 
L 133.75762 210.413827 
L 133.921253 210.174037 
L 133.971055 210.174037 
L 134.134688 209.454668 
L 134.351681 209.454668 
L 134.597131 208.255718 
L 134.85681 208.255718 
L 134.991986 208.015928 
L 135.152062 207.536349 
L 135.728337 207.536349 
L 135.863512 207.056769 
L 136.269039 207.056769 
L 136.461131 206.577189 
L 136.674566 206.577189 
L 136.916459 206.097609 
L 137.023176 206.097609 
L 137.165466 205.618029 
L 137.485619 205.618029 
L 137.852016 204.41908 
L 137.901817 204.41908 
L 138.150825 203.22013 
L 138.350031 203.22013 
L 138.50655 202.740551 
L 139.061481 201.301811 
L 139.164642 201.301811 
L 139.306932 201.062021 
L 139.456336 201.062021 
L 139.545267 200.822231 
L 139.716016 200.822231 
L 139.893878 200.582441 
L 140.171344 200.582441 
L 140.423909 199.623282 
L 140.630229 199.623282 
L 140.815206 199.143702 
L 141.000183 198.903912 
L 141.049985 198.903912 
L 141.277649 198.424332 
L 141.427053 198.424332 
L 141.590687 197.944753 
L 141.846809 197.944753 
L 142.003328 197.704963 
L 142.05313 197.704963 
L 142.177633 197.465173 
L 142.327038 197.465173 
L 142.736122 196.266223 
L 142.938885 196.266223 
L 143.095404 195.786643 
L 143.259038 195.786643 
L 143.607648 194.827484 
L 143.65745 194.827484 
L 143.824641 194.587694 
L 144.130564 194.587694 
L 144.461389 193.628534 
L 144.518305 193.628534 
L 144.657037 193.388745 
L 144.916717 193.388745 
L 145.087465 193.148955 
L 145.293785 193.148955 
L 145.557022 192.189795 
L 145.663739 192.189795 
L 145.834488 191.710215 
L 146.044365 191.710215 
L 146.168869 191.470425 
L 146.343174 191.230635 
L 146.392976 191.230635 
L 146.627755 190.271476 
L 146.727358 190.271476 
L 146.90522 190.031686 
L 147.115098 190.031686 
L 147.246716 189.791896 
L 147.403235 189.791896 
L 147.69493 189.072526 
L 148.050655 189.072526 
L 148.502426 187.633787 
L 148.758548 187.633787 
L 148.922182 187.393997 
L 149.021785 187.393997 
L 149.164075 187.154207 
L 149.306365 186.914417 
L 149.512685 186.914417 
L 149.679876 186.434837 
L 150.345082 186.434837 
L 150.51583 185.715468 
L 151.081433 185.715468 
L 151.316212 185.235888 
L 151.422929 185.235888 
L 151.515418 184.996098 
L 151.515418 184.996098 
" clip-path="url(#pe8a6abf942)" style="fill: none; stroke: #9a0eea; stroke-width: 1.5; stroke-linecap: square"/>
   </g>
   <g id="line2d_24">
    <path d="M 75.294205 306.329787 
L 75.29424 306.329787 
L 75.405735 298.41672 
L 75.415386 298.41672 
L 75.544289 294.340292 
L 75.558005 294.340292 
L 75.679712 292.421973 
L 75.681554 292.421973 
L 75.818354 289.064914 
L 75.847317 289.064914 
L 75.987685 285.947646 
L 75.990192 285.947646 
L 76.123844 283.549747 
L 76.134837 283.549747 
L 76.254174 282.590587 
L 76.265913 282.590587 
L 76.396236 280.912058 
L 76.453192 280.912058 
L 76.588076 278.993738 
L 76.591451 278.993738 
L 76.736961 276.35605 
L 76.758348 276.35605 
L 76.889844 274.91731 
L 76.92731 274.91731 
L 77.061693 273.238781 
L 77.089175 273.238781 
L 77.217435 272.039831 
L 77.262522 272.039831 
L 77.409379 269.881722 
L 77.435076 269.881722 
L 77.565795 268.682773 
L 77.601288 268.682773 
L 77.7231 267.963403 
L 77.750761 267.963403 
L 77.87883 267.004243 
L 77.922806 267.004243 
L 78.053307 266.045084 
L 78.063554 266.045084 
L 78.188764 265.325714 
L 78.204726 265.325714 
L 78.356618 263.407395 
L 78.378746 263.407395 
L 78.519627 261.968656 
L 78.54837 261.968656 
L 78.682894 260.769706 
L 78.694771 260.769706 
L 78.827736 259.810547 
L 78.877011 259.810547 
L 79.021169 258.371807 
L 79.04024 258.371807 
L 79.188436 256.933068 
L 79.214581 256.933068 
L 79.35369 255.734118 
L 79.373814 255.734118 
L 79.502882 255.014749 
L 79.544165 255.014749 
L 79.676676 254.055589 
L 79.73324 254.055589 
L 79.854962 253.576009 
L 79.905682 253.576009 
L 80.037675 252.856639 
L 80.089616 252.856639 
L 80.217205 252.13727 
L 80.224774 252.13727 
L 80.339142 251.89748 
L 80.423999 251.89748 
L 80.548939 251.4179 
L 80.56468 251.4179 
L 80.596246 250.93832 
L 80.596246 250.93832 
" clip-path="url(#pe8a6abf942)" style="fill: none; stroke: #daa520; stroke-width: 1.5; stroke-linecap: square"/>
   </g>
   <g id="line2d_25">
    <path d="M 75.297754 306.329787 
L 75.301311 306.329787 
L 75.304868 306.329787 
L 75.308426 306.329787 
L 75.311983 306.329787 
L 75.31554 306.329787 
L 75.319097 306.329787 
L 75.322655 306.329787 
L 75.326212 306.329787 
L 75.329769 306.329787 
L 75.333327 306.329787 
L 75.336884 306.329787 
L 75.340441 306.329787 
L 75.343998 306.329787 
L 75.347556 306.329787 
L 75.351113 306.329787 
L 75.35467 306.329787 
L 75.358227 306.329787 
L 75.361785 306.329787 
L 75.365342 306.329787 
L 75.368899 306.329787 
L 75.372456 306.329787 
L 75.376014 306.329787 
L 75.379571 306.329787 
L 75.383128 306.329787 
L 75.386685 306.329787 
L 75.390243 306.329787 
L 75.3938 306.329787 
L 75.397357 306.329787 
L 75.400914 306.329787 
L 75.404472 306.329787 
L 75.408029 306.329787 
L 75.411586 306.329787 
L 75.415143 306.329787 
L 75.418701 306.329787 
L 75.422258 306.329787 
L 75.425815 306.329787 
L 75.429372 306.329787 
L 75.43293 306.329787 
L 75.436487 306.329787 
L 75.440044 306.329787 
L 75.443601 306.329787 
L 75.447159 306.329787 
L 75.450716 306.329787 
L 75.454273 306.329787 
L 75.45783 306.329787 
L 75.461388 306.329787 
L 75.464945 306.329787 
L 75.468502 306.329787 
L 75.472059 306.329787 
L 75.475617 306.329787 
L 75.479174 306.329787 
L 75.482731 306.329787 
L 75.486288 306.329787 
L 75.489846 306.329787 
L 75.493403 306.329787 
L 75.49696 306.329787 
L 75.500517 306.329787 
L 75.504075 306.329787 
L 75.507632 306.329787 
L 75.511189 306.329787 
L 75.514746 306.329787 
L 75.518304 306.329787 
L 75.521861 306.329787 
" clip-path="url(#pe8a6abf942)" style="fill: none; stroke: #b56576; stroke-width: 1.5; stroke-linecap: square"/>
   </g>
   <g id="line2d_26">
    <path d="M 75.297754 306.329787 
L 76.631723 306.329787 
L 76.926975 293.860712 
L 76.930532 293.860712 
L 77.229341 281.151848 
L 77.232899 281.151848 
L 77.570837 265.805294 
L 77.574395 265.805294 
L 77.940792 248.540421 
L 77.944349 248.540421 
L 78.068853 247.581262 
L 79.299662 247.581262 
L 79.623371 233.193868 
L 79.634043 233.193868 
L 79.915066 221.683953 
L 79.918623 221.683953 
L 80.235219 207.776138 
L 80.242333 207.776138 
L 80.498455 197.944753 
L 80.512684 197.944753 
L 80.630074 192.189795 
L 80.630074 192.189795 
" clip-path="url(#pe8a6abf942)" style="fill: none; stroke: #15b01a; stroke-width: 1.5; stroke-linecap: square"/>
   </g>
   <g id="line2d_27">
    <path d="M 75.297754 306.329787 
L 80.630074 306.329787 
L 80.630074 306.329787 
" clip-path="url(#pe8a6abf942)" style="fill: none; stroke: #808080; stroke-width: 1.5; stroke-linecap: square"/>
   </g>
   <g id="line2d_28">
    <path d="M 75.649922 306.089997 
L 208.691116 216.408575 
L 222.130411 126.487363 
L 240.706376 126.487363 
L 374.103295 36.566151 
L 374.103295 36.566151 
" clip-path="url(#pe8a6abf942)" style="fill: none; stroke: #3357a6; stroke-width: 1.5; stroke-linecap: square"/>
   </g>
   <g id="patch_3">
    <path d="M 60.35375 319.817969 
L 60.35375 23.077969 
" style="fill: none; stroke: #333333; stroke-linejoin: miter; stroke-linecap: square"/>
   </g>
   <g id="patch_4">
    <path d="M 389.04375 319.817969 
L 389.04375 23.077969 
" style="fill: none; stroke: #333333; stroke-linejoin: miter; stroke-linecap: square"/>
   </g>
   <g id="patch_5">
    <path d="M 60.35375 319.817969 
L 389.04375 319.817969 
" style="fill: none; stroke: #333333; stroke-linejoin: miter; stroke-linecap: square"/>
   </g>
   <g id="patch_6">
    <path d="M 60.35375 23.077969 
L 389.04375 23.077969 
" style="fill: none; stroke: #333333; stroke-linejoin: miter; stroke-linecap: square"/>
   </g>
   <g id="text_14">
    <!-- FrozenLake (Dyna-Q) — CF vs Time (ALL) -->
    <g transform="translate(85.977578 17.077969) scale(0.13 -0.13)">
     <defs>
      <path id="DejaVuSerif-46" d="M 353 0 
L 353 331 
L 947 331 
L 947 4331 
L 353 4331 
L 353 4666 
L 4172 4666 
L 4172 3628 
L 3788 3628 
L 3788 4281 
L 1581 4281 
L 1581 2719 
L 3175 2719 
L 3175 3303 
L 3559 3303 
L 3559 1753 
L 3175 1753 
L 3175 2338 
L 1581 2338 
L 1581 331 
L 2328 331 
L 2328 0 
L 353 0 
z
" transform="scale(0.015625)"/>
      <path id="DejaVuSerif-6f" d="M 1925 219 
Q 2388 219 2623 584 
Q 2859 950 2859 1663 
Q 2859 2375 2623 2739 
Q 2388 3103 1925 3103 
Q 1463 3103 1227 2739 
Q 991 2375 991 1663 
Q 991 950 1228 584 
Q 1466 219 1925 219 
z
M 1925 -91 
Q 1200 -91 759 389 
Q 319 869 319 1663 
Q 319 2456 758 2934 
Q 1197 3413 1925 3413 
Q 2653 3413 3092 2934 
Q 3531 2456 3531 1663 
Q 3531 869 3092 389 
Q 2653 -91 1925 -91 
z
" transform="scale(0.015625)"/>
      <path id="DejaVuSerif-7a" d="M 256 0 
L 256 269 
L 2338 2988 
L 691 2988 
L 691 2413 
L 359 2413 
L 359 3322 
L 3078 3322 
L 3078 3053 
L 997 331 
L 2803 331 
L 2803 934 
L 3138 934 
L 3138 0 
L 256 0 
z
" transform="scale(0.015625)"/>
      <path id="DejaVuSerif-6e" d="M 263 0 
L 263 331 
L 781 331 
L 781 2988 
L 231 2988 
L 231 3322 
L 1356 3322 
L 1356 2731 
Q 1516 3069 1770 3241 
Q 2025 3413 2363 3413 
Q 2913 3413 3172 3097 
Q 3431 2781 3431 2113 
L 3431 331 
L 3944 331 
L 3944 0 
L 2356 0 
L 2356 331 
L 2853 331 
L 2853 1931 
Q 2853 2541 2703 2767 
Q 2553 2994 2175 2994 
Q 1775 2994 1565 2701 
Q 1356 2409 1356 1850 
L 1356 331 
L 1856 331 
L 1856 0 
L 263 0 
z
" transform="scale(0.015625)"/>
      <path id="DejaVuSerif-4c" d="M 353 0 
L 353 331 
L 947 331 
L 947 4331 
L 353 4331 
L 353 4666 
L 2175 4666 
L 2175 4331 
L 1581 4331 
L 1581 384 
L 3713 384 
L 3713 1166 
L 4097 1166 
L 4097 0 
L 353 0 
z
" transform="scale(0.015625)"/>
      <path id="DejaVuSerif-6b" d="M 1831 0 
L 219 0 
L 219 331 
L 738 331 
L 738 4531 
L 184 4531 
L 184 4863 
L 1313 4863 
L 1313 1697 
L 2713 2988 
L 2234 2988 
L 2234 3322 
L 3738 3322 
L 3738 2988 
L 3169 2988 
L 2181 2075 
L 3444 331 
L 3922 331 
L 3922 0 
L 2284 0 
L 2284 331 
L 2759 331 
L 1766 1697 
L 1313 1275 
L 1313 331 
L 1831 331 
L 1831 0 
z
" transform="scale(0.015625)"/>
      <path id="DejaVuSerif-44" d="M 1581 331 
L 2163 331 
Q 3072 331 3558 850 
Q 4044 1369 4044 2338 
Q 4044 3306 3559 3818 
Q 3075 4331 2163 4331 
L 1581 4331 
L 1581 331 
z
M 353 0 
L 353 331 
L 947 331 
L 947 4331 
L 353 4331 
L 353 4666 
L 2209 4666 
Q 3416 4666 4089 4050 
Q 4763 3434 4763 2338 
Q 4763 1238 4088 619 
Q 3413 0 2209 0 
L 353 0 
z
" transform="scale(0.015625)"/>
      <path id="DejaVuSerif-79" d="M 1381 -609 
L 1600 -56 
L 359 2988 
L -19 2988 
L -19 3322 
L 1509 3322 
L 1509 2988 
L 978 2988 
L 1913 703 
L 2847 2988 
L 2350 2988 
L 2350 3322 
L 3597 3322 
L 3597 2988 
L 3225 2988 
L 1703 -750 
Q 1547 -1138 1356 -1280 
Q 1166 -1422 819 -1422 
Q 672 -1422 517 -1397 
Q 363 -1372 206 -1325 
L 206 -691 
L 500 -691 
Q 519 -903 608 -995 
Q 697 -1088 884 -1088 
Q 1056 -1088 1161 -992 
Q 1266 -897 1381 -609 
z
" transform="scale(0.015625)"/>
      <path id="DejaVuSerif-2d" d="M 281 1959 
L 1881 1959 
L 1881 1472 
L 281 1472 
L 281 1959 
z
" transform="scale(0.015625)"/>
      <path id="DejaVuSerif-51" d="M 2700 -91 
Q 1628 -91 993 567 
Q 359 1225 359 2328 
Q 359 2894 529 3339 
Q 700 3784 1050 4134 
Q 1356 4441 1750 4595 
Q 2144 4750 2625 4750 
Q 3641 4750 4266 4084 
Q 4891 3419 4891 2328 
Q 4891 1403 4422 773 
Q 3953 144 3128 -38 
Q 3297 -247 3539 -347 
Q 3781 -447 4122 -447 
L 4219 -447 
L 4219 -1025 
Q 3691 -1000 3314 -767 
Q 2938 -534 2700 -91 
z
M 2625 244 
Q 3391 244 3781 770 
Q 4172 1297 4172 2328 
Q 4172 3363 3781 3889 
Q 3391 4416 2625 4416 
Q 1856 4416 1465 3889 
Q 1075 3363 1075 2328 
Q 1075 1297 1465 770 
Q 1856 244 2625 244 
z
" transform="scale(0.015625)"/>
      <path id="DejaVuSerif-2014" d="M 281 1906 
L 6119 1906 
L 6119 1491 
L 281 1491 
L 281 1906 
z
" transform="scale(0.015625)"/>
      <path id="DejaVuSerif-54" d="M 1222 0 
L 1222 331 
L 1819 331 
L 1819 4294 
L 447 4294 
L 447 3566 
L 63 3566 
L 63 4666 
L 4206 4666 
L 4206 3566 
L 3822 3566 
L 3822 4294 
L 2450 4294 
L 2450 331 
L 3047 331 
L 3047 0 
L 1222 0 
z
" transform="scale(0.015625)"/>
      <path id="DejaVuSerif-41" d="M 1281 1691 
L 2994 1691 
L 2138 3909 
L 1281 1691 
z
M -38 0 
L -38 331 
L 372 331 
L 2034 4666 
L 2559 4666 
L 4225 331 
L 4684 331 
L 4684 0 
L 2988 0 
L 2988 331 
L 3506 331 
L 3116 1356 
L 1153 1356 
L 763 331 
L 1275 331 
L 1275 0 
L -38 0 
z
" transform="scale(0.015625)"/>
     </defs>
     <use xlink:href="#DejaVuSerif-46"/>
     <use xlink:href="#DejaVuSerif-72" transform="translate(69.384766 0)"/>
     <use xlink:href="#DejaVuSerif-6f" transform="translate(117.1875 0)"/>
     <use xlink:href="#DejaVuSerif-7a" transform="translate(177.392578 0)"/>
     <use xlink:href="#DejaVuSerif-65" transform="translate(230.078125 0)"/>
     <use xlink:href="#DejaVuSerif-6e" transform="translate(289.257812 0)"/>
     <use xlink:href="#DejaVuSerif-4c" transform="translate(353.662109 0)"/>
     <use xlink:href="#DejaVuSerif-61" transform="translate(420.068359 0)"/>
     <use xlink:href="#DejaVuSerif-6b" transform="translate(479.6875 0)"/>
     <use xlink:href="#DejaVuSerif-65" transform="translate(540.283203 0)"/>
     <use xlink:href="#DejaVuSerif-20" transform="translate(599.462891 0)"/>
     <use xlink:href="#DejaVuSerif-28" transform="translate(631.25 0)"/>
     <use xlink:href="#DejaVuSerif-44" transform="translate(670.263672 0)"/>
     <use xlink:href="#DejaVuSerif-79" transform="translate(750.439453 0)"/>
     <use xlink:href="#DejaVuSerif-6e" transform="translate(806.933594 0)"/>
     <use xlink:href="#DejaVuSerif-61" transform="translate(871.337891 0)"/>
     <use xlink:href="#DejaVuSerif-2d" transform="translate(930.957031 0)"/>
     <use xlink:href="#DejaVuSerif-51" transform="translate(964.746094 0)"/>
     <use xlink:href="#DejaVuSerif-29" transform="translate(1046.728516 0)"/>
     <use xlink:href="#DejaVuSerif-20" transform="translate(1085.742188 0)"/>
     <use xlink:href="#DejaVuSerif-2014" transform="translate(1117.529297 0)"/>
     <use xlink:href="#DejaVuSerif-20" transform="translate(1217.529297 0)"/>
     <use xlink:href="#DejaVuSerif-43" transform="translate(1249.316406 0)"/>
     <use xlink:href="#DejaVuSerif-46" transform="translate(1325.830078 0)"/>
     <use xlink:href="#DejaVuSerif-20" transform="translate(1395.214844 0)"/>
     <use xlink:href="#DejaVuSerif-76" transform="translate(1427.001953 0)"/>
     <use xlink:href="#DejaVuSerif-73" transform="translate(1483.496094 0)"/>
     <use xlink:href="#DejaVuSerif-20" transform="translate(1534.814453 0)"/>
     <use xlink:href="#DejaVuSerif-54" transform="translate(1566.601562 0)"/>
     <use xlink:href="#DejaVuSerif-69" transform="translate(1633.300781 0)"/>
     <use xlink:href="#DejaVuSerif-6d" transform="translate(1665.283203 0)"/>
     <use xlink:href="#DejaVuSerif-65" transform="translate(1760.107422 0)"/>
     <use xlink:href="#DejaVuSerif-20" transform="translate(1819.287109 0)"/>
     <use xlink:href="#DejaVuSerif-28" transform="translate(1851.074219 0)"/>
     <use xlink:href="#DejaVuSerif-41" transform="translate(1890.087891 0)"/>
     <use xlink:href="#DejaVuSerif-4c" transform="translate(1962.304688 0)"/>
     <use xlink:href="#DejaVuSerif-4c" transform="translate(2028.710938 0)"/>
     <use xlink:href="#DejaVuSerif-29" transform="translate(2095.117188 0)"/>
    </g>
   </g>
   <g id="legend_1">
    <g id="line2d_29">
     <path d="M 399.84375 152.945469 
L 411.84375 152.945469 
L 423.84375 152.945469 
" style="fill: none; stroke: #9a0eea; stroke-width: 1.5; stroke-linecap: square"/>
    </g>
    <g id="text_15">
     <!-- AlphaTest (F=506) -->
     <g transform="translate(433.44375 157.145469) scale(0.12 -0.12)">
      <defs>
       <path id="DejaVuSerif-70" d="M 1313 1825 
L 1313 1497 
Q 1313 897 1542 583 
Q 1772 269 2209 269 
Q 2650 269 2876 622 
Q 3103 975 3103 1663 
Q 3103 2353 2876 2703 
Q 2650 3053 2209 3053 
Q 1772 3053 1542 2737 
Q 1313 2422 1313 1825 
z
M 738 2988 
L 184 2988 
L 184 3322 
L 1313 3322 
L 1313 2803 
Q 1481 3116 1742 3264 
Q 2003 3413 2388 3413 
Q 3000 3413 3387 2928 
Q 3775 2444 3775 1663 
Q 3775 881 3387 395 
Q 3000 -91 2388 -91 
Q 2003 -91 1742 57 
Q 1481 206 1313 519 
L 1313 -997 
L 1856 -997 
L 1856 -1331 
L 184 -1331 
L 184 -997 
L 738 -997 
L 738 2988 
z
" transform="scale(0.015625)"/>
       <path id="DejaVuSerif-68" d="M 263 0 
L 263 331 
L 781 331 
L 781 4531 
L 231 4531 
L 231 4863 
L 1356 4863 
L 1356 2731 
Q 1516 3069 1770 3241 
Q 2025 3413 2363 3413 
Q 2913 3413 3172 3097 
Q 3431 2781 3431 2113 
L 3431 331 
L 3944 331 
L 3944 0 
L 2356 0 
L 2356 331 
L 2853 331 
L 2853 1931 
Q 2853 2541 2704 2764 
Q 2556 2988 2175 2988 
Q 1775 2988 1565 2697 
Q 1356 2406 1356 1850 
L 1356 331 
L 1856 331 
L 1856 0 
L 263 0 
z
" transform="scale(0.015625)"/>
       <path id="DejaVuSerif-3d" d="M 678 2894 
L 4684 2894 
L 4684 2394 
L 678 2394 
L 678 2894 
z
M 678 1619 
L 4684 1619 
L 4684 1119 
L 678 1119 
L 678 1619 
z
" transform="scale(0.015625)"/>
       <path id="DejaVuSerif-35" d="M 3219 4666 
L 3219 4153 
L 1081 4153 
L 1081 2816 
Q 1244 2928 1461 2984 
Q 1678 3041 1947 3041 
Q 2703 3041 3140 2622 
Q 3578 2203 3578 1478 
Q 3578 738 3136 323 
Q 2694 -91 1894 -91 
Q 1572 -91 1234 -12 
Q 897 66 544 225 
L 544 1131 
L 897 1131 
Q 925 688 1179 453 
Q 1434 219 1894 219 
Q 2388 219 2653 544 
Q 2919 869 2919 1478 
Q 2919 2084 2655 2407 
Q 2391 2731 1894 2731 
Q 1613 2731 1398 2631 
Q 1184 2531 1019 2322 
L 750 2322 
L 750 4666 
L 3219 4666 
z
" transform="scale(0.015625)"/>
      </defs>
      <use xlink:href="#DejaVuSerif-41"/>
      <use xlink:href="#DejaVuSerif-6c" transform="translate(72.216797 0)"/>
      <use xlink:href="#DejaVuSerif-70" transform="translate(104.199219 0)"/>
      <use xlink:href="#DejaVuSerif-68" transform="translate(168.212891 0)"/>
      <use xlink:href="#DejaVuSerif-61" transform="translate(232.617188 0)"/>
      <use xlink:href="#DejaVuSerif-54" transform="translate(292.236328 0)"/>
      <use xlink:href="#DejaVuSerif-65" transform="translate(351.185547 0)"/>
      <use xlink:href="#DejaVuSerif-73" transform="translate(410.365234 0)"/>
      <use xlink:href="#DejaVuSerif-74" transform="translate(461.683594 0)"/>
      <use xlink:href="#DejaVuSerif-20" transform="translate(501.869141 0)"/>
      <use xlink:href="#DejaVuSerif-28" transform="translate(533.65625 0)"/>
      <use xlink:href="#DejaVuSerif-46" transform="translate(572.669922 0)"/>
      <use xlink:href="#DejaVuSerif-3d" transform="translate(642.054688 0)"/>
      <use xlink:href="#DejaVuSerif-35" transform="translate(725.84375 0)"/>
      <use xlink:href="#DejaVuSerif-30" transform="translate(789.466797 0)"/>
      <use xlink:href="#DejaVuSerif-36" transform="translate(853.089844 0)"/>
      <use xlink:href="#DejaVuSerif-29" transform="translate(916.712891 0)"/>
     </g>
    </g>
    <g id="line2d_30">
     <path d="M 399.84375 170.559219 
L 411.84375 170.559219 
L 423.84375 170.559219 
" style="fill: none; stroke: #daa520; stroke-width: 1.5; stroke-linecap: square"/>
    </g>
    <g id="text_16">
     <!-- FS (F=231) -->
     <g transform="translate(433.44375 174.759219) scale(0.12 -0.12)">
      <defs>
       <path id="DejaVuSerif-53" d="M 594 225 
L 594 1288 
L 953 1284 
Q 969 753 1261 498 
Q 1553 244 2150 244 
Q 2706 244 2998 464 
Q 3291 684 3291 1106 
Q 3291 1444 3114 1625 
Q 2938 1806 2369 1978 
L 1753 2163 
Q 1084 2366 811 2669 
Q 538 2972 538 3500 
Q 538 4094 959 4422 
Q 1381 4750 2144 4750 
Q 2469 4750 2856 4679 
Q 3244 4609 3681 4475 
L 3681 3481 
L 3328 3481 
Q 3275 3975 2998 4195 
Q 2722 4416 2156 4416 
Q 1663 4416 1405 4214 
Q 1147 4013 1147 3628 
Q 1147 3294 1340 3103 
Q 1534 2913 2163 2725 
L 2741 2553 
Q 3375 2363 3645 2067 
Q 3916 1772 3916 1275 
Q 3916 597 3481 253 
Q 3047 -91 2188 -91 
Q 1803 -91 1404 -12 
Q 1006 66 594 225 
z
" transform="scale(0.015625)"/>
       <path id="DejaVuSerif-33" d="M 622 4469 
Q 988 4606 1323 4678 
Q 1659 4750 1953 4750 
Q 2638 4750 3022 4454 
Q 3406 4159 3406 3634 
Q 3406 3213 3140 2930 
Q 2875 2647 2388 2547 
Q 2963 2466 3280 2130 
Q 3597 1794 3597 1259 
Q 3597 606 3158 257 
Q 2719 -91 1894 -91 
Q 1528 -91 1179 -12 
Q 831 66 488 225 
L 488 1131 
L 838 1131 
Q 869 681 1141 450 
Q 1413 219 1906 219 
Q 2384 219 2661 495 
Q 2938 772 2938 1253 
Q 2938 1803 2653 2086 
Q 2369 2369 1819 2369 
L 1522 2369 
L 1522 2688 
L 1678 2688 
Q 2225 2688 2498 2914 
Q 2772 3141 2772 3597 
Q 2772 4006 2547 4223 
Q 2322 4441 1900 4441 
Q 1478 4441 1245 4241 
Q 1013 4041 972 3647 
L 622 3647 
L 622 4469 
z
" transform="scale(0.015625)"/>
      </defs>
      <use xlink:href="#DejaVuSerif-46"/>
      <use xlink:href="#DejaVuSerif-53" transform="translate(69.384766 0)"/>
      <use xlink:href="#DejaVuSerif-20" transform="translate(137.890625 0)"/>
      <use xlink:href="#DejaVuSerif-28" transform="translate(169.677734 0)"/>
      <use xlink:href="#DejaVuSerif-46" transform="translate(208.691406 0)"/>
      <use xlink:href="#DejaVuSerif-3d" transform="translate(278.076172 0)"/>
      <use xlink:href="#DejaVuSerif-32" transform="translate(361.865234 0)"/>
      <use xlink:href="#DejaVuSerif-33" transform="translate(425.488281 0)"/>
      <use xlink:href="#DejaVuSerif-31" transform="translate(489.111328 0)"/>
      <use xlink:href="#DejaVuSerif-29" transform="translate(552.734375 0)"/>
     </g>
    </g>
    <g id="line2d_31">
     <path d="M 399.84375 188.172969 
L 411.84375 188.172969 
L 423.84375 188.172969 
" style="fill: none; stroke: #b56576; stroke-width: 1.5; stroke-linecap: square"/>
    </g>
    <g id="text_17">
     <!-- MDPMorph (F=0) -->
     <g transform="translate(433.44375 192.372969) scale(0.12 -0.12)">
      <defs>
       <path id="DejaVuSerif-4d" d="M 353 0 
L 353 331 
L 947 331 
L 947 4331 
L 319 4331 
L 319 4666 
L 1678 4666 
L 3316 1344 
L 4953 4666 
L 6228 4666 
L 6228 4331 
L 5606 4331 
L 5606 331 
L 6203 331 
L 6203 0 
L 4378 0 
L 4378 331 
L 4972 331 
L 4972 3938 
L 3372 684 
L 2931 684 
L 1331 3938 
L 1331 331 
L 1925 331 
L 1925 0 
L 353 0 
z
" transform="scale(0.015625)"/>
       <path id="DejaVuSerif-50" d="M 1581 2375 
L 2406 2375 
Q 2872 2375 3115 2626 
Q 3359 2878 3359 3353 
Q 3359 3831 3115 4081 
Q 2872 4331 2406 4331 
L 1581 4331 
L 1581 2375 
z
M 353 0 
L 353 331 
L 947 331 
L 947 4331 
L 353 4331 
L 353 4666 
L 2559 4666 
Q 3259 4666 3668 4311 
Q 4078 3956 4078 3353 
Q 4078 2753 3668 2397 
Q 3259 2041 2559 2041 
L 1581 2041 
L 1581 331 
L 2303 331 
L 2303 0 
L 353 0 
z
" transform="scale(0.015625)"/>
      </defs>
      <use xlink:href="#DejaVuSerif-4d"/>
      <use xlink:href="#DejaVuSerif-44" transform="translate(102.392578 0)"/>
      <use xlink:href="#DejaVuSerif-50" transform="translate(182.568359 0)"/>
      <use xlink:href="#DejaVuSerif-4d" transform="translate(249.853516 0)"/>
      <use xlink:href="#DejaVuSerif-6f" transform="translate(352.246094 0)"/>
      <use xlink:href="#DejaVuSerif-72" transform="translate(412.451172 0)"/>
      <use xlink:href="#DejaVuSerif-70" transform="translate(460.253906 0)"/>
      <use xlink:href="#DejaVuSerif-68" transform="translate(524.267578 0)"/>
      <use xlink:href="#DejaVuSerif-20" transform="translate(588.671875 0)"/>
      <use xlink:href="#DejaVuSerif-28" transform="translate(620.458984 0)"/>
      <use xlink:href="#DejaVuSerif-46" transform="translate(659.472656 0)"/>
      <use xlink:href="#DejaVuSerif-3d" transform="translate(728.857422 0)"/>
      <use xlink:href="#DejaVuSerif-30" transform="translate(812.646484 0)"/>
      <use xlink:href="#DejaVuSerif-29" transform="translate(876.269531 0)"/>
     </g>
    </g>
    <g id="line2d_32">
     <path d="M 572.135625 152.945469 
L 584.135625 152.945469 
L 596.135625 152.945469 
" style="fill: none; stroke: #15b01a; stroke-width: 1.5; stroke-linecap: square"/>
    </g>
    <g id="text_18">
     <!-- RLMutation (F=476) -->
     <g transform="translate(605.735625 157.145469) scale(0.12 -0.12)">
      <defs>
       <path id="DejaVuSerif-52" d="M 3066 2316 
Q 3284 2256 3442 2114 
Q 3600 1972 3725 1716 
L 4403 331 
L 4972 331 
L 4972 0 
L 3872 0 
L 3144 1484 
Q 2934 1916 2759 2042 
Q 2584 2169 2278 2169 
L 1581 2169 
L 1581 331 
L 2241 331 
L 2241 0 
L 353 0 
L 353 331 
L 947 331 
L 947 4331 
L 353 4331 
L 353 4666 
L 2719 4666 
Q 3400 4666 3770 4341 
Q 4141 4016 4141 3419 
Q 4141 2938 3870 2661 
Q 3600 2384 3066 2316 
z
M 1581 2503 
L 2503 2503 
Q 2975 2503 3200 2726 
Q 3425 2950 3425 3419 
Q 3425 3888 3200 4109 
Q 2975 4331 2503 4331 
L 1581 4331 
L 1581 2503 
z
" transform="scale(0.015625)"/>
       <path id="DejaVuSerif-37" d="M 3609 4347 
L 1784 0 
L 1319 0 
L 3059 4153 
L 903 4153 
L 903 3578 
L 538 3578 
L 538 4666 
L 3609 4666 
L 3609 4347 
z
" transform="scale(0.015625)"/>
      </defs>
      <use xlink:href="#DejaVuSerif-52"/>
      <use xlink:href="#DejaVuSerif-4c" transform="translate(75.292969 0)"/>
      <use xlink:href="#DejaVuSerif-4d" transform="translate(141.699219 0)"/>
      <use xlink:href="#DejaVuSerif-75" transform="translate(244.091797 0)"/>
      <use xlink:href="#DejaVuSerif-74" transform="translate(308.496094 0)"/>
      <use xlink:href="#DejaVuSerif-61" transform="translate(348.681641 0)"/>
      <use xlink:href="#DejaVuSerif-74" transform="translate(408.300781 0)"/>
      <use xlink:href="#DejaVuSerif-69" transform="translate(448.486328 0)"/>
      <use xlink:href="#DejaVuSerif-6f" transform="translate(480.46875 0)"/>
      <use xlink:href="#DejaVuSerif-6e" transform="translate(540.673828 0)"/>
      <use xlink:href="#DejaVuSerif-20" transform="translate(605.078125 0)"/>
      <use xlink:href="#DejaVuSerif-28" transform="translate(636.865234 0)"/>
      <use xlink:href="#DejaVuSerif-46" transform="translate(675.878906 0)"/>
      <use xlink:href="#DejaVuSerif-3d" transform="translate(745.263672 0)"/>
      <use xlink:href="#DejaVuSerif-34" transform="translate(829.052734 0)"/>
      <use xlink:href="#DejaVuSerif-37" transform="translate(892.675781 0)"/>
      <use xlink:href="#DejaVuSerif-36" transform="translate(956.298828 0)"/>
      <use xlink:href="#DejaVuSerif-29" transform="translate(1019.921875 0)"/>
     </g>
    </g>
    <g id="line2d_33">
     <path d="M 572.135625 170.559219 
L 584.135625 170.559219 
L 596.135625 170.559219 
" style="fill: none; stroke: #808080; stroke-width: 1.5; stroke-linecap: square"/>
    </g>
    <g id="text_19">
     <!-- pi-Fuzz (F=0) -->
     <g transform="translate(605.735625 174.759219) scale(0.12 -0.12)">
      <use xlink:href="#DejaVuSerif-70"/>
      <use xlink:href="#DejaVuSerif-69" transform="translate(64.013672 0)"/>
      <use xlink:href="#DejaVuSerif-2d" transform="translate(95.996094 0)"/>
      <use xlink:href="#DejaVuSerif-46" transform="translate(129.785156 0)"/>
      <use xlink:href="#DejaVuSerif-75" transform="translate(199.169922 0)"/>
      <use xlink:href="#DejaVuSerif-7a" transform="translate(263.574219 0)"/>
      <use xlink:href="#DejaVuSerif-7a" transform="translate(316.259766 0)"/>
      <use xlink:href="#DejaVuSerif-20" transform="translate(368.945312 0)"/>
      <use xlink:href="#DejaVuSerif-28" transform="translate(400.732422 0)"/>
      <use xlink:href="#DejaVuSerif-46" transform="translate(439.746094 0)"/>
      <use xlink:href="#DejaVuSerif-3d" transform="translate(509.130859 0)"/>
      <use xlink:href="#DejaVuSerif-30" transform="translate(592.919922 0)"/>
      <use xlink:href="#DejaVuSerif-29" transform="translate(656.542969 0)"/>
     </g>
    </g>
    <g id="line2d_34">
     <path d="M 572.135625 188.172969 
L 584.135625 188.172969 
L 596.135625 188.172969 
" style="fill: none; stroke: #3357a6; stroke-width: 1.5; stroke-linecap: square"/>
    </g>
    <g id="text_20">
     <!-- μPRL (F=1125) -->
     <g transform="translate(605.735625 192.372969) scale(0.12 -0.12)">
      <defs>
       <path id="DejaVuSerif-3bc" d="M 2309 3322 
L 3384 3322 
L 3384 325 
L 3928 325 
L 3928 0 
L 2809 0 
L 2809 588 
Q 2647 256 2417 82 
Q 2188 -91 1906 -91 
Q 1728 -91 1581 -34 
Q 1434 22 1313 134 
L 1313 -1331 
L 738 -1331 
L 738 2988 
L 219 2988 
L 219 3322 
L 1313 3322 
L 1313 1388 
Q 1313 781 1463 556 
Q 1613 331 1991 331 
Q 2391 331 2600 625 
Q 2809 919 2809 1478 
L 2809 2988 
L 2309 2988 
L 2309 3322 
z
" transform="scale(0.015625)"/>
      </defs>
      <use xlink:href="#DejaVuSerif-3bc"/>
      <use xlink:href="#DejaVuSerif-50" transform="translate(64.990234 0)"/>
      <use xlink:href="#DejaVuSerif-52" transform="translate(132.275391 0)"/>
      <use xlink:href="#DejaVuSerif-4c" transform="translate(207.568359 0)"/>
      <use xlink:href="#DejaVuSerif-20" transform="translate(273.974609 0)"/>
      <use xlink:href="#DejaVuSerif-28" transform="translate(305.761719 0)"/>
      <use xlink:href="#DejaVuSerif-46" transform="translate(344.775391 0)"/>
      <use xlink:href="#DejaVuSerif-3d" transform="translate(414.160156 0)"/>
      <use xlink:href="#DejaVuSerif-31" transform="translate(497.949219 0)"/>
      <use xlink:href="#DejaVuSerif-31" transform="translate(561.572266 0)"/>
      <use xlink:href="#DejaVuSerif-32" transform="translate(625.195312 0)"/>
      <use xlink:href="#DejaVuSerif-35" transform="translate(688.818359 0)"/>
      <use xlink:href="#DejaVuSerif-29" transform="translate(752.441406 0)"/>
     </g>
    </g>
   </g>
  </g>
 </g>
 <defs>
  <clipPath id="pe8a6abf942">
   <rect x="60.35375" y="23.077969" width="328.69" height="296.74"/>
  </clipPath>
 </defs>
</svg>
