<?xml version="1.0" encoding="utf-8" standalone="no"?>
<!DOCTYPE svg PUBLIC "-//W3C//DTD SVG 1.1//EN"
  "http://www.w3.org/Graphics/SVG/1.1/DTD/svg11.dtd">
<svg xmlns:xlink="http://www.w3.org/1999/xlink" width="709.783281pt" height="422.05625pt" viewBox="0 0 709.783281 422.05625" xmlns="http://www.w3.org/2000/svg" version="1.1">
 <metadata>
  <rdf:RDF xmlns:dc="http://purl.org/dc/elements/1.1/" xmlns:cc="http://creativecommons.org/ns#" xmlns:rdf="http://www.w3.org/1999/02/22-rdf-syntax-ns#">
   <cc:Work>
    <dc:type rdf:resource="http://purl.org/dc/dcmitype/StillImage"/>
    <dc:date>2026-02-07T23:03:15.609466</dc:date>
    <dc:format>image/svg+xml</dc:format>
    <dc:creator>
     <cc:Agent>
      <dc:title>Matplotlib v3.10.0, https://matplotlib.org/</dc:title>
     </cc:Agent>
    </dc:creator>
   </cc:Work>
  </rdf:RDF>
 </metadata>
 <defs>
  <style type="text/css">*{stroke-linejoin: round; stroke-linecap: butt}</style>
 </defs>
 <g id="figure_1">
  <g id="patch_1">
   <path d="M 0 422.05625 
L 709.783281 422.05625 
L 709.783281 0 
L 0 0 
z
" style="fill: #ffffff"/>
  </g>
  <g id="axes_1">
   <g id="patch_2">
    <path d="M 49.842188 382.564375 
L 441.157187 382.564375 
L 441.157187 22.318125 
L 49.842188 22.318125 
z
" style="fill: #ffffff"/>
   </g>
   <g id="matplotlib.axis_1">
    <g id="xtick_1">
     <g id="line2d_1">
      <path d="M 67.612617 382.564375 
L 67.612617 22.318125 
" clip-path="url(#p60ddf6697b)" style="fill: none; stroke-dasharray: 2.96,1.28; stroke-dashoffset: 0; stroke: #b0b0b0; stroke-opacity: 0.25; stroke-width: 0.8"/>
     </g>
     <g id="line2d_2">
      <defs>
       <path id="m31796e5604" d="M 0 0 
L 0 3.5 
" style="stroke: #000000; stroke-width: 0.8"/>
      </defs>
      <g>
       <use xlink:href="#m31796e5604" x="67.612617" y="382.564375" style="stroke: #000000; stroke-width: 0.8"/>
      </g>
     </g>
     <g id="text_1">
      <!-- 0 -->
      <g transform="translate(64.113242 397.922656) scale(0.11 -0.11)">
       <defs>
        <path id="DejaVuSerif-30" d="M 2034 219 
Q 2513 219 2750 744 
Q 2988 1269 2988 2328 
Q 2988 3391 2750 3916 
Q 2513 4441 2034 4441 
Q 1556 4441 1318 3916 
Q 1081 3391 1081 2328 
Q 1081 1269 1318 744 
Q 1556 219 2034 219 
z
M 2034 -91 
Q 1275 -91 848 546 
Q 422 1184 422 2328 
Q 422 3475 848 4112 
Q 1275 4750 2034 4750 
Q 2797 4750 3222 4112 
Q 3647 3475 3647 2328 
Q 3647 1184 3222 546 
Q 2797 -91 2034 -91 
z
" transform="scale(0.015625)"/>
       </defs>
       <use xlink:href="#DejaVuSerif-30"/>
      </g>
     </g>
    </g>
    <g id="xtick_2">
     <g id="line2d_3">
      <path d="M 150.69471 382.564375 
L 150.69471 22.318125 
" clip-path="url(#p60ddf6697b)" style="fill: none; stroke-dasharray: 2.96,1.28; stroke-dashoffset: 0; stroke: #b0b0b0; stroke-opacity: 0.25; stroke-width: 0.8"/>
     </g>
     <g id="line2d_4">
      <g>
       <use xlink:href="#m31796e5604" x="150.69471" y="382.564375" style="stroke: #000000; stroke-width: 0.8"/>
      </g>
     </g>
     <g id="text_2">
      <!-- 5000 -->
      <g transform="translate(136.69721 397.922656) scale(0.11 -0.11)">
       <defs>
        <path id="DejaVuSerif-35" d="M 3219 4666 
L 3219 4153 
L 1081 4153 
L 1081 2816 
Q 1244 2928 1461 2984 
Q 1678 3041 1947 3041 
Q 2703 3041 3140 2622 
Q 3578 2203 3578 1478 
Q 3578 738 3136 323 
Q 2694 -91 1894 -91 
Q 1572 -91 1234 -12 
Q 897 66 544 225 
L 544 1131 
L 897 1131 
Q 925 688 1179 453 
Q 1434 219 1894 219 
Q 2388 219 2653 544 
Q 2919 869 2919 1478 
Q 2919 2084 2655 2407 
Q 2391 2731 1894 2731 
Q 1613 2731 1398 2631 
Q 1184 2531 1019 2322 
L 750 2322 
L 750 4666 
L 3219 4666 
z
" transform="scale(0.015625)"/>
       </defs>
       <use xlink:href="#DejaVuSerif-35"/>
       <use xlink:href="#DejaVuSerif-30" transform="translate(63.623047 0)"/>
       <use xlink:href="#DejaVuSerif-30" transform="translate(127.246094 0)"/>
       <use xlink:href="#DejaVuSerif-30" transform="translate(190.869141 0)"/>
      </g>
     </g>
    </g>
    <g id="xtick_3">
     <g id="line2d_5">
      <path d="M 233.776804 382.564375 
L 233.776804 22.318125 
" clip-path="url(#p60ddf6697b)" style="fill: none; stroke-dasharray: 2.96,1.28; stroke-dashoffset: 0; stroke: #b0b0b0; stroke-opacity: 0.25; stroke-width: 0.8"/>
     </g>
     <g id="line2d_6">
      <g>
       <use xlink:href="#m31796e5604" x="233.776804" y="382.564375" style="stroke: #000000; stroke-width: 0.8"/>
      </g>
     </g>
     <g id="text_3">
      <!-- 10000 -->
      <g transform="translate(216.279929 397.922656) scale(0.11 -0.11)">
       <defs>
        <path id="DejaVuSerif-31" d="M 909 0 
L 909 331 
L 1722 331 
L 1722 4213 
L 781 3603 
L 781 4013 
L 1919 4750 
L 2350 4750 
L 2350 331 
L 3163 331 
L 3163 0 
L 909 0 
z
" transform="scale(0.015625)"/>
       </defs>
       <use xlink:href="#DejaVuSerif-31"/>
       <use xlink:href="#DejaVuSerif-30" transform="translate(63.623047 0)"/>
       <use xlink:href="#DejaVuSerif-30" transform="translate(127.246094 0)"/>
       <use xlink:href="#DejaVuSerif-30" transform="translate(190.869141 0)"/>
       <use xlink:href="#DejaVuSerif-30" transform="translate(254.492188 0)"/>
      </g>
     </g>
    </g>
    <g id="xtick_4">
     <g id="line2d_7">
      <path d="M 316.858898 382.564375 
L 316.858898 22.318125 
" clip-path="url(#p60ddf6697b)" style="fill: none; stroke-dasharray: 2.96,1.28; stroke-dashoffset: 0; stroke: #b0b0b0; stroke-opacity: 0.25; stroke-width: 0.8"/>
     </g>
     <g id="line2d_8">
      <g>
       <use xlink:href="#m31796e5604" x="316.858898" y="382.564375" style="stroke: #000000; stroke-width: 0.8"/>
      </g>
     </g>
     <g id="text_4">
      <!-- 15000 -->
      <g transform="translate(299.362023 397.922656) scale(0.11 -0.11)">
       <use xlink:href="#DejaVuSerif-31"/>
       <use xlink:href="#DejaVuSerif-35" transform="translate(63.623047 0)"/>
       <use xlink:href="#DejaVuSerif-30" transform="translate(127.246094 0)"/>
       <use xlink:href="#DejaVuSerif-30" transform="translate(190.869141 0)"/>
       <use xlink:href="#DejaVuSerif-30" transform="translate(254.492188 0)"/>
      </g>
     </g>
    </g>
    <g id="xtick_5">
     <g id="line2d_9">
      <path d="M 399.940992 382.564375 
L 399.940992 22.318125 
" clip-path="url(#p60ddf6697b)" style="fill: none; stroke-dasharray: 2.96,1.28; stroke-dashoffset: 0; stroke: #b0b0b0; stroke-opacity: 0.25; stroke-width: 0.8"/>
     </g>
     <g id="line2d_10">
      <g>
       <use xlink:href="#m31796e5604" x="399.940992" y="382.564375" style="stroke: #000000; stroke-width: 0.8"/>
      </g>
     </g>
     <g id="text_5">
      <!-- 20000 -->
      <g transform="translate(382.444117 397.922656) scale(0.11 -0.11)">
       <defs>
        <path id="DejaVuSerif-32" d="M 819 3553 
L 469 3553 
L 469 4384 
Q 803 4563 1142 4656 
Q 1481 4750 1806 4750 
Q 2534 4750 2956 4397 
Q 3378 4044 3378 3438 
Q 3378 2753 2422 1800 
Q 2347 1728 2309 1691 
L 1131 513 
L 3078 513 
L 3078 1088 
L 3444 1088 
L 3444 0 
L 434 0 
L 434 341 
L 1850 1753 
Q 2319 2222 2519 2614 
Q 2719 3006 2719 3438 
Q 2719 3909 2473 4175 
Q 2228 4441 1797 4441 
Q 1350 4441 1106 4219 
Q 863 3997 819 3553 
z
" transform="scale(0.015625)"/>
       </defs>
       <use xlink:href="#DejaVuSerif-32"/>
       <use xlink:href="#DejaVuSerif-30" transform="translate(63.623047 0)"/>
       <use xlink:href="#DejaVuSerif-30" transform="translate(127.246094 0)"/>
       <use xlink:href="#DejaVuSerif-30" transform="translate(190.869141 0)"/>
       <use xlink:href="#DejaVuSerif-30" transform="translate(254.492188 0)"/>
      </g>
     </g>
    </g>
    <g id="text_6">
     <!-- Cumulative time (s) -->
     <g transform="translate(190.570156 412.568594) scale(0.11 -0.11)">
      <defs>
       <path id="DejaVuSerif-43" d="M 4513 1234 
Q 4306 581 3820 245 
Q 3334 -91 2591 -91 
Q 2134 -91 1743 65 
Q 1353 222 1050 525 
Q 700 875 529 1320 
Q 359 1766 359 2328 
Q 359 3416 987 4083 
Q 1616 4750 2644 4750 
Q 3025 4750 3456 4650 
Q 3888 4550 4384 4347 
L 4384 3272 
L 4031 3272 
Q 3916 3859 3567 4137 
Q 3219 4416 2591 4416 
Q 1844 4416 1459 3886 
Q 1075 3356 1075 2328 
Q 1075 1303 1459 773 
Q 1844 244 2591 244 
Q 3113 244 3450 492 
Q 3788 741 3938 1234 
L 4513 1234 
z
" transform="scale(0.015625)"/>
       <path id="DejaVuSerif-75" d="M 2266 3322 
L 3341 3322 
L 3341 331 
L 3884 331 
L 3884 0 
L 2766 0 
L 2766 588 
Q 2606 256 2353 82 
Q 2100 -91 1766 -91 
Q 1213 -91 952 223 
Q 691 538 691 1209 
L 691 2988 
L 172 2988 
L 172 3322 
L 1269 3322 
L 1269 1388 
Q 1269 781 1417 556 
Q 1566 331 1947 331 
Q 2347 331 2556 625 
Q 2766 919 2766 1478 
L 2766 2988 
L 2266 2988 
L 2266 3322 
z
" transform="scale(0.015625)"/>
       <path id="DejaVuSerif-6d" d="M 3316 2675 
Q 3481 3041 3739 3227 
Q 3997 3413 4341 3413 
Q 4863 3413 5119 3089 
Q 5375 2766 5375 2113 
L 5375 331 
L 5894 331 
L 5894 0 
L 4300 0 
L 4300 331 
L 4800 331 
L 4800 2047 
Q 4800 2556 4650 2772 
Q 4500 2988 4153 2988 
Q 3769 2988 3567 2697 
Q 3366 2406 3366 1850 
L 3366 331 
L 3866 331 
L 3866 0 
L 2291 0 
L 2291 331 
L 2791 331 
L 2791 2069 
Q 2791 2566 2641 2777 
Q 2491 2988 2144 2988 
Q 1759 2988 1557 2697 
Q 1356 2406 1356 1850 
L 1356 331 
L 1856 331 
L 1856 0 
L 263 0 
L 263 331 
L 781 331 
L 781 2994 
L 231 2994 
L 231 3322 
L 1356 3322 
L 1356 2731 
Q 1516 3063 1762 3238 
Q 2009 3413 2322 3413 
Q 2709 3413 2968 3220 
Q 3228 3028 3316 2675 
z
" transform="scale(0.015625)"/>
       <path id="DejaVuSerif-6c" d="M 1313 331 
L 1856 331 
L 1856 0 
L 184 0 
L 184 331 
L 738 331 
L 738 4531 
L 184 4531 
L 184 4863 
L 1313 4863 
L 1313 331 
z
" transform="scale(0.015625)"/>
       <path id="DejaVuSerif-61" d="M 2547 1044 
L 2547 1747 
L 1806 1747 
Q 1378 1747 1168 1562 
Q 959 1378 959 997 
Q 959 650 1171 447 
Q 1384 244 1747 244 
Q 2106 244 2326 466 
Q 2547 688 2547 1044 
z
M 3122 2075 
L 3122 331 
L 3634 331 
L 3634 0 
L 2547 0 
L 2547 359 
Q 2356 128 2106 18 
Q 1856 -91 1522 -91 
Q 969 -91 644 203 
Q 319 497 319 997 
Q 319 1513 691 1797 
Q 1063 2081 1741 2081 
L 2547 2081 
L 2547 2309 
Q 2547 2688 2317 2895 
Q 2088 3103 1672 3103 
Q 1328 3103 1125 2947 
Q 922 2791 872 2484 
L 575 2484 
L 575 3156 
Q 875 3284 1158 3348 
Q 1441 3413 1709 3413 
Q 2400 3413 2761 3070 
Q 3122 2728 3122 2075 
z
" transform="scale(0.015625)"/>
       <path id="DejaVuSerif-74" d="M 691 2988 
L 184 2988 
L 184 3322 
L 691 3322 
L 691 4353 
L 1269 4353 
L 1269 3322 
L 2350 3322 
L 2350 2988 
L 1269 2988 
L 1269 878 
Q 1269 456 1350 337 
Q 1431 219 1650 219 
Q 1875 219 1978 351 
Q 2081 484 2088 781 
L 2522 781 
Q 2497 328 2275 118 
Q 2053 -91 1600 -91 
Q 1103 -91 897 129 
Q 691 350 691 878 
L 691 2988 
z
" transform="scale(0.015625)"/>
       <path id="DejaVuSerif-69" d="M 622 4353 
Q 622 4497 726 4603 
Q 831 4709 978 4709 
Q 1122 4709 1226 4603 
Q 1331 4497 1331 4353 
Q 1331 4206 1228 4103 
Q 1125 4000 978 4000 
Q 831 4000 726 4103 
Q 622 4206 622 4353 
z
M 1356 331 
L 1900 331 
L 1900 0 
L 231 0 
L 231 331 
L 781 331 
L 781 2988 
L 231 2988 
L 231 3322 
L 1356 3322 
L 1356 331 
z
" transform="scale(0.015625)"/>
       <path id="DejaVuSerif-76" d="M 1581 0 
L 359 2988 
L -19 2988 
L -19 3322 
L 1509 3322 
L 1509 2988 
L 978 2988 
L 1913 703 
L 2847 2988 
L 2350 2988 
L 2350 3322 
L 3597 3322 
L 3597 2988 
L 3225 2988 
L 2003 0 
L 1581 0 
z
" transform="scale(0.015625)"/>
       <path id="DejaVuSerif-65" d="M 3469 1600 
L 991 1600 
L 991 1575 
Q 991 903 1244 561 
Q 1497 219 1991 219 
Q 2369 219 2611 417 
Q 2853 616 2950 1006 
L 3413 1006 
Q 3275 459 2904 184 
Q 2534 -91 1931 -91 
Q 1203 -91 761 389 
Q 319 869 319 1663 
Q 319 2450 753 2931 
Q 1188 3413 1894 3413 
Q 2647 3413 3050 2948 
Q 3453 2484 3469 1600 
z
M 2791 1931 
Q 2772 2513 2545 2808 
Q 2319 3103 1894 3103 
Q 1497 3103 1269 2806 
Q 1041 2509 991 1931 
L 2791 1931 
z
" transform="scale(0.015625)"/>
       <path id="DejaVuSerif-20" transform="scale(0.015625)"/>
       <path id="DejaVuSerif-28" d="M 2041 -997 
Q 1281 -656 893 83 
Q 506 822 506 1931 
Q 506 3044 893 3783 
Q 1281 4522 2041 4863 
L 2041 4556 
Q 1559 4225 1350 3623 
Q 1141 3022 1141 1931 
Q 1141 844 1350 242 
Q 1559 -359 2041 -691 
L 2041 -997 
z
" transform="scale(0.015625)"/>
       <path id="DejaVuSerif-73" d="M 359 184 
L 359 959 
L 691 959 
Q 703 588 923 403 
Q 1144 219 1575 219 
Q 1963 219 2166 364 
Q 2369 509 2369 788 
Q 2369 1006 2220 1140 
Q 2072 1275 1594 1428 
L 1178 1569 
Q 750 1706 558 1912 
Q 366 2119 366 2438 
Q 366 2894 700 3153 
Q 1034 3413 1625 3413 
Q 1888 3413 2178 3344 
Q 2469 3275 2778 3144 
L 2778 2419 
L 2447 2419 
Q 2434 2741 2221 2922 
Q 2009 3103 1644 3103 
Q 1281 3103 1095 2975 
Q 909 2847 909 2591 
Q 909 2381 1050 2254 
Q 1191 2128 1613 1997 
L 2069 1856 
Q 2541 1709 2748 1489 
Q 2956 1269 2956 922 
Q 2956 450 2595 179 
Q 2234 -91 1600 -91 
Q 1278 -91 972 -22 
Q 666 47 359 184 
z
" transform="scale(0.015625)"/>
       <path id="DejaVuSerif-29" d="M 453 -997 
L 453 -691 
Q 934 -359 1145 242 
Q 1356 844 1356 1931 
Q 1356 3022 1145 3623 
Q 934 4225 453 4556 
L 453 4863 
Q 1216 4522 1603 3783 
Q 1991 3044 1991 1931 
Q 1991 822 1603 83 
Q 1216 -656 453 -997 
z
" transform="scale(0.015625)"/>
      </defs>
      <use xlink:href="#DejaVuSerif-43"/>
      <use xlink:href="#DejaVuSerif-75" transform="translate(76.513672 0)"/>
      <use xlink:href="#DejaVuSerif-6d" transform="translate(140.917969 0)"/>
      <use xlink:href="#DejaVuSerif-75" transform="translate(235.742188 0)"/>
      <use xlink:href="#DejaVuSerif-6c" transform="translate(300.146484 0)"/>
      <use xlink:href="#DejaVuSerif-61" transform="translate(332.128906 0)"/>
      <use xlink:href="#DejaVuSerif-74" transform="translate(391.748047 0)"/>
      <use xlink:href="#DejaVuSerif-69" transform="translate(431.933594 0)"/>
      <use xlink:href="#DejaVuSerif-76" transform="translate(463.916016 0)"/>
      <use xlink:href="#DejaVuSerif-65" transform="translate(520.410156 0)"/>
      <use xlink:href="#DejaVuSerif-20" transform="translate(579.589844 0)"/>
      <use xlink:href="#DejaVuSerif-74" transform="translate(611.376953 0)"/>
      <use xlink:href="#DejaVuSerif-69" transform="translate(651.5625 0)"/>
      <use xlink:href="#DejaVuSerif-6d" transform="translate(683.544922 0)"/>
      <use xlink:href="#DejaVuSerif-65" transform="translate(778.369141 0)"/>
      <use xlink:href="#DejaVuSerif-20" transform="translate(837.548828 0)"/>
      <use xlink:href="#DejaVuSerif-28" transform="translate(869.335938 0)"/>
      <use xlink:href="#DejaVuSerif-73" transform="translate(908.349609 0)"/>
      <use xlink:href="#DejaVuSerif-29" transform="translate(959.667969 0)"/>
     </g>
    </g>
   </g>
   <g id="matplotlib.axis_2">
    <g id="ytick_1">
     <g id="line2d_11">
      <path d="M 49.842188 366.189545 
L 441.157187 366.189545 
" clip-path="url(#p60ddf6697b)" style="fill: none; stroke-dasharray: 2.96,1.28; stroke-dashoffset: 0; stroke: #b0b0b0; stroke-opacity: 0.25; stroke-width: 0.8"/>
     </g>
     <g id="line2d_12">
      <defs>
       <path id="maea2e7b7f9" d="M 0 0 
L -3.5 0 
" style="stroke: #000000; stroke-width: 0.8"/>
      </defs>
      <g>
       <use xlink:href="#maea2e7b7f9" x="49.842188" y="366.189545" style="stroke: #000000; stroke-width: 0.8"/>
      </g>
     </g>
     <g id="text_7">
      <!-- 0 -->
      <g transform="translate(35.843438 370.368686) scale(0.11 -0.11)">
       <use xlink:href="#DejaVuSerif-30"/>
      </g>
     </g>
    </g>
    <g id="ytick_2">
     <g id="line2d_13">
      <path d="M 49.842188 305.089435 
L 441.157187 305.089435 
" clip-path="url(#p60ddf6697b)" style="fill: none; stroke-dasharray: 2.96,1.28; stroke-dashoffset: 0; stroke: #b0b0b0; stroke-opacity: 0.25; stroke-width: 0.8"/>
     </g>
     <g id="line2d_14">
      <g>
       <use xlink:href="#maea2e7b7f9" x="49.842188" y="305.089435" style="stroke: #000000; stroke-width: 0.8"/>
      </g>
     </g>
     <g id="text_8">
      <!-- 100 -->
      <g transform="translate(21.845938 309.268576) scale(0.11 -0.11)">
       <use xlink:href="#DejaVuSerif-31"/>
       <use xlink:href="#DejaVuSerif-30" transform="translate(63.623047 0)"/>
       <use xlink:href="#DejaVuSerif-30" transform="translate(127.246094 0)"/>
      </g>
     </g>
    </g>
    <g id="ytick_3">
     <g id="line2d_15">
      <path d="M 49.842188 243.989325 
L 441.157187 243.989325 
" clip-path="url(#p60ddf6697b)" style="fill: none; stroke-dasharray: 2.96,1.28; stroke-dashoffset: 0; stroke: #b0b0b0; stroke-opacity: 0.25; stroke-width: 0.8"/>
     </g>
     <g id="line2d_16">
      <g>
       <use xlink:href="#maea2e7b7f9" x="49.842188" y="243.989325" style="stroke: #000000; stroke-width: 0.8"/>
      </g>
     </g>
     <g id="text_9">
      <!-- 200 -->
      <g transform="translate(21.845938 248.168466) scale(0.11 -0.11)">
       <use xlink:href="#DejaVuSerif-32"/>
       <use xlink:href="#DejaVuSerif-30" transform="translate(63.623047 0)"/>
       <use xlink:href="#DejaVuSerif-30" transform="translate(127.246094 0)"/>
      </g>
     </g>
    </g>
    <g id="ytick_4">
     <g id="line2d_17">
      <path d="M 49.842188 182.889215 
L 441.157187 182.889215 
" clip-path="url(#p60ddf6697b)" style="fill: none; stroke-dasharray: 2.96,1.28; stroke-dashoffset: 0; stroke: #b0b0b0; stroke-opacity: 0.25; stroke-width: 0.8"/>
     </g>
     <g id="line2d_18">
      <g>
       <use xlink:href="#maea2e7b7f9" x="49.842188" y="182.889215" style="stroke: #000000; stroke-width: 0.8"/>
      </g>
     </g>
     <g id="text_10">
      <!-- 300 -->
      <g transform="translate(21.845938 187.068355) scale(0.11 -0.11)">
       <defs>
        <path id="DejaVuSerif-33" d="M 622 4469 
Q 988 4606 1323 4678 
Q 1659 4750 1953 4750 
Q 2638 4750 3022 4454 
Q 3406 4159 3406 3634 
Q 3406 3213 3140 2930 
Q 2875 2647 2388 2547 
Q 2963 2466 3280 2130 
Q 3597 1794 3597 1259 
Q 3597 606 3158 257 
Q 2719 -91 1894 -91 
Q 1528 -91 1179 -12 
Q 831 66 488 225 
L 488 1131 
L 838 1131 
Q 869 681 1141 450 
Q 1413 219 1906 219 
Q 2384 219 2661 495 
Q 2938 772 2938 1253 
Q 2938 1803 2653 2086 
Q 2369 2369 1819 2369 
L 1522 2369 
L 1522 2688 
L 1678 2688 
Q 2225 2688 2498 2914 
Q 2772 3141 2772 3597 
Q 2772 4006 2547 4223 
Q 2322 4441 1900 4441 
Q 1478 4441 1245 4241 
Q 1013 4041 972 3647 
L 622 3647 
L 622 4469 
z
" transform="scale(0.015625)"/>
       </defs>
       <use xlink:href="#DejaVuSerif-33"/>
       <use xlink:href="#DejaVuSerif-30" transform="translate(63.623047 0)"/>
       <use xlink:href="#DejaVuSerif-30" transform="translate(127.246094 0)"/>
      </g>
     </g>
    </g>
    <g id="ytick_5">
     <g id="line2d_19">
      <path d="M 49.842188 121.789104 
L 441.157187 121.789104 
" clip-path="url(#p60ddf6697b)" style="fill: none; stroke-dasharray: 2.96,1.28; stroke-dashoffset: 0; stroke: #b0b0b0; stroke-opacity: 0.25; stroke-width: 0.8"/>
     </g>
     <g id="line2d_20">
      <g>
       <use xlink:href="#maea2e7b7f9" x="49.842188" y="121.789104" style="stroke: #000000; stroke-width: 0.8"/>
      </g>
     </g>
     <g id="text_11">
      <!-- 400 -->
      <g transform="translate(21.845938 125.968245) scale(0.11 -0.11)">
       <defs>
        <path id="DejaVuSerif-34" d="M 2234 1581 
L 2234 4063 
L 641 1581 
L 2234 1581 
z
M 3609 0 
L 1484 0 
L 1484 331 
L 2234 331 
L 2234 1247 
L 197 1247 
L 197 1588 
L 2241 4750 
L 2859 4750 
L 2859 1581 
L 3750 1581 
L 3750 1247 
L 2859 1247 
L 2859 331 
L 3609 331 
L 3609 0 
z
" transform="scale(0.015625)"/>
       </defs>
       <use xlink:href="#DejaVuSerif-34"/>
       <use xlink:href="#DejaVuSerif-30" transform="translate(63.623047 0)"/>
       <use xlink:href="#DejaVuSerif-30" transform="translate(127.246094 0)"/>
      </g>
     </g>
    </g>
    <g id="ytick_6">
     <g id="line2d_21">
      <path d="M 49.842188 60.688994 
L 441.157187 60.688994 
" clip-path="url(#p60ddf6697b)" style="fill: none; stroke-dasharray: 2.96,1.28; stroke-dashoffset: 0; stroke: #b0b0b0; stroke-opacity: 0.25; stroke-width: 0.8"/>
     </g>
     <g id="line2d_22">
      <g>
       <use xlink:href="#maea2e7b7f9" x="49.842188" y="60.688994" style="stroke: #000000; stroke-width: 0.8"/>
      </g>
     </g>
     <g id="text_12">
      <!-- 500 -->
      <g transform="translate(21.845938 64.868135) scale(0.11 -0.11)">
       <use xlink:href="#DejaVuSerif-35"/>
       <use xlink:href="#DejaVuSerif-30" transform="translate(63.623047 0)"/>
       <use xlink:href="#DejaVuSerif-30" transform="translate(127.246094 0)"/>
      </g>
     </g>
    </g>
    <g id="text_13">
     <!-- Cumulative failures -->
     <g transform="translate(15.558281 257.150781) rotate(-90) scale(0.11 -0.11)">
      <defs>
       <path id="DejaVuSerif-66" d="M 2753 4078 
L 2450 4078 
Q 2447 4313 2317 4434 
Q 2188 4556 1941 4556 
Q 1619 4556 1487 4379 
Q 1356 4203 1356 3750 
L 1356 3322 
L 2284 3322 
L 2284 2988 
L 1356 2988 
L 1356 331 
L 2094 331 
L 2094 0 
L 231 0 
L 231 331 
L 781 331 
L 781 2988 
L 231 2988 
L 231 3322 
L 781 3322 
L 781 3738 
Q 781 4294 1070 4578 
Q 1359 4863 1919 4863 
Q 2128 4863 2337 4825 
Q 2547 4788 2753 4709 
L 2753 4078 
z
" transform="scale(0.015625)"/>
       <path id="DejaVuSerif-72" d="M 3059 3328 
L 3059 2497 
L 2728 2497 
Q 2713 2744 2591 2866 
Q 2469 2988 2234 2988 
Q 1809 2988 1582 2694 
Q 1356 2400 1356 1850 
L 1356 331 
L 2022 331 
L 2022 0 
L 263 0 
L 263 331 
L 781 331 
L 781 2994 
L 231 2994 
L 231 3322 
L 1356 3322 
L 1356 2731 
Q 1525 3078 1790 3245 
Q 2056 3413 2438 3413 
Q 2578 3413 2733 3391 
Q 2888 3369 3059 3328 
z
" transform="scale(0.015625)"/>
      </defs>
      <use xlink:href="#DejaVuSerif-43"/>
      <use xlink:href="#DejaVuSerif-75" transform="translate(76.513672 0)"/>
      <use xlink:href="#DejaVuSerif-6d" transform="translate(140.917969 0)"/>
      <use xlink:href="#DejaVuSerif-75" transform="translate(235.742188 0)"/>
      <use xlink:href="#DejaVuSerif-6c" transform="translate(300.146484 0)"/>
      <use xlink:href="#DejaVuSerif-61" transform="translate(332.128906 0)"/>
      <use xlink:href="#DejaVuSerif-74" transform="translate(391.748047 0)"/>
      <use xlink:href="#DejaVuSerif-69" transform="translate(431.933594 0)"/>
      <use xlink:href="#DejaVuSerif-76" transform="translate(463.916016 0)"/>
      <use xlink:href="#DejaVuSerif-65" transform="translate(520.410156 0)"/>
      <use xlink:href="#DejaVuSerif-20" transform="translate(579.589844 0)"/>
      <use xlink:href="#DejaVuSerif-66" transform="translate(611.376953 0)"/>
      <use xlink:href="#DejaVuSerif-61" transform="translate(648.388672 0)"/>
      <use xlink:href="#DejaVuSerif-69" transform="translate(708.007812 0)"/>
      <use xlink:href="#DejaVuSerif-6c" transform="translate(739.990234 0)"/>
      <use xlink:href="#DejaVuSerif-75" transform="translate(771.972656 0)"/>
      <use xlink:href="#DejaVuSerif-72" transform="translate(836.376953 0)"/>
      <use xlink:href="#DejaVuSerif-65" transform="translate(884.179688 0)"/>
      <use xlink:href="#DejaVuSerif-73" transform="translate(943.359375 0)"/>
     </g>
    </g>
   </g>
   <g id="line2d_23">
    <path d="M 67.629233 366.189545 
L 73.843774 366.189545 
L 74.192718 357.024529 
L 74.225951 357.024529 
L 74.657978 344.804507 
L 74.674595 344.804507 
L 74.907224 339.916498 
L 74.923841 339.916498 
L 75.372484 327.085475 
L 75.389101 327.085475 
L 75.62173 322.197466 
L 75.654963 322.197466 
L 75.85436 318.531459 
L 75.870977 318.531459 
L 76.037141 316.087455 
L 76.053757 316.087455 
L 76.402702 306.922439 
L 76.435935 306.922439 
L 76.651948 302.645431 
L 76.668565 302.645431 
L 77.050742 292.258412 
L 77.083975 292.258412 
L 77.532619 279.427389 
L 77.549235 279.427389 
L 77.748632 275.761382 
L 77.765248 275.761382 
L 78.064344 268.429369 
L 78.097577 268.429369 
L 78.346823 262.930359 
L 78.363439 262.930359 
L 78.612686 257.431349 
L 78.629302 257.431349 
L 78.845316 253.154342 
L 78.861932 253.154342 
L 79.19426 244.600326 
L 79.227493 244.600326 
L 79.576438 235.43531 
L 79.626287 235.43531 
L 79.941999 227.492295 
L 79.991849 227.492295 
L 80.174629 224.43729 
L 86.306088 224.43729 
L 86.6218 216.494275 
L 86.655032 216.494275 
L 87.153525 201.830249 
L 87.170141 201.830249 
L 87.718483 185.333219 
L 87.768332 185.333219 
L 88.067428 178.001206 
L 88.084044 178.001206 
L 88.283441 174.335199 
L 88.300058 174.335199 
L 88.715468 162.726178 
L 88.732085 162.726178 
L 89.064413 154.172163 
L 89.08103 154.172163 
L 89.413358 145.618147 
L 89.429974 145.618147 
L 89.596139 143.174143 
L 89.645988 143.174143 
L 90.078015 130.954121 
L 90.127864 130.954121 
L 90.676206 114.457091 
L 90.692822 114.457091 
L 90.858986 112.013087 
L 90.875603 112.013087 
L 91.124849 106.514077 
L 91.158082 106.514077 
L 91.390712 101.626068 
L 91.407328 101.626068 
L 91.806122 90.628048 
L 91.839355 90.628048 
L 92.204916 80.852031 
L 92.254766 80.852031 
L 92.537245 71.687014 
L 92.537245 71.687014 
" clip-path="url(#p60ddf6697b)" style="fill: none; stroke: #15b01a; stroke-width: 1.6; stroke-linecap: square"/>
   </g>
   <g id="line2d_24">
    <path d="M 67.845246 366.189545 
L 68.111109 366.189545 
L 68.343739 364.967543 
L 68.626218 364.356542 
L 69.108094 364.356542 
L 69.307491 363.745541 
L 69.772751 363.745541 
L 69.889066 363.13454 
L 70.204778 362.523539 
L 70.670038 362.523539 
L 70.786353 361.912538 
L 71.052215 361.912538 
L 71.583941 360.690536 
L 72.28183 360.690536 
L 72.51446 360.079534 
L 73.046185 360.079534 
L 73.245582 359.468533 
L 73.710842 359.468533 
L 74.009938 358.857532 
L 74.408732 357.63553 
L 74.873992 357.63553 
L 74.990306 357.024529 
L 75.322635 356.413528 
L 75.555265 356.413528 
L 75.754662 355.802527 
L 78.197275 355.802527 
L 78.529604 355.191526 
L 79.01148 355.191526 
L 79.310575 354.580525 
L 79.775835 354.580525 
L 80.025081 353.969523 
L 80.141396 353.358522 
L 80.506957 352.747521 
L 80.623272 352.13652 
L 81.088532 352.13652 
L 81.371011 351.525519 
L 81.88612 351.525519 
L 82.085517 350.914518 
L 82.58401 350.914518 
L 82.866489 350.303517 
L 83.348365 350.303517 
L 83.46468 349.692516 
L 83.797008 349.081515 
L 84.11272 347.859512 
L 84.428432 347.248511 
L 84.893692 347.248511 
L 85.076473 346.63751 
L 85.790979 346.63751 
L 86.422403 345.415508 
L 86.655032 345.415508 
L 86.754731 344.804507 
L 88.200359 344.804507 
L 88.532688 344.193506 
L 89.49644 344.193506 
L 89.812152 343.582505 
L 90.576507 343.582505 
L 90.84237 342.971504 
L 91.606725 342.971504 
L 91.872588 342.360502 
L 92.37108 342.360502 
L 92.769875 341.1385 
L 93.933024 341.1385 
L 94.049339 340.527499 
L 95.013091 340.527499 
L 95.245721 339.916498 
L 97.455705 339.916498 
L 97.771417 338.694496 
L 98.253293 338.694496 
L 98.63547 338.083495 
L 99.56599 338.083495 
L 99.715538 337.472494 
L 100.67929 337.472494 
L 100.961769 336.250491 
L 101.194399 336.250491 
L 101.343947 335.63949 
L 101.809206 335.63949 
L 102.108302 335.028489 
L 102.274466 334.417488 
L 103.005588 334.417488 
L 103.121903 333.806487 
L 103.387766 333.806487 
L 103.686862 333.195486 
L 103.919492 333.195486 
L 104.035806 332.584485 
L 104.285053 332.584485 
L 104.733696 331.973484 
L 105.464818 331.973484 
L 105.581133 331.362483 
L 106.827365 331.362483 
L 107.12646 330.751482 
L 107.35909 330.751482 
L 107.82435 329.529479 
L 108.555472 329.529479 
L 109.004116 328.307477 
L 109.469375 328.307477 
L 109.768471 327.696476 
L 110.466361 327.696476 
L 110.665758 327.085475 
L 111.430113 327.085475 
L 111.762441 326.474474 
L 111.995071 326.474474 
L 112.360632 325.863473 
L 113.108371 325.863473 
L 113.407467 325.252472 
L 113.673329 325.252472 
L 113.972425 324.64147 
L 114.08874 324.030469 
L 115.268506 324.030469 
L 115.567601 323.419468 
L 117.993598 323.419468 
L 118.143146 322.808467 
L 118.874268 322.808467 
L 119.173364 322.197466 
L 119.339528 321.586465 
L 119.572158 321.586465 
L 119.721706 320.975464 
L 120.668842 320.975464 
L 120.835006 320.364463 
L 121.150718 319.753462 
L 121.383348 319.753462 
L 121.715676 319.142461 
L 124.5737 319.142461 
L 124.789713 318.531459 
L 125.188508 317.920458 
L 125.520836 316.698456 
L 126.218725 316.698456 
L 126.584287 316.087455 
L 127.348642 316.087455 
L 127.464957 315.476454 
L 127.697587 315.476454 
L 128.777654 313.03245 
L 128.927202 312.421448 
L 129.176448 312.421448 
L 129.841105 311.199446 
L 130.306364 311.199446 
L 130.455912 310.588445 
L 132.865293 310.588445 
L 132.981608 309.977444 
L 133.264087 309.366443 
L 134.659866 309.366443 
L 134.909112 308.755442 
L 135.872865 308.755442 
L 136.088878 308.144441 
L 137.551123 308.144441 
L 137.933301 306.922439 
L 138.897053 306.922439 
L 139.196149 306.311437 
L 140.193134 306.311437 
L 140.708243 305.089435 
L 141.904625 305.089435 
L 142.187104 304.478434 
L 143.416719 304.478434 
L 143.732431 303.867433 
L 144.463553 303.867433 
L 144.762649 303.256432 
L 145.094977 302.03443 
L 145.792867 302.03443 
L 145.909182 301.423429 
L 146.191661 300.812427 
L 146.341209 300.201426 
L 146.573838 300.201426 
L 146.856318 299.590425 
L 147.088947 299.590425 
L 147.371427 298.979424 
L 147.869919 298.979424 
L 148.46811 297.757422 
L 148.733973 297.757422 
L 149.099534 297.146421 
L 149.797424 297.146421 
L 149.946971 296.53542 
L 152.439434 296.53542 
L 152.555749 295.924419 
L 152.788379 295.924419 
L 152.937927 295.313418 
L 154.150925 295.313418 
L 154.433405 294.702416 
L 154.898664 294.702416 
L 155.181143 294.091415 
L 155.413773 294.091415 
L 155.712869 292.869413 
L 155.995348 292.258412 
L 156.460608 292.258412 
L 156.792936 291.03641 
L 157.524058 291.03641 
L 157.806538 289.814408 
L 158.570893 289.814408 
L 158.687208 289.203407 
L 160.880575 289.203407 
L 161.196287 288.592405 
L 163.888147 288.592405 
L 164.120777 287.981404 
L 164.635886 287.981404 
L 164.901748 287.370403 
L 165.184227 286.148401 
L 165.898733 286.148401 
L 166.164596 285.5374 
L 167.826238 285.5374 
L 168.025635 284.926399 
L 168.524128 284.926399 
L 168.723525 284.315398 
L 168.956155 284.315398 
L 169.122319 283.704397 
L 169.454647 283.093396 
L 169.637428 282.482394 
L 169.870058 282.482394 
L 170.335317 281.260392 
L 170.534714 280.649391 
L 170.767344 280.649391 
L 171.049823 279.427389 
L 171.531699 279.427389 
L 171.814179 278.816388 
L 172.312671 276.983384 
L 173.043794 276.983384 
L 173.376122 276.372383 
L 173.841382 276.372383 
L 174.140477 275.761382 
L 174.273409 275.150381 
L 175.004531 275.150381 
L 175.137462 274.53938 
L 175.602722 274.53938 
L 175.885201 273.317378 
L 176.117831 273.317378 
L 176.40031 272.706377 
L 176.63294 272.706377 
L 176.948652 272.095376 
L 177.879171 272.095376 
L 178.145034 270.873373 
L 178.377664 270.873373 
L 178.876157 269.651371 
L 179.142019 269.04037 
L 179.274951 268.429369 
L 180.039306 268.429369 
L 180.504566 267.207367 
L 180.770428 267.207367 
L 180.886743 266.596366 
L 181.135989 266.596366 
L 181.534784 264.763362 
L 183.977397 264.763362 
L 184.293109 264.152361 
L 184.459273 263.54136 
L 184.957766 263.54136 
L 185.290094 262.930359 
L 185.755354 262.930359 
L 186.037833 262.319358 
L 186.519709 262.319358 
L 186.719106 261.708357 
L 187.649626 261.708357 
L 188.148118 260.486355 
L 189.610363 260.486355 
L 189.793144 259.875354 
L 190.540882 259.875354 
L 190.839978 259.264353 
L 191.072608 259.264353 
L 191.654183 258.04235 
L 191.836963 257.431349 
L 192.568086 257.431349 
L 192.6844 256.820348 
L 193.432139 256.820348 
L 193.930632 255.598346 
L 194.395892 255.598346 
L 194.678371 254.987345 
L 195.409493 254.987345 
L 195.575657 254.376344 
L 197.752408 254.376344 
L 197.868723 253.765343 
L 198.367216 253.765343 
L 198.649695 253.154342 
L 200.411035 253.154342 
L 200.643665 251.932339 
L 200.876295 251.932339 
L 201.192007 251.321338 
L 201.45787 251.321338 
L 201.806814 250.710337 
L 202.122526 249.488335 
L 202.587786 249.488335 
L 202.720717 248.877334 
L 203.019813 248.266333 
L 204.232812 248.266333 
L 204.864235 247.04433 
L 205.013783 246.433329 
L 205.778138 246.433329 
L 205.944303 245.822328 
L 207.257 243.378324 
L 207.48963 243.378324 
L 207.838574 242.156322 
L 208.586313 242.156322 
L 208.78571 240.934319 
L 209.068189 240.323318 
L 209.334052 240.323318 
L 209.616531 239.712317 
L 209.849161 239.712317 
L 210.015325 239.101316 
L 210.247955 239.101316 
L 210.646749 237.879314 
L 213.621088 237.879314 
L 213.920184 237.268313 
L 214.418676 237.268313 
L 214.551608 236.657312 
L 215.033484 236.657312 
L 215.149799 236.046311 
L 215.382429 236.046311 
L 215.498743 235.43531 
L 216.196633 235.43531 
L 216.362797 234.824308 
L 216.595427 234.824308 
L 217.010838 233.602306 
L 218.938342 233.602306 
L 219.054657 232.991305 
L 219.287287 232.991305 
L 219.436835 232.380304 
L 219.951944 232.380304 
L 220.251039 231.769303 
L 220.982162 231.769303 
L 221.248024 231.158302 
L 221.713284 231.158302 
L 221.862832 230.547301 
L 222.826584 230.547301 
L 222.959515 229.9363 
L 225.701225 229.9363 
L 225.817539 229.325299 
L 226.797908 229.325299 
L 227.313017 228.103296 
L 227.462565 227.492295 
L 227.961058 227.492295 
L 228.542632 226.270293 
L 228.858344 225.659292 
L 229.855329 225.659292 
L 230.087959 225.048291 
L 230.320589 225.048291 
L 230.536602 224.43729 
L 231.948998 224.43729 
L 232.248094 223.826289 
L 232.72997 223.826289 
L 232.9626 223.215287 
L 233.195229 223.215287 
L 234.059283 221.382284 
L 234.291913 221.382284 
L 234.591009 220.771283 
L 235.072885 220.771283 
L 235.272282 220.160282 
L 235.770774 220.160282 
L 235.970171 219.549281 
L 237.64843 219.549281 
L 238.213388 218.327279 
L 238.977743 218.327279 
L 239.210373 217.105276 
L 239.791948 215.883274 
L 240.788933 215.883274 
L 240.955097 215.272273 
L 241.719452 215.272273 
L 242.018548 214.661272 
L 242.251178 214.661272 
L 242.533657 214.050271 
L 242.799519 212.828269 
L 243.032149 212.828269 
L 243.397711 212.217268 
L 244.378079 212.217268 
L 244.97627 210.995265 
L 246.172652 210.995265 
L 246.737611 209.162262 
L 246.970241 209.162262 
L 247.302569 208.551261 
L 247.535199 208.551261 
L 247.867527 207.94026 
L 248.59865 207.94026 
L 248.980827 206.718258 
L 249.678717 206.718258 
L 249.977812 206.107257 
L 250.476305 206.107257 
L 250.708935 205.496256 
L 250.941565 205.496256 
L 251.124345 204.885254 
L 251.356975 204.885254 
L 251.689303 204.274253 
L 252.420426 204.274253 
L 252.719521 203.663252 
L 253.949136 203.663252 
L 254.248232 203.052251 
L 254.730108 203.052251 
L 255.095669 201.830249 
L 255.560929 201.830249 
L 255.893257 201.219248 
L 256.39175 201.219248 
L 256.690846 200.608247 
L 256.923475 200.608247 
L 257.08964 199.997246 
L 257.355502 199.997246 
L 257.687831 198.775243 
L 258.867596 198.775243 
L 259.465787 197.553241 
L 259.582102 196.94224 
L 259.814732 196.94224 
L 259.947664 196.331239 
L 260.180293 196.331239 
L 260.61232 195.109237 
L 260.84495 195.109237 
L 261.011114 194.498236 
L 261.31021 193.887235 
L 261.692388 192.665232 
L 264.018686 192.665232 
L 264.317782 192.054231 
L 265.048904 192.054231 
L 265.198452 191.44323 
L 266.162204 191.44323 
L 266.295136 190.832229 
L 266.993025 190.832229 
L 267.591216 188.999226 
L 270.183378 188.999226 
L 270.532322 187.777224 
L 271.030815 187.777224 
L 271.313294 186.555221 
L 271.778554 186.555221 
L 272.011184 185.94422 
L 272.509676 185.94422 
L 272.625991 185.333219 
L 272.858621 184.722218 
L 273.124484 184.722218 
L 273.423579 184.111217 
L 273.689442 182.889215 
L 274.387332 182.889215 
L 274.553496 182.278214 
L 275.035372 182.278214 
L 275.201536 181.667213 
L 276.132055 181.667213 
L 276.464384 181.056211 
L 277.195506 181.056211 
L 277.41152 180.44521 
L 278.7076 180.44521 
L 279.222709 179.223208 
L 279.455339 179.223208 
L 279.571654 178.612207 
L 280.05353 178.612207 
L 280.252927 178.001206 
L 280.75142 178.001206 
L 280.917584 177.390205 
L 281.249912 176.779204 
L 282.014268 176.779204 
L 282.645692 175.557201 
L 283.110951 175.557201 
L 283.310348 174.9462 
L 283.725759 174.335199 
L 284.689511 174.335199 
L 284.988607 173.724198 
L 285.221237 173.724198 
L 285.387401 173.113197 
L 285.66988 172.502196 
L 285.819428 171.891195 
L 286.118523 171.280194 
L 287.298289 171.280194 
L 287.414604 170.669193 
L 287.730316 170.058192 
L 288.046028 168.836189 
L 288.278658 168.836189 
L 288.910081 167.614187 
L 289.441807 167.614187 
L 289.574738 167.003186 
L 290.073231 167.003186 
L 290.256011 166.392185 
L 290.488641 166.392185 
L 291.070216 165.170183 
L 291.302846 165.170183 
L 291.452394 164.559182 
L 291.917653 164.559182 
L 292.216749 163.948181 
L 292.482612 163.948181 
L 292.81494 163.337179 
L 293.064186 163.337179 
L 293.296816 162.726178 
L 293.828541 162.726178 
L 294.027938 162.115177 
L 294.493198 162.115177 
L 294.692595 161.504176 
L 295.191088 161.504176 
L 295.672964 160.282174 
L 295.905594 160.282174 
L 296.354237 159.060172 
L 296.6201 159.060172 
L 296.919195 158.449171 
L 297.08536 157.83817 
L 297.583852 157.83817 
L 298.115577 156.616167 
L 298.38144 156.616167 
L 298.896549 155.394165 
L 299.095946 154.783164 
L 300.076315 154.783164 
L 300.37541 154.172163 
L 300.60804 154.172163 
L 301.023451 152.950161 
L 301.48871 152.950161 
L 301.704724 152.33916 
L 302.435846 152.33916 
L 302.668476 151.728158 
L 302.934339 151.728158 
L 303.050654 151.117157 
L 303.798393 149.284154 
L 303.99779 148.673153 
L 304.496282 148.673153 
L 304.728912 148.062152 
L 306.922279 148.062152 
L 307.055211 147.451151 
L 308.018963 147.451151 
L 308.567305 146.229149 
L 309.032565 146.229149 
L 309.33166 145.618147 
L 311.973671 145.618147 
L 312.106602 145.007146 
L 312.339232 145.007146 
L 312.505396 144.396145 
L 313.219902 144.396145 
L 313.435916 143.785144 
L 314.648914 143.785144 
L 314.781845 143.174143 
L 315.080941 142.563142 
L 315.346804 142.563142 
L 315.795447 141.952141 
L 316.028077 141.952141 
L 316.227474 141.34114 
L 317.63987 141.34114 
L 317.938965 140.730139 
L 319.135347 140.730139 
L 319.467676 140.119138 
L 320.165565 140.119138 
L 320.348346 139.508136 
L 321.544728 139.508136 
L 321.843823 138.897135 
L 322.109686 138.897135 
L 322.691261 137.675133 
L 323.222986 137.675133 
L 323.38915 137.064132 
L 325.333271 137.064132 
L 325.615751 136.453131 
L 326.579503 136.453131 
L 326.695818 135.84213 
L 326.945064 135.231129 
L 327.177694 135.231129 
L 327.294009 134.620128 
L 327.526639 134.009127 
L 328.241145 134.009127 
L 328.54024 133.398125 
L 328.789487 133.398125 
L 329.287979 132.176123 
L 330.019101 132.176123 
L 330.251731 131.565122 
L 332.195852 131.565122 
L 332.910358 130.34312 
L 333.142988 130.34312 
L 333.475317 129.121118 
L 333.707946 129.121118 
L 333.874111 128.510117 
L 334.33937 128.510117 
L 334.638466 127.899116 
L 335.103726 127.899116 
L 335.319739 126.677113 
L 335.951163 124.84411 
L 336.250259 124.233109 
L 336.482888 124.233109 
L 336.682285 123.622108 
L 336.914915 123.622108 
L 337.313709 123.011107 
L 337.546339 123.011107 
L 337.845435 122.400106 
L 340.005569 122.400106 
L 340.337898 121.789104 
L 340.520678 121.178103 
L 342.18232 121.178103 
L 342.896826 119.956101 
L 343.395319 119.956101 
L 343.893811 118.734099 
L 344.17629 118.123098 
L 344.425537 118.123098 
L 344.708016 117.512097 
L 344.940646 117.512097 
L 345.272974 116.901096 
L 345.439138 116.290095 
L 345.937631 116.290095 
L 346.070562 115.679093 
L 346.336425 115.679093 
L 346.652137 115.068092 
L 347.150629 115.068092 
L 347.482958 114.457091 
L 348.67934 114.457091 
L 349.144599 113.235089 
L 349.377229 113.235089 
L 349.576626 112.624088 
L 350.075119 112.624088 
L 350.67331 111.402086 
L 351.902925 111.402086 
L 352.135555 110.791085 
L 353.298704 110.791085 
L 353.464868 110.180084 
L 353.697498 110.180084 
L 353.83043 109.569082 
L 354.096292 108.958081 
L 354.328922 108.958081 
L 354.677867 108.34708 
L 354.94373 108.34708 
L 355.558537 107.125078 
L 355.791167 107.125078 
L 356.322892 105.903076 
L 357.486042 103.459071 
L 358.017767 103.459071 
L 359.330464 101.015067 
L 359.646176 100.404066 
L 360.593312 100.404066 
L 360.875791 99.793065 
L 361.341051 99.793065 
L 361.62353 99.182064 
L 362.354652 99.182064 
L 362.470967 98.571063 
L 362.703597 98.571063 
L 363.683966 95.516057 
L 363.949829 95.516057 
L 364.232308 94.905056 
L 364.996663 94.905056 
L 365.19606 94.294055 
L 365.827484 93.072053 
L 365.960415 92.461052 
L 366.259511 91.85005 
L 366.409059 91.239049 
L 367.572208 91.239049 
L 367.954386 90.017047 
L 369.366781 88.184044 
L 369.599411 88.184044 
L 369.948356 86.962042 
L 370.446848 86.962042 
L 370.696095 86.351041 
L 371.626614 86.351041 
L 371.92571 85.740039 
L 373.122092 85.740039 
L 373.487653 85.129038 
L 373.803365 83.907036 
L 374.035995 83.907036 
L 374.33509 82.685034 
L 375.03298 82.685034 
L 375.26561 82.074033 
L 375.49824 82.074033 
L 375.647787 81.463032 
L 375.880417 81.463032 
L 376.179513 80.852031 
L 376.412143 80.852031 
L 377.043567 79.630028 
L 379.702194 79.630028 
L 379.984673 79.019027 
L 380.915192 79.019027 
L 381.181055 78.408026 
L 381.928794 78.408026 
L 382.244506 77.797025 
L 382.510368 77.797025 
L 382.726382 77.186024 
L 383.70675 77.186024 
L 384.039079 76.575023 
L 386.016433 76.575023 
L 386.315528 75.964022 
L 387.295897 75.964022 
L 387.727924 74.74202 
L 388.940922 74.74202 
L 389.123703 74.131018 
L 390.386551 74.131018 
L 390.851811 72.909016 
L 391.117673 72.909016 
L 391.233988 72.298015 
L 392.214357 72.298015 
L 392.446987 71.687014 
L 392.679617 71.687014 
L 393.294424 70.465012 
L 393.792917 70.465012 
L 394.058779 69.854011 
L 395.753654 69.854011 
L 396.484777 68.021007 
L 397.249132 68.021007 
L 397.548227 67.410006 
L 398.246117 67.410006 
L 398.412281 66.799005 
L 398.877541 66.799005 
L 399.243102 65.577003 
L 399.442499 64.966002 
L 399.907759 64.966002 
L 400.289936 63.744 
L 400.755196 63.744 
L 400.987826 63.132999 
L 401.453086 63.132999 
L 401.685716 61.910996 
L 402.200825 61.910996 
L 402.383605 61.299995 
L 402.616235 61.299995 
L 402.865481 60.688994 
L 403.330741 60.688994 
L 403.463672 60.077993 
L 403.962165 60.077993 
L 404.095096 59.466992 
L 404.427425 58.855991 
L 404.660055 58.855991 
L 405.158547 57.633989 
L 407.086052 57.633989 
L 407.584544 56.411987 
L 407.817174 56.411987 
L 408.498447 55.189984 
L 408.963707 55.189984 
L 409.827761 53.356981 
L 410.75828 53.356981 
L 411.024143 52.74598 
L 411.290006 52.74598 
L 411.589101 52.134979 
L 412.320224 52.134979 
L 412.918415 50.912977 
L 413.68277 50.912977 
L 413.848934 50.301975 
L 414.081564 50.301975 
L 414.214495 49.690974 
L 414.463742 49.690974 
L 414.596673 49.079973 
L 415.061933 49.079973 
L 415.394261 48.468972 
L 415.626891 48.468972 
L 415.809672 47.857971 
L 416.507561 47.857971 
L 416.856506 47.24697 
L 417.438081 44.802966 
L 417.936573 44.802966 
L 418.13597 44.191964 
L 418.401833 44.191964 
L 418.700928 43.580963 
L 418.817243 42.969962 
L 419.664681 41.136959 
L 420.41242 41.136959 
L 420.711515 40.525958 
L 420.944145 40.525958 
L 421.259857 39.914957 
L 421.974363 39.914957 
L 422.107294 39.303956 
L 422.389773 38.692955 
L 423.370142 38.692955 
L 423.370142 38.692955 
" clip-path="url(#p60ddf6697b)" style="fill: none; stroke: #9a0eea; stroke-width: 1.6; stroke-linecap: square"/>
   </g>
   <g id="patch_3">
    <path d="M 49.842188 382.564375 
L 49.842188 22.318125 
" style="fill: none; stroke: #333333; stroke-width: 0.8; stroke-linejoin: miter; stroke-linecap: square"/>
   </g>
   <g id="patch_4">
    <path d="M 49.842188 382.564375 
L 441.157187 382.564375 
" style="fill: none; stroke: #333333; stroke-width: 0.8; stroke-linejoin: miter; stroke-linecap: square"/>
   </g>
   <g id="text_14">
    <!-- FrozenLake (Dyna-Q) — CF vs Time (non-zero only) -->
    <g transform="translate(88.4975 16.318125) scale(0.12 -0.12)">
     <defs>
      <path id="DejaVuSerif-46" d="M 353 0 
L 353 331 
L 947 331 
L 947 4331 
L 353 4331 
L 353 4666 
L 4172 4666 
L 4172 3628 
L 3788 3628 
L 3788 4281 
L 1581 4281 
L 1581 2719 
L 3175 2719 
L 3175 3303 
L 3559 3303 
L 3559 1753 
L 3175 1753 
L 3175 2338 
L 1581 2338 
L 1581 331 
L 2328 331 
L 2328 0 
L 353 0 
z
" transform="scale(0.015625)"/>
      <path id="DejaVuSerif-6f" d="M 1925 219 
Q 2388 219 2623 584 
Q 2859 950 2859 1663 
Q 2859 2375 2623 2739 
Q 2388 3103 1925 3103 
Q 1463 3103 1227 2739 
Q 991 2375 991 1663 
Q 991 950 1228 584 
Q 1466 219 1925 219 
z
M 1925 -91 
Q 1200 -91 759 389 
Q 319 869 319 1663 
Q 319 2456 758 2934 
Q 1197 3413 1925 3413 
Q 2653 3413 3092 2934 
Q 3531 2456 3531 1663 
Q 3531 869 3092 389 
Q 2653 -91 1925 -91 
z
" transform="scale(0.015625)"/>
      <path id="DejaVuSerif-7a" d="M 256 0 
L 256 269 
L 2338 2988 
L 691 2988 
L 691 2413 
L 359 2413 
L 359 3322 
L 3078 3322 
L 3078 3053 
L 997 331 
L 2803 331 
L 2803 934 
L 3138 934 
L 3138 0 
L 256 0 
z
" transform="scale(0.015625)"/>
      <path id="DejaVuSerif-6e" d="M 263 0 
L 263 331 
L 781 331 
L 781 2988 
L 231 2988 
L 231 3322 
L 1356 3322 
L 1356 2731 
Q 1516 3069 1770 3241 
Q 2025 3413 2363 3413 
Q 2913 3413 3172 3097 
Q 3431 2781 3431 2113 
L 3431 331 
L 3944 331 
L 3944 0 
L 2356 0 
L 2356 331 
L 2853 331 
L 2853 1931 
Q 2853 2541 2703 2767 
Q 2553 2994 2175 2994 
Q 1775 2994 1565 2701 
Q 1356 2409 1356 1850 
L 1356 331 
L 1856 331 
L 1856 0 
L 263 0 
z
" transform="scale(0.015625)"/>
      <path id="DejaVuSerif-4c" d="M 353 0 
L 353 331 
L 947 331 
L 947 4331 
L 353 4331 
L 353 4666 
L 2175 4666 
L 2175 4331 
L 1581 4331 
L 1581 384 
L 3713 384 
L 3713 1166 
L 4097 1166 
L 4097 0 
L 353 0 
z
" transform="scale(0.015625)"/>
      <path id="DejaVuSerif-6b" d="M 1831 0 
L 219 0 
L 219 331 
L 738 331 
L 738 4531 
L 184 4531 
L 184 4863 
L 1313 4863 
L 1313 1697 
L 2713 2988 
L 2234 2988 
L 2234 3322 
L 3738 3322 
L 3738 2988 
L 3169 2988 
L 2181 2075 
L 3444 331 
L 3922 331 
L 3922 0 
L 2284 0 
L 2284 331 
L 2759 331 
L 1766 1697 
L 1313 1275 
L 1313 331 
L 1831 331 
L 1831 0 
z
" transform="scale(0.015625)"/>
      <path id="DejaVuSerif-44" d="M 1581 331 
L 2163 331 
Q 3072 331 3558 850 
Q 4044 1369 4044 2338 
Q 4044 3306 3559 3818 
Q 3075 4331 2163 4331 
L 1581 4331 
L 1581 331 
z
M 353 0 
L 353 331 
L 947 331 
L 947 4331 
L 353 4331 
L 353 4666 
L 2209 4666 
Q 3416 4666 4089 4050 
Q 4763 3434 4763 2338 
Q 4763 1238 4088 619 
Q 3413 0 2209 0 
L 353 0 
z
" transform="scale(0.015625)"/>
      <path id="DejaVuSerif-79" d="M 1381 -609 
L 1600 -56 
L 359 2988 
L -19 2988 
L -19 3322 
L 1509 3322 
L 1509 2988 
L 978 2988 
L 1913 703 
L 2847 2988 
L 2350 2988 
L 2350 3322 
L 3597 3322 
L 3597 2988 
L 3225 2988 
L 1703 -750 
Q 1547 -1138 1356 -1280 
Q 1166 -1422 819 -1422 
Q 672 -1422 517 -1397 
Q 363 -1372 206 -1325 
L 206 -691 
L 500 -691 
Q 519 -903 608 -995 
Q 697 -1088 884 -1088 
Q 1056 -1088 1161 -992 
Q 1266 -897 1381 -609 
z
" transform="scale(0.015625)"/>
      <path id="DejaVuSerif-2d" d="M 281 1959 
L 1881 1959 
L 1881 1472 
L 281 1472 
L 281 1959 
z
" transform="scale(0.015625)"/>
      <path id="DejaVuSerif-51" d="M 2700 -91 
Q 1628 -91 993 567 
Q 359 1225 359 2328 
Q 359 2894 529 3339 
Q 700 3784 1050 4134 
Q 1356 4441 1750 4595 
Q 2144 4750 2625 4750 
Q 3641 4750 4266 4084 
Q 4891 3419 4891 2328 
Q 4891 1403 4422 773 
Q 3953 144 3128 -38 
Q 3297 -247 3539 -347 
Q 3781 -447 4122 -447 
L 4219 -447 
L 4219 -1025 
Q 3691 -1000 3314 -767 
Q 2938 -534 2700 -91 
z
M 2625 244 
Q 3391 244 3781 770 
Q 4172 1297 4172 2328 
Q 4172 3363 3781 3889 
Q 3391 4416 2625 4416 
Q 1856 4416 1465 3889 
Q 1075 3363 1075 2328 
Q 1075 1297 1465 770 
Q 1856 244 2625 244 
z
" transform="scale(0.015625)"/>
      <path id="DejaVuSerif-2014" d="M 281 1906 
L 6119 1906 
L 6119 1491 
L 281 1491 
L 281 1906 
z
" transform="scale(0.015625)"/>
      <path id="DejaVuSerif-54" d="M 1222 0 
L 1222 331 
L 1819 331 
L 1819 4294 
L 447 4294 
L 447 3566 
L 63 3566 
L 63 4666 
L 4206 4666 
L 4206 3566 
L 3822 3566 
L 3822 4294 
L 2450 4294 
L 2450 331 
L 3047 331 
L 3047 0 
L 1222 0 
z
" transform="scale(0.015625)"/>
     </defs>
     <use xlink:href="#DejaVuSerif-46"/>
     <use xlink:href="#DejaVuSerif-72" transform="translate(69.384766 0)"/>
     <use xlink:href="#DejaVuSerif-6f" transform="translate(117.1875 0)"/>
     <use xlink:href="#DejaVuSerif-7a" transform="translate(177.392578 0)"/>
     <use xlink:href="#DejaVuSerif-65" transform="translate(230.078125 0)"/>
     <use xlink:href="#DejaVuSerif-6e" transform="translate(289.257812 0)"/>
     <use xlink:href="#DejaVuSerif-4c" transform="translate(353.662109 0)"/>
     <use xlink:href="#DejaVuSerif-61" transform="translate(420.068359 0)"/>
     <use xlink:href="#DejaVuSerif-6b" transform="translate(479.6875 0)"/>
     <use xlink:href="#DejaVuSerif-65" transform="translate(540.283203 0)"/>
     <use xlink:href="#DejaVuSerif-20" transform="translate(599.462891 0)"/>
     <use xlink:href="#DejaVuSerif-28" transform="translate(631.25 0)"/>
     <use xlink:href="#DejaVuSerif-44" transform="translate(670.263672 0)"/>
     <use xlink:href="#DejaVuSerif-79" transform="translate(750.439453 0)"/>
     <use xlink:href="#DejaVuSerif-6e" transform="translate(806.933594 0)"/>
     <use xlink:href="#DejaVuSerif-61" transform="translate(871.337891 0)"/>
     <use xlink:href="#DejaVuSerif-2d" transform="translate(930.957031 0)"/>
     <use xlink:href="#DejaVuSerif-51" transform="translate(964.746094 0)"/>
     <use xlink:href="#DejaVuSerif-29" transform="translate(1046.728516 0)"/>
     <use xlink:href="#DejaVuSerif-20" transform="translate(1085.742188 0)"/>
     <use xlink:href="#DejaVuSerif-2014" transform="translate(1117.529297 0)"/>
     <use xlink:href="#DejaVuSerif-20" transform="translate(1217.529297 0)"/>
     <use xlink:href="#DejaVuSerif-43" transform="translate(1249.316406 0)"/>
     <use xlink:href="#DejaVuSerif-46" transform="translate(1325.830078 0)"/>
     <use xlink:href="#DejaVuSerif-20" transform="translate(1395.214844 0)"/>
     <use xlink:href="#DejaVuSerif-76" transform="translate(1427.001953 0)"/>
     <use xlink:href="#DejaVuSerif-73" transform="translate(1483.496094 0)"/>
     <use xlink:href="#DejaVuSerif-20" transform="translate(1534.814453 0)"/>
     <use xlink:href="#DejaVuSerif-54" transform="translate(1566.601562 0)"/>
     <use xlink:href="#DejaVuSerif-69" transform="translate(1633.300781 0)"/>
     <use xlink:href="#DejaVuSerif-6d" transform="translate(1665.283203 0)"/>
     <use xlink:href="#DejaVuSerif-65" transform="translate(1760.107422 0)"/>
     <use xlink:href="#DejaVuSerif-20" transform="translate(1819.287109 0)"/>
     <use xlink:href="#DejaVuSerif-28" transform="translate(1851.074219 0)"/>
     <use xlink:href="#DejaVuSerif-6e" transform="translate(1890.087891 0)"/>
     <use xlink:href="#DejaVuSerif-6f" transform="translate(1954.492188 0)"/>
     <use xlink:href="#DejaVuSerif-6e" transform="translate(2014.697266 0)"/>
     <use xlink:href="#DejaVuSerif-2d" transform="translate(2079.101562 0)"/>
     <use xlink:href="#DejaVuSerif-7a" transform="translate(2112.890625 0)"/>
     <use xlink:href="#DejaVuSerif-65" transform="translate(2165.576172 0)"/>
     <use xlink:href="#DejaVuSerif-72" transform="translate(2224.755859 0)"/>
     <use xlink:href="#DejaVuSerif-6f" transform="translate(2272.558594 0)"/>
     <use xlink:href="#DejaVuSerif-20" transform="translate(2332.763672 0)"/>
     <use xlink:href="#DejaVuSerif-6f" transform="translate(2364.550781 0)"/>
     <use xlink:href="#DejaVuSerif-6e" transform="translate(2424.755859 0)"/>
     <use xlink:href="#DejaVuSerif-6c" transform="translate(2489.160156 0)"/>
     <use xlink:href="#DejaVuSerif-79" transform="translate(2521.142578 0)"/>
     <use xlink:href="#DejaVuSerif-29" transform="translate(2577.636719 0)"/>
    </g>
   </g>
   <g id="legend_1">
    <g id="line2d_25">
     <path d="M 449.257187 201.774687 
L 458.257187 201.774687 
L 467.257187 201.774687 
" style="fill: none; stroke: #15b01a; stroke-width: 1.6; stroke-linecap: square"/>
    </g>
    <g id="text_15">
     <!-- RLMutation (F=482) -->
     <g transform="translate(474.457187 204.924687) scale(0.09 -0.09)">
      <defs>
       <path id="DejaVuSerif-52" d="M 3066 2316 
Q 3284 2256 3442 2114 
Q 3600 1972 3725 1716 
L 4403 331 
L 4972 331 
L 4972 0 
L 3872 0 
L 3144 1484 
Q 2934 1916 2759 2042 
Q 2584 2169 2278 2169 
L 1581 2169 
L 1581 331 
L 2241 331 
L 2241 0 
L 353 0 
L 353 331 
L 947 331 
L 947 4331 
L 353 4331 
L 353 4666 
L 2719 4666 
Q 3400 4666 3770 4341 
Q 4141 4016 4141 3419 
Q 4141 2938 3870 2661 
Q 3600 2384 3066 2316 
z
M 1581 2503 
L 2503 2503 
Q 2975 2503 3200 2726 
Q 3425 2950 3425 3419 
Q 3425 3888 3200 4109 
Q 2975 4331 2503 4331 
L 1581 4331 
L 1581 2503 
z
" transform="scale(0.015625)"/>
       <path id="DejaVuSerif-4d" d="M 353 0 
L 353 331 
L 947 331 
L 947 4331 
L 319 4331 
L 319 4666 
L 1678 4666 
L 3316 1344 
L 4953 4666 
L 6228 4666 
L 6228 4331 
L 5606 4331 
L 5606 331 
L 6203 331 
L 6203 0 
L 4378 0 
L 4378 331 
L 4972 331 
L 4972 3938 
L 3372 684 
L 2931 684 
L 1331 3938 
L 1331 331 
L 1925 331 
L 1925 0 
L 353 0 
z
" transform="scale(0.015625)"/>
       <path id="DejaVuSerif-3d" d="M 678 2894 
L 4684 2894 
L 4684 2394 
L 678 2394 
L 678 2894 
z
M 678 1619 
L 4684 1619 
L 4684 1119 
L 678 1119 
L 678 1619 
z
" transform="scale(0.015625)"/>
       <path id="DejaVuSerif-38" d="M 2981 1275 
Q 2981 1775 2732 2051 
Q 2484 2328 2034 2328 
Q 1584 2328 1336 2051 
Q 1088 1775 1088 1275 
Q 1088 772 1336 495 
Q 1584 219 2034 219 
Q 2484 219 2732 495 
Q 2981 772 2981 1275 
z
M 2853 3541 
Q 2853 3966 2637 4203 
Q 2422 4441 2034 4441 
Q 1650 4441 1433 4203 
Q 1216 3966 1216 3541 
Q 1216 3113 1433 2875 
Q 1650 2638 2034 2638 
Q 2422 2638 2637 2875 
Q 2853 3113 2853 3541 
z
M 2516 2484 
Q 3047 2413 3344 2092 
Q 3641 1772 3641 1275 
Q 3641 619 3225 264 
Q 2809 -91 2034 -91 
Q 1263 -91 845 264 
Q 428 619 428 1275 
Q 428 1772 725 2092 
Q 1022 2413 1556 2484 
Q 1084 2569 832 2842 
Q 581 3116 581 3541 
Q 581 4103 968 4426 
Q 1356 4750 2034 4750 
Q 2713 4750 3100 4426 
Q 3488 4103 3488 3541 
Q 3488 3116 3236 2842 
Q 2984 2569 2516 2484 
z
" transform="scale(0.015625)"/>
      </defs>
      <use xlink:href="#DejaVuSerif-52"/>
      <use xlink:href="#DejaVuSerif-4c" transform="translate(75.292969 0)"/>
      <use xlink:href="#DejaVuSerif-4d" transform="translate(141.699219 0)"/>
      <use xlink:href="#DejaVuSerif-75" transform="translate(244.091797 0)"/>
      <use xlink:href="#DejaVuSerif-74" transform="translate(308.496094 0)"/>
      <use xlink:href="#DejaVuSerif-61" transform="translate(348.681641 0)"/>
      <use xlink:href="#DejaVuSerif-74" transform="translate(408.300781 0)"/>
      <use xlink:href="#DejaVuSerif-69" transform="translate(448.486328 0)"/>
      <use xlink:href="#DejaVuSerif-6f" transform="translate(480.46875 0)"/>
      <use xlink:href="#DejaVuSerif-6e" transform="translate(540.673828 0)"/>
      <use xlink:href="#DejaVuSerif-20" transform="translate(605.078125 0)"/>
      <use xlink:href="#DejaVuSerif-28" transform="translate(636.865234 0)"/>
      <use xlink:href="#DejaVuSerif-46" transform="translate(675.878906 0)"/>
      <use xlink:href="#DejaVuSerif-3d" transform="translate(745.263672 0)"/>
      <use xlink:href="#DejaVuSerif-34" transform="translate(829.052734 0)"/>
      <use xlink:href="#DejaVuSerif-38" transform="translate(892.675781 0)"/>
      <use xlink:href="#DejaVuSerif-32" transform="translate(956.298828 0)"/>
      <use xlink:href="#DejaVuSerif-29" transform="translate(1019.921875 0)"/>
     </g>
    </g>
    <g id="line2d_26">
     <path d="M 587.764375 201.774687 
L 596.764375 201.774687 
L 605.764375 201.774687 
" style="fill: none; stroke: #9a0eea; stroke-width: 1.6; stroke-linecap: square"/>
    </g>
    <g id="text_16">
     <!-- AlphaTest (F=536) -->
     <g transform="translate(612.964375 204.924687) scale(0.09 -0.09)">
      <defs>
       <path id="DejaVuSerif-41" d="M 1281 1691 
L 2994 1691 
L 2138 3909 
L 1281 1691 
z
M -38 0 
L -38 331 
L 372 331 
L 2034 4666 
L 2559 4666 
L 4225 331 
L 4684 331 
L 4684 0 
L 2988 0 
L 2988 331 
L 3506 331 
L 3116 1356 
L 1153 1356 
L 763 331 
L 1275 331 
L 1275 0 
L -38 0 
z
" transform="scale(0.015625)"/>
       <path id="DejaVuSerif-70" d="M 1313 1825 
L 1313 1497 
Q 1313 897 1542 583 
Q 1772 269 2209 269 
Q 2650 269 2876 622 
Q 3103 975 3103 1663 
Q 3103 2353 2876 2703 
Q 2650 3053 2209 3053 
Q 1772 3053 1542 2737 
Q 1313 2422 1313 1825 
z
M 738 2988 
L 184 2988 
L 184 3322 
L 1313 3322 
L 1313 2803 
Q 1481 3116 1742 3264 
Q 2003 3413 2388 3413 
Q 3000 3413 3387 2928 
Q 3775 2444 3775 1663 
Q 3775 881 3387 395 
Q 3000 -91 2388 -91 
Q 2003 -91 1742 57 
Q 1481 206 1313 519 
L 1313 -997 
L 1856 -997 
L 1856 -1331 
L 184 -1331 
L 184 -997 
L 738 -997 
L 738 2988 
z
" transform="scale(0.015625)"/>
       <path id="DejaVuSerif-68" d="M 263 0 
L 263 331 
L 781 331 
L 781 4531 
L 231 4531 
L 231 4863 
L 1356 4863 
L 1356 2731 
Q 1516 3069 1770 3241 
Q 2025 3413 2363 3413 
Q 2913 3413 3172 3097 
Q 3431 2781 3431 2113 
L 3431 331 
L 3944 331 
L 3944 0 
L 2356 0 
L 2356 331 
L 2853 331 
L 2853 1931 
Q 2853 2541 2704 2764 
Q 2556 2988 2175 2988 
Q 1775 2988 1565 2697 
Q 1356 2406 1356 1850 
L 1356 331 
L 1856 331 
L 1856 0 
L 263 0 
z
" transform="scale(0.015625)"/>
       <path id="DejaVuSerif-36" d="M 2094 219 
Q 2534 219 2771 542 
Q 3009 866 3009 1472 
Q 3009 2078 2771 2401 
Q 2534 2725 2094 2725 
Q 1647 2725 1412 2412 
Q 1178 2100 1178 1509 
Q 1178 888 1415 553 
Q 1653 219 2094 219 
z
M 1075 2569 
Q 1288 2803 1556 2918 
Q 1825 3034 2163 3034 
Q 2859 3034 3264 2615 
Q 3669 2197 3669 1472 
Q 3669 763 3233 336 
Q 2797 -91 2069 -91 
Q 1278 -91 853 498 
Q 428 1088 428 2181 
Q 428 3406 931 4078 
Q 1434 4750 2350 4750 
Q 2597 4750 2869 4703 
Q 3141 4656 3425 4563 
L 3425 3794 
L 3072 3794 
Q 3034 4109 2831 4275 
Q 2628 4441 2284 4441 
Q 1678 4441 1381 3981 
Q 1084 3522 1075 2569 
z
" transform="scale(0.015625)"/>
      </defs>
      <use xlink:href="#DejaVuSerif-41"/>
      <use xlink:href="#DejaVuSerif-6c" transform="translate(72.216797 0)"/>
      <use xlink:href="#DejaVuSerif-70" transform="translate(104.199219 0)"/>
      <use xlink:href="#DejaVuSerif-68" transform="translate(168.212891 0)"/>
      <use xlink:href="#DejaVuSerif-61" transform="translate(232.617188 0)"/>
      <use xlink:href="#DejaVuSerif-54" transform="translate(292.236328 0)"/>
      <use xlink:href="#DejaVuSerif-65" transform="translate(351.185547 0)"/>
      <use xlink:href="#DejaVuSerif-73" transform="translate(410.365234 0)"/>
      <use xlink:href="#DejaVuSerif-74" transform="translate(461.683594 0)"/>
      <use xlink:href="#DejaVuSerif-20" transform="translate(501.869141 0)"/>
      <use xlink:href="#DejaVuSerif-28" transform="translate(533.65625 0)"/>
      <use xlink:href="#DejaVuSerif-46" transform="translate(572.669922 0)"/>
      <use xlink:href="#DejaVuSerif-3d" transform="translate(642.054688 0)"/>
      <use xlink:href="#DejaVuSerif-35" transform="translate(725.84375 0)"/>
      <use xlink:href="#DejaVuSerif-33" transform="translate(789.466797 0)"/>
      <use xlink:href="#DejaVuSerif-36" transform="translate(853.089844 0)"/>
      <use xlink:href="#DejaVuSerif-29" transform="translate(916.712891 0)"/>
     </g>
    </g>
   </g>
  </g>
 </g>
 <defs>
  <clipPath id="p60ddf6697b">
   <rect x="49.842188" y="22.318125" width="391.315" height="360.24625"/>
  </clipPath>
 </defs>
</svg>
